<?xml version="1.0" standalone="no"?>
<!DOCTYPE svg PUBLIC "-//W3C//DTD SVG 1.1//EN" "http://www.w3.org/Graphics/SVG/1.1/DTD/svg11.dtd" >
<svg>
<metadata>
Created by FontForge 20090914 at Sun May 29 15:37:18 2016
 By www-data
Copyright (c) 2016 by Sergey Ryadovoy &#38; Jovanny Lemonad. All rights reserved.
</metadata>
<defs>
<font id="PeaceSans" horiz-adv-x="670" >
  <font-face 
    font-family="Peace Sans"
    font-weight="400"
    font-stretch="normal"
    units-per-em="1000"
    panose-1="2 0 5 5 4 0 0 2 0 4"
    ascent="800"
    descent="-200"
    x-height="529.999"
    cap-height="700"
    bbox="-49 -390 1270 1020"
    underline-thickness="50"
    underline-position="-50"
    unicode-range="U+000D-U+F6D4"
  />
<missing-glyph horiz-adv-x="0" 
 />
    <glyph glyph-name=".notdef" horiz-adv-x="0" 
 />
    <glyph glyph-name=".null" horiz-adv-x="0" 
 />
    <glyph glyph-name=".null" horiz-adv-x="0" 
 />
    <glyph glyph-name="nonmarkingreturn" unicode="&#xd;" horiz-adv-x="0" 
 />
    <glyph glyph-name="space" unicode=" " horiz-adv-x="200" 
 />
    <glyph glyph-name="exclam" unicode="!" horiz-adv-x="380" 
d="M285 260h-190l-35 480h260zM295 200v-200h-210v200h210z" />
    <glyph glyph-name="quotedbl" unicode="&#x22;" horiz-adv-x="480" 
d="M410 450h-120l-30 290h180zM190 450h-120l-30 290h180z" />
    <glyph glyph-name="numbersign" unicode="#" horiz-adv-x="750" 
d="M310 280h110l20 140h-110zM460 560l20 140h160l-20 -140h120l-20 -140h-120l-20 -140h120l-20 -140h-120l-20 -140h-160l20 140h-110l-20 -140h-160l20 140h-120l20 140h120l20 140h-120l20 140h120l20 140h160l-20 -140h110z" />
    <glyph glyph-name="dollar" unicode="$" horiz-adv-x="625" 
d="M240 -10c-40 5.33301 -74.501 14.168 -103.501 26.501s-52.833 25.166 -71.5 38.499c-22 15.333 -40.333 32 -55 50l95 150c14 -12.667 29.667 -23.667 47 -33c15.333 -8 33.333 -15.333 54 -22s43.667 -10 69 -10c12.667 0 22.5 3.16699 29.5 9.5
s10.5 13.166 10.5 20.499c0 8.66699 -6.66699 16.167 -20 22.5s-30 13.333 -50 21s-41.667 16.834 -65 27.501s-45 24.667 -65 42s-36.667 38.666 -50 63.999s-20 56.333 -20 93c0 20.667 2.83301 39.5 8.5 56.5s13 32.5 22 46.5s19.333 26.5 31 37.5s23.5 20.5 35.5 28.5
c28.667 19.333 61.334 34.666 98.001 45.999v85h130v-75c38 -4 71.167 -11.833 99.5 -23.5s52.166 -24.167 71.499 -37.5c22.667 -15.333 42.334 -31.666 59.001 -48.999l-95 -150c-12 10 -25 19 -39 27c-12 7.33301 -25.833 13.833 -41.5 19.5s-32.167 8.5 -49.5 8.5
c-12.667 0 -22.5 -3.16699 -29.5 -9.5s-10.5 -13.166 -10.5 -20.499c0 -8.66699 6.66699 -16.167 20 -22.5s30 -13.333 50 -21s41.667 -17 65 -28s45 -25 65 -42s36.667 -38.167 50 -63.5s20 -56.333 20 -93c0 -24 -3.33301 -45.333 -10 -64s-15.5 -35.5 -26.5 -50.5
s-23.667 -27.833 -38 -38.5s-28.833 -20 -43.5 -28c-34.667 -18 -73.667 -31 -117 -39v-80h-130v80z" />
    <glyph glyph-name="percent" unicode="%" horiz-adv-x="790" 
d="M60 0l470 700h200l-470 -700h-200zM180 600c-10 0 -19.167 -4.5 -27.5 -13.5s-12.5 -21.167 -12.5 -36.5s4.16699 -27.5 12.5 -36.5s17.5 -13.5 27.5 -13.5s19.167 4.5 27.5 13.5s12.5 21.167 12.5 36.5s-4.16699 27.5 -12.5 36.5s-17.5 13.5 -27.5 13.5zM180 390
c-22.667 0 -43.667 4.16699 -63 12.5s-36.166 19.666 -50.499 33.999s-25.666 31.166 -33.999 50.499s-12.5 40.333 -12.5 63s4.16699 43.667 12.5 63s19.666 36.166 33.999 50.499s31.166 25.666 50.499 33.999s40.333 12.5 63 12.5s43.667 -4.16699 63 -12.5
s36.166 -19.666 50.499 -33.999s25.666 -31.166 33.999 -50.499s12.5 -40.333 12.5 -63s-4.16699 -43.667 -12.5 -63s-19.666 -36.166 -33.999 -50.499s-31.166 -25.666 -50.499 -33.999s-40.333 -12.5 -63 -12.5zM610 200c-10 0 -19.167 -4.5 -27.5 -13.5
s-12.5 -21.167 -12.5 -36.5s4.16699 -27.5 12.5 -36.5s17.5 -13.5 27.5 -13.5s19.167 4.5 27.5 13.5s12.5 21.167 12.5 36.5s-4.16699 27.5 -12.5 36.5s-17.5 13.5 -27.5 13.5zM610 -10c-22.667 0 -43.667 4.16699 -63 12.5s-36.166 19.666 -50.499 33.999
s-25.666 31.166 -33.999 50.499s-12.5 40.333 -12.5 63s4.16699 43.667 12.5 63s19.666 36.166 33.999 50.499s31.166 25.666 50.499 33.999s40.333 12.5 63 12.5s43.667 -4.16699 63 -12.5s36.166 -19.666 50.499 -33.999s25.666 -31.166 33.999 -50.499
s12.5 -40.333 12.5 -63s-4.16699 -43.667 -12.5 -63s-19.666 -36.166 -33.999 -50.499s-31.166 -25.666 -50.499 -33.999s-40.333 -12.5 -63 -12.5z" />
    <glyph glyph-name="ampersand" unicode="&#x26;" horiz-adv-x="715" 
d="M595 -10l-95.001 85c-16.667 -17.333 -36 -32.333 -58 -45c-19.333 -11.333 -42.333 -21.666 -69 -30.999s-57.667 -14 -93 -14c-40 0 -75.5 5.33301 -106.5 16s-57.167 25.167 -78.5 43.5s-37.5 40 -48.5 65s-16.5 51.833 -16.5 80.5c0 30 6.16699 56.667 18.5 80
s26.166 43.333 41.499 60c17.333 18.667 37.333 35.334 60 50.001c-11.333 11.333 -21.333 24 -30 38c-7.33301 12 -14.166 26.667 -20.499 44s-9.5 36.666 -9.5 57.999c0 27.333 5.33301 53.166 16 77.499s25.834 45.5 45.501 63.5s43.334 32.333 71.001 43
s58.5 16 92.5 16c31.333 0 60.166 -5.16699 86.499 -15.5s49 -24.333 68 -42s33.833 -38 44.5 -61s16 -46.833 16 -71.5c0 -20 -5 -39.5 -15 -58.5s-21 -36.167 -33 -51.5c-14 -17.333 -29.667 -34 -47 -50l50 -45l95 115l135 -115l-95 -115l95 -80zM269.999 510
c0 -7.33301 2.33398 -14.666 7.00098 -21.999s9.66699 -13.666 15 -18.999c6.66699 -6.66699 14.334 -13 23.001 -19c8 6 15.333 12.333 22 19c5.33301 5.33301 10.5 11.666 15.5 18.999s7.5 14.666 7.5 21.999c0 15.333 -4.33301 27.5 -13 36.5s-19.334 13.5 -32.001 13.5
s-23.334 -4.5 -32.001 -13.5s-13 -21.167 -13 -36.5zM240 215c0 -15.333 5.33301 -28.333 16 -39s23.667 -16 39 -16c11.333 0 21.333 1.5 30 4.5s16 6.5 22 10.5c7.33301 4 13.333 9 18 15l-95 80c-6 -4.66699 -11 -10 -15 -16c-4 -5.33301 -7.5 -11.333 -10.5 -18
s-4.5 -13.667 -4.5 -21z" />
    <glyph glyph-name="quotesingle" unicode="'" horiz-adv-x="260" 
d="M190 450h-120l-30 290h180z" />
    <glyph glyph-name="parenleft" unicode="(" horiz-adv-x="400" 
d="M270 280c0 -58 6.66699 -112.333 20 -163s28.333 -95 45 -133c18.667 -44.667 40.334 -86 65.001 -124h-130c-39.333 32 -74.333 69.333 -105 112c-13.333 18 -26.333 38 -39 60s-23.834 46 -33.501 72s-17.5 53.667 -23.5 83s-9 60.333 -9 93s3 63.5 9 92.5
s13.833 56.333 23.5 82s20.834 49.667 33.501 72s25.667 42.5 39 60.5c30.667 42 65.667 79.667 105 113h130c-24.667 -38 -46.334 -79.333 -65.001 -124c-16.667 -38 -31.667 -82.333 -45 -133s-20 -105 -20 -163z" />
    <glyph glyph-name="parenright" unicode=")" horiz-adv-x="400" 
d="M130 280c0 58 -6.83301 112.333 -20.5 163s-28.5 95 -44.5 133c-19.333 44.667 -41 86 -65 124h130c38.667 -33.333 73.667 -71 105 -113c12.667 -18 25.334 -38.167 38.001 -60.5s24 -46.333 34 -72s18 -53 24 -82s9 -59.833 9 -92.5s-3 -63.667 -9 -93s-14 -57 -24 -83
s-21.333 -50 -34 -72s-25.334 -42 -38.001 -60c-31.333 -42.667 -66.333 -80 -105 -112h-130c24 38 45.667 79.333 65 124c16 38 30.833 82.333 44.5 133s20.5 105 20.5 163z" />
    <glyph glyph-name="asterisk" unicode="*" horiz-adv-x="490" 
d="M180 290l-115 85l70 90l-105 30l45 130l105 -35l-5 110h140l-5 -110l105 35l45 -130l-105 -30l70 -90l-115 -85l-65 95z" />
    <glyph glyph-name="plus" unicode="+" horiz-adv-x="510" 
d="M480 420v-190h-130v-140h-190v140h-130v190h130v140h190v-140h130z" />
    <glyph glyph-name="comma" unicode="," horiz-adv-x="300" 
d="M280 200l-120 -300h-160l70 300h210z" />
    <glyph glyph-name="hyphen" unicode="-" horiz-adv-x="490" 
d="M30 420h430v-190h-430v190z" />
    <glyph glyph-name="period" unicode="." horiz-adv-x="290" 
d="M250 200v-200h-210v200h210z" />
    <glyph glyph-name="slash" unicode="/" horiz-adv-x="550" 
d="M20 -80l320 860h190l-320 -860h-190z" />
    <glyph glyph-name="zero" unicode="0" horiz-adv-x="760" 
d="M380 490c-20 0 -38.333 -10.833 -55 -32.5s-25 -57.5 -25 -107.5s8.33301 -85.833 25 -107.5s35 -32.5 55 -32.5s38.333 10.833 55 32.5s25 57.5 25 107.5s-8.33301 85.833 -25 107.5s-35 32.5 -55 32.5zM380 -15c-47.333 0 -91.666 9 -132.999 27s-77.333 43 -108 75
s-54.834 70.333 -72.501 115s-26.5 94 -26.5 148s8.83301 103.333 26.5 148s41.834 83 72.501 115s66.667 57 108 75s85.666 27 132.999 27s91.666 -9 132.999 -27s77.333 -43 108 -75s54.834 -70.333 72.501 -115s26.5 -94 26.5 -148s-8.83301 -103.333 -26.5 -148
s-41.834 -83 -72.501 -115s-66.667 -57 -108 -75s-85.666 -27 -132.999 -27z" />
    <glyph glyph-name="one" unicode="1" horiz-adv-x="490" 
d="M430 700v-700h-260v460l-150 -50v220l170 70h240z" />
    <glyph glyph-name="two" unicode="2" horiz-adv-x="655" 
d="M605 490c0 -21.333 -3.00098 -41.498 -9.00098 -60.498s-14 -36.833 -24 -53.5s-21.333 -32.167 -34 -46.5s-25.334 -27.166 -38.001 -38.499c-31.333 -26.667 -66.333 -50.334 -105 -71.001h200v-220h-540v200c52 32 98.667 64 140 96
c17.333 13.333 34.5 27.333 51.5 42s32 29.167 45 43.5s23.5 28.166 31.5 41.499s12 25.666 12 36.999c0 15.333 -4.83301 27.5 -14.5 36.5s-23.167 13.5 -40.5 13.5c-21.333 0 -40.666 -2.83301 -57.999 -8.5s-32.666 -12.167 -45.999 -19.5c-15.333 -8 -29 -17 -41 -27
l-95 150c19.333 20 42.333 38.333 69 55c23.333 13.333 52.333 25.833 87 37.5s76 17.5 124 17.5c44 0 83.5 -6.33301 118.5 -19s64.833 -29.5 89.5 -50.5s43.667 -45 57 -72s20 -54.833 20 -83.5z" />
    <glyph glyph-name="three" unicode="3" horiz-adv-x="635" 
d="M425 400c31.333 -7.33301 59.6689 -19.3359 85.002 -36.0029c10.667 -7.33301 21 -15.833 31 -25.5s19 -21 27 -34s14.5 -27.667 19.5 -44s7.5 -34.833 7.5 -55.5c0 -27.333 -6.66699 -54.166 -20 -80.499s-32.333 -49.833 -57 -70.5s-54.5 -37.334 -89.5 -50.001
s-74.5 -19 -118.5 -19c-48 0 -89.333 5.66699 -124 17s-63.667 24 -87 38c-26.667 16 -49.667 34.333 -69 55l95 150c12 -10.667 25.667 -20 41 -28c13.333 -7.33301 28.666 -13.666 45.999 -18.999s36.666 -8 57.999 -8c17.333 0 30.833 4.33301 40.5 13
s14.5 19.334 14.5 32.001s-4.83301 23.334 -14.5 32.001s-23.167 13 -40.5 13h-85v130l120 80h-230v210h490v-210z" />
    <glyph glyph-name="four" unicode="4" horiz-adv-x="660" 
d="M640 300v-190h-60v-110h-260v110h-290v190l250 400h300v-400h60zM320 300v130l-60 -130h60z" />
    <glyph glyph-name="five" unicode="5" horiz-adv-x="615" 
d="M345 450c34.667 0 66.833 -5.83105 96.5 -17.498s55 -27.834 76 -48.501s37.5 -45 49.5 -73s18 -58.333 18 -91c0 -31.333 -6.66699 -61.166 -20 -89.499s-32.333 -53.333 -57 -75s-54.5 -38.834 -89.5 -51.501s-74.5 -19 -118.5 -19c-48 0 -89.333 5.66699 -124 17
s-63.667 24 -87 38c-26.667 16 -49.667 34.333 -69 55l95 150c12 -10.667 25 -20 39 -28c12 -7.33301 25.833 -13.666 41.5 -18.999s32.167 -8 49.5 -8c22.667 0 40 5.66699 52 17s18 25.666 18 42.999s-6 31.666 -18 42.999s-29.333 17 -52 17c-10 0 -19.833 -1 -29.5 -3
s-18.167 -4.33301 -25.5 -7c-8.66699 -2.66699 -17 -6 -25 -10l-120 80l50 330h450v-210h-260l-10 -50c6 1.33301 12.667 3 20 5c6 1.33301 13.333 2.5 22 3.5s18 1.5 28 1.5z" />
    <glyph glyph-name="six" unicode="6" 
d="M290 420c8 9.33301 17.9971 17.668 29.9971 25.001c10 6 22.5 11.667 37.5 17s32.5 8 52.5 8c34.667 0 66.167 -5.5 94.5 -16.5s52.5 -26.5 72.5 -46.5s35.5 -44.167 46.5 -72.5s16.5 -59.833 16.5 -94.5c0 -36 -6.66699 -69.667 -20 -101s-32.166 -58.333 -56.499 -81
s-53.666 -40.5 -87.999 -53.5s-72.833 -19.5 -115.5 -19.5c-47.333 0 -90.666 8 -129.999 24s-73 39.5 -101 70.5s-49.833 69.167 -65.5 114.5s-23.5 97.333 -23.5 156c0 54 8.66699 103.333 26 148s41 83 71 115s65 57 105 75s82.667 27 128 27c35.333 0 67 -3.5 95 -10.5
s52 -14.5 72 -22.5c23.333 -9.33301 44.333 -20 63 -32l-70 -160c-10 5.33301 -21 10.333 -33 15c-10 3.33301 -21.5 6.66602 -34.5 9.99902s-27.167 5 -42.5 5c-20 0 -38 -2.83301 -54 -8.5s-29.667 -13.167 -41 -22.5s-20 -20 -26 -32s-9 -24.333 -9 -37zM409.997 240.002
c0 22.667 -5.16699 40 -15.5 52s-21.833 18 -34.5 18s-24.167 -6 -34.5 -18s-15.5 -29.333 -15.5 -52s5.16699 -40 15.5 -52s21.833 -18 34.5 -18s24.167 6 34.5 18s15.5 29.333 15.5 52z" />
    <glyph glyph-name="seven" unicode="7" horiz-adv-x="590" 
d="M570 490l-240 -490h-270l235 480h-255v220h530v-210z" />
    <glyph glyph-name="eight" unicode="8" horiz-adv-x="690" 
d="M345 560c-12.667 0 -23.334 -4.83301 -32.001 -14.5s-13 -23.167 -13 -40.5s4.33301 -30.833 13 -40.5s19.334 -14.5 32.001 -14.5s23.334 4.83301 32.001 14.5s13 23.167 13 40.5s-4.33301 30.833 -13 40.5s-19.334 14.5 -32.001 14.5zM345 280
c-15.333 0 -28.333 -5.66699 -39 -17s-16 -25.666 -16 -42.999s5.33301 -31.666 16 -42.999s23.667 -17 39 -17s28.333 5.66699 39 17s16 25.666 16 42.999s-5.33301 31.666 -16 42.999s-23.667 17 -39 17zM345 715c44 0 83.0039 -5.66699 117.004 -17
s62.667 -26.5 86 -45.5s41.166 -40.5 53.499 -64.5s18.5 -48.333 18.5 -73c0 -28 -5.16699 -51.167 -15.5 -69.5s-21.833 -33.166 -34.5 -44.499c-14.667 -13.333 -31.334 -23.666 -50.001 -30.999v-5c26 -8 49.333 -19.667 70 -35
c17.333 -13.333 33.333 -31.166 48 -53.499s22 -51.166 22 -86.499c0 -26 -6.33301 -51.333 -19 -76s-32 -46.5 -58 -65.5s-58.667 -34.333 -98 -46s-86 -17.5 -140 -17.5s-100.667 5.83301 -140 17.5s-72 27 -98 46s-45.333 40.833 -58 65.5s-19 50 -19 76
c0 35.333 7.33301 64.166 22 86.499s30.667 40.166 48 53.499c20.667 15.333 44 27 70 35v5c-18.667 7.33301 -35.334 17.666 -50.001 30.999c-12.667 11.333 -24.167 26.166 -34.5 44.499s-15.5 41.5 -15.5 69.5c0 24.667 6.16699 49 18.5 73s30.166 45.5 53.499 64.5
s52 34.167 86 45.5s73 17 117 17z" />
    <glyph glyph-name="nine" unicode="9" 
d="M380 280c-8 -9.33301 -17.998 -17.666 -29.998 -24.999c-10 -6.66699 -22.5 -12.5 -37.5 -17.5s-32.5 -7.5 -52.5 -7.5c-35.333 0 -67.166 5.33301 -95.499 16s-52.5 26 -72.5 46s-35.333 44.167 -46 72.5s-16 60.166 -16 95.499c0 36 6.66699 69.667 20 101
s32.166 58.333 56.499 81s53.666 40.5 87.999 53.5s72.833 19.5 115.5 19.5c47.333 0 90.666 -8 129.999 -24s73 -39.5 101 -70.5s49.833 -69.167 65.5 -114.5s23.5 -97.333 23.5 -156c0 -54 -8.83301 -103.333 -26.5 -148s-41.5 -83 -71.5 -115s-65 -57 -105 -75
s-82.333 -27 -127 -27c-35.333 0 -67.166 3.33301 -95.499 10s-52.5 14 -72.5 22c-23.333 9.33301 -44 20.333 -62 33l70 160c9.33301 -6 20 -11 32 -15c10 -4 21.667 -7.5 35 -10.5s27.666 -4.5 42.999 -4.5c20 0 38 2.83301 54 8.5s29.667 13.167 41 22.5s20 20 26 32
s9 24.333 9 37zM260.002 460c0 -22.667 5.16699 -40 15.5 -52s21.833 -18 34.5 -18s24.167 6 34.5 18s15.5 29.333 15.5 52s-5.16699 40 -15.5 52s-21.833 18 -34.5 18s-24.167 -6 -34.5 -18s-15.5 -29.333 -15.5 -52z" />
    <glyph glyph-name="colon" unicode=":" horiz-adv-x="290" 
d="M40 330v200h210v-200h-210zM40 0v200h210v-200h-210z" />
    <glyph glyph-name="semicolon" unicode=";" horiz-adv-x="320" 
d="M70 330v200h210v-200h-210zM280 200l-120 -300h-160l70 300h210z" />
    <glyph glyph-name="less" unicode="&#x3c;" horiz-adv-x="600" 
d="M560 530v-170l-310 -95l310 -95v-170l-520 180v170z" />
    <glyph glyph-name="equal" unicode="=" horiz-adv-x="490" 
d="M460 280v-170h-430v170h430zM30 530h430v-170h-430v170z" />
    <glyph glyph-name="greater" unicode="&#x3e;" horiz-adv-x="600" 
d="M560 350v-170l-520 -180v170l310 95l-310 95v170z" />
    <glyph glyph-name="question" unicode="?" horiz-adv-x="600" 
d="M570 530c0 -22 -4.16309 -41.5 -12.4961 -58.5s-18.833 -32.667 -31.5 -47s-26.334 -27.833 -41.001 -40.5s-28.334 -25.5 -41.001 -38.5s-23.167 -26.333 -31.5 -40s-12.5 -28.834 -12.5 -45.501h-210c0 37.333 6.16699 67.666 18.5 90.999s26 43 41 59l41.5 44
c12.667 13.333 19 28.666 19 45.999c0 10 -4.16699 19.167 -12.5 27.5s-17.5 12.5 -27.5 12.5c-12.667 0 -22.834 -3.16699 -30.501 -9.5s-13.834 -13.166 -18.501 -20.499c-5.33301 -8.66699 -9 -18.667 -11 -30l-190 70c10 35.333 26.667 67 50 95c10 12 22 23.667 36 35
s30.333 21.5 49 30.5s40 16.167 64 21.5s51 8 81 8c42.667 0 80.667 -5.83301 114 -17.5s61.5 -27.167 84.5 -46.5s40.667 -41.666 53 -66.999s18.5 -51.666 18.5 -78.999zM400.004 200v-200h-210v200h210z" />
    <glyph glyph-name="at" unicode="@" horiz-adv-x="840" 
d="M700 270c0 37.333 -7.16699 72.498 -21.5 105.498s-34 61.667 -59 86s-54.5 43.5 -88.5 57.5s-71 21 -111 21s-77.167 -7 -111.5 -21s-64 -33.167 -89 -57.5s-44.5 -53 -58.5 -86s-21 -68.167 -21 -105.5s7 -72.5 21 -105.5s33.5 -61.667 58.5 -86s54.667 -43.5 89 -57.5
s71.5 -21 111.5 -21c22.667 0 43.667 2 63 6s36.333 8.66699 51 14c17.333 6 32.666 12.667 45.999 20l40 -90c-16 -9.33301 -34.333 -17.666 -55 -24.999c-17.333 -6.66699 -38.333 -12.5 -63 -17.5s-52 -7.5 -82 -7.5c-52.667 0 -102 9.83301 -148 29.5
s-86.167 46.5 -120.5 80.5s-61.5 73.333 -81.5 118s-30 92 -30 142s10 97.333 30 142s47.167 84 81.5 118s74.5 60.833 120.5 80.5s95.333 29.5 148 29.5s102 -9.83301 148 -29.5s86.167 -46.5 120.5 -80.5s61.5 -73.333 81.5 -118s30 -92 30 -142
c0 -27.333 -4.66699 -52.666 -14 -75.999s-21.833 -43.5 -37.5 -60.5s-33.667 -30.167 -54 -39.5s-41.833 -14 -64.5 -14s-41.667 3.5 -57 10.5s-27.666 15.167 -36.999 24.5c-11.333 10 -20 21.667 -26 35c-6.66699 -13.333 -16 -25 -28 -35
c-10.667 -9.33301 -24.667 -17.5 -42 -24.5s-39 -10.5 -65 -10.5c-18.667 0 -36.667 4.33301 -54 13s-32.833 21 -46.5 37s-24.5 35.833 -32.5 59.5s-12 50.5 -12 80.5s4 56.833 12 80.5s18.833 43.5 32.5 59.5s29.167 28.333 46.5 37s35.333 13 54 13
c13.333 0 24.833 -2 34.5 -6s17.5 -8.66699 23.5 -14c7.33301 -6 13 -12.667 17 -20l10 30h140v-190c0 -22.667 5.16699 -40 15.5 -52s21.833 -18 34.5 -18s24.167 6.33301 34.5 19s15.5 33 15.5 61zM450 334.998c-1.33301 0.666992 -3.33301 1.33203 -6 1.99902
c-2 0.666992 -4.16699 1.33398 -6.5 2.00098s-4.83301 1 -7.5 1c-12.667 0 -23.334 -5.33301 -32.001 -16s-13 -28.667 -13 -54s4.33301 -43.333 13 -54s19.334 -16 32.001 -16c4 0 8.66699 0.666992 14 2c2.66699 0.666992 4.66699 1.66699 6 3v130z" />
    <glyph glyph-name="A" unicode="A" horiz-adv-x="770" 
d="M555 700c0 -0.666992 3 -11.167 9 -31.5l23.5 -80l33 -112.5l37.5 -128l102 -348h-290l-20 100h-130l-20 -100h-290l205 700h340zM420 260l-35 180l-35 -180h70z" />
    <glyph glyph-name="B" unicode="B" horiz-adv-x="730" 
d="M540 365c30 -6 56.6689 -16.334 80.002 -31.001c20 -12.667 38.333 -30.5 55 -53.5s25 -53.167 25 -90.5c0 -27.333 -6 -53.166 -18 -77.499s-31.5 -45.5 -58.5 -63.5s-62 -32.333 -105 -43s-95.833 -16 -158.5 -16c-40 0 -78 0.5 -114 1.5s-68 2.16699 -96 3.5
c-32 1.33301 -62 3 -90 5v700c27.333 1.33301 57 3 89 5c27.333 1.33301 58.666 2.5 93.999 3.5s72.666 1.5 111.999 1.5c56 0 104 -5.16699 144 -15.5s72.667 -24.5 98 -42.5s43.833 -38.833 55.5 -62.5s17.5 -48.5 17.5 -74.5c0 -30 -6.83301 -54.5 -20.5 -73.5
s-28.5 -33.833 -44.5 -44.5c-19.333 -12 -41 -21 -65 -27v-5zM320.002 439.999l35 -0.00195312c17.333 0 30.833 4.33301 40.5 13s14.5 19.334 14.5 32.001s-4.83301 23.334 -14.5 32.001s-23.167 13 -40.5 13h-35v-90zM360.002 169.997c20 0 35 4.5 45 13.5
s15 21.167 15 36.5s-5 27.5 -15 36.5s-25 13.5 -45 13.5h-40v-100h40z" />
    <glyph glyph-name="C" unicode="C" horiz-adv-x="710" 
d="M40 350c0 51.333 9.5 99.167 28.5 143.5s45 83 78 116s72 58.833 117 77.5s93.833 28 146.5 28c48 0 89.333 -5.83301 124 -17.5s63.667 -24.167 87 -37.5c26.667 -16.667 49.667 -35 69 -55l-120 -190c-12 10 -25 19 -39 27c-12 7.33301 -25.833 13.833 -41.5 19.5
s-32.167 8.5 -49.5 8.5c-35.333 0 -64.166 -11.167 -86.499 -33.5s-33.5 -51.166 -33.5 -86.499s11.167 -64.166 33.5 -86.499s51.166 -33.5 86.499 -33.5c17.333 0 33.833 2.66699 49.5 8s29.5 11.666 41.5 18.999c14 8 27 17.333 39 28l120 -190
c-19.333 -20.667 -42.333 -39 -69 -55c-23.333 -14 -52.333 -26.667 -87 -38s-76 -17 -124 -17c-52.667 0 -101.5 9.33301 -146.5 28s-84 44.5 -117 77.5s-59 71.667 -78 116s-28.5 92.166 -28.5 143.499z" />
    <glyph glyph-name="D" unicode="D" horiz-adv-x="800" 
d="M360 210c38 0 67.5 11.333 88.5 34s31.5 58 31.5 106s-10.5 83.333 -31.5 106s-50.5 34 -88.5 34h-40v-280h40zM760 350c0 -54 -8.33301 -103 -25 -147s-41.667 -81.833 -75 -113.5s-75 -56.167 -125 -73.5s-108.333 -26 -175 -26c-40 0 -78 0.5 -114 1.5
s-68 2.16699 -96 3.5c-32 1.33301 -62 3 -90 5v700c28 1.33301 58 3 90 5c28 1.33301 60 2.5 96 3.5s74 1.5 114 1.5c66.667 0 125 -8.66699 175 -26s91.667 -41.833 125 -73.5s58.333 -69.5 75 -113.5s25 -93 25 -147z" />
    <glyph glyph-name="E" unicode="E" horiz-adv-x="650" 
d="M320 200h300v-200h-560v700h540v-200h-280v-50h260v-200h-260v-50z" />
    <glyph glyph-name="F" unicode="F" horiz-adv-x="600" 
d="M580 700v-220h-260v-80h210v-200h-210v-200h-260v700h520z" />
    <glyph glyph-name="G" unicode="G" horiz-adv-x="740" 
d="M460 230l-0.000976562 119.999h240v-245c-19.333 -22.667 -42.666 -42.667 -69.999 -60c-24 -15.333 -54.167 -29.166 -90.5 -41.499s-79.5 -18.5 -129.5 -18.5c-52.667 0 -101.5 9.33301 -146.5 28s-84 44.5 -117 77.5s-59 71.667 -78 116s-28.5 92.166 -28.5 143.499
s9.5 99.166 28.5 143.499s45 83 78 116s72 58.833 117 77.5s93.833 28 146.5 28c48 0 89.333 -5.83301 124 -17.5s63.667 -24.167 87 -37.5c26.667 -16.667 49.667 -35 69 -55l-120 -190c-12 10 -25 19 -39 27c-12 7.33301 -25.833 13.833 -41.5 19.5s-32.167 8.5 -49.5 8.5
c-35.333 0 -64.166 -11.167 -86.499 -33.5s-33.5 -51.166 -33.5 -86.499s11.167 -64.166 33.5 -86.499s51.166 -33.5 86.499 -33.5h20z" />
    <glyph glyph-name="H" unicode="H" horiz-adv-x="800" 
d="M320 460h160v240h260v-700h-260v240h-160v-240h-260v700h260v-240z" />
    <glyph glyph-name="I" unicode="I" horiz-adv-x="380" 
d="M320 0h-260v700h260v-700z" />
    <glyph glyph-name="J" unicode="J" horiz-adv-x="540" 
d="M220 700l260.001 0.000976562v-390c0 -52.667 -7.5 -100 -22.5 -142s-35.333 -77.667 -61 -107s-55.5 -51.833 -89.5 -67.5s-69.667 -23.5 -107 -23.5c-32.667 0 -61.334 3.16699 -86.001 9.5s-45.667 13.166 -63 20.499c-20 8.66699 -37 18.667 -51 30l70 210
c6 -4 12.667 -7.33301 20 -10c6 -2.66699 13.333 -5 22 -7s18 -3 28 -3c22.667 0 41.667 8 57 24s23 38 23 66v390z" />
    <glyph glyph-name="K" unicode="K" horiz-adv-x="750" 
d="M550 350l210 -350h-300l-140 280v-280h-260v700h260v-280l120 280h300z" />
    <glyph glyph-name="L" unicode="L" horiz-adv-x="610" 
d="M320 230h270v-230h-530v700h260v-470z" />
    <glyph glyph-name="M" unicode="M" horiz-adv-x="1090" 
d="M440 0l-120 390v-390h-260v700h370l115 -380l115 380h370v-700h-260v390l-120 -390h-210z" />
    <glyph glyph-name="N" unicode="N" horiz-adv-x="840" 
d="M320 310v-310h-260v700h290l170 -310v310h260v-700h-290z" />
    <glyph glyph-name="O" unicode="O" horiz-adv-x="860" 
d="M540 350c0 17.333 -3 33.333 -9 48s-14 27.334 -24 38.001s-21.667 19 -35 25s-27.333 9 -42 9c-15.333 0 -29.666 -3 -42.999 -9s-25 -14.333 -35 -25s-17.833 -23.334 -23.5 -38.001s-8.5 -30.667 -8.5 -48s2.83301 -33.333 8.5 -48s13.5 -27.334 23.5 -38.001
s21.667 -19 35 -25s27.666 -9 42.999 -9c14.667 0 28.667 3 42 9s25 14.333 35 25s18 23.334 24 38.001s9 30.667 9 48zM820 350c0 -51.333 -9.5 -99.166 -28.5 -143.499s-45.667 -83 -80 -116s-75.5 -58.833 -123.5 -77.5s-100.667 -28 -158 -28s-110 9.33301 -158 28
s-89.167 44.5 -123.5 77.5s-61 71.667 -80 116s-28.5 92.166 -28.5 143.499s9.5 99.166 28.5 143.499s45.667 83 80 116s75.5 58.833 123.5 77.5s100.667 28 158 28s110 -9.33301 158 -28s89.167 -44.5 123.5 -77.5s61 -71.667 80 -116s28.5 -92.166 28.5 -143.499z" />
    <glyph glyph-name="P" unicode="P" horiz-adv-x="710" 
d="M360 710c54.667 0 102.169 -6.00195 142.502 -18.002s73.666 -28.667 99.999 -50s45.833 -47.166 58.5 -77.499s19 -63.5 19 -99.5s-6.16699 -69.167 -18.5 -99.5s-30 -56.166 -53 -77.499s-51.167 -38 -84.5 -50s-71.333 -18 -114 -18c-10 0 -20.333 0.166992 -31 0.5
s-20.334 0.833008 -29.001 1.5c-10.667 0.666992 -20.667 1.66699 -30 3v-225h-260v700c28 1.33301 58 3 90 5c28 1.33301 60 2.5 96 3.5s74 1.5 114 1.5zM360.002 409.998c17.333 0 31.666 5.33301 42.999 16s17 23.667 17 39s-5.66699 28.333 -17 39
s-25.666 16 -42.999 16h-40v-110h40z" />
    <glyph glyph-name="Q" unicode="Q" horiz-adv-x="860" 
d="M820 350c0 -29.333 -2.83008 -56.332 -8.49707 -80.999s-13 -47.334 -22 -68.001s-19.5 -39.167 -31.5 -55.5s-24 -30.833 -36 -43.5c-28.667 -30 -61 -54 -97 -72c5.33301 -11.333 12.333 -21.333 21 -30c7.33301 -7.33301 17.166 -14.166 29.499 -20.499
s27.166 -9.5 44.499 -9.5c15.333 0 29 1.66699 41 5c6.66699 1.33301 13 3 19 5v-180c-8 -2 -16.667 -3.66699 -26 -5c-8 -1.33301 -17.5 -2.5 -28.5 -3.5s-22.833 -1.5 -35.5 -1.5c-26 0 -50.333 2.83301 -73 8.5s-43.667 13.167 -63 22.5s-36.833 20 -52.5 32
s-29.834 24.333 -42.501 37c-29.333 29.333 -54 62.666 -74 99.999c-48.667 2.66699 -94 13.5 -136 32.5s-78.5 44.5 -109.5 76.5s-55.333 69.333 -73 112s-26.5 89 -26.5 139c0 51.333 9.5 99.166 28.5 143.499s45.667 83 80 116s75.5 58.833 123.5 77.5s100.667 28 158 28
s110 -9.33301 158 -28s89.167 -44.5 123.5 -77.5s61 -71.667 80 -116s28.5 -92.166 28.5 -143.499zM540.003 350.001c0 17.333 -3 33.333 -9 48s-14 27.334 -24 38.001s-21.667 19 -35 25s-27.333 9 -42 9c-15.333 0 -29.666 -3 -42.999 -9s-25 -14.333 -35 -25
s-17.833 -23.334 -23.5 -38.001s-8.5 -30.667 -8.5 -48s2.83301 -33.333 8.5 -48s13.5 -27.334 23.5 -38.001s21.667 -19 35 -25s27.666 -9 42.999 -9c14.667 0 28.667 3 42 9s25 14.333 35 25s18 23.334 24 38.001s9 30.667 9 48z" />
    <glyph glyph-name="R" unicode="R" horiz-adv-x="730" 
d="M450 0l-119.999 230h-10v-230h-260v700c27.333 1.33301 57 3 89 5c27.333 1.33301 58.166 2.5 92.499 3.5s70.5 1.5 108.5 1.5c54.667 0 102.167 -6 142.5 -18s73.666 -28.667 99.999 -50s45.833 -47.166 58.5 -77.499s19 -63.5 19 -99.5
c0 -36.667 -4.66699 -67.334 -14 -92.001s-19.666 -44.667 -30.999 -60c-13.333 -18 -28.333 -32.333 -45 -43l170 -270h-300zM350.001 410c17.333 0 31.666 5.33301 42.999 16s17 23.667 17 39s-5.66699 28.333 -17 39s-25.666 16 -42.999 16h-30v-110h30z" />
    <glyph glyph-name="S" unicode="S" horiz-adv-x="625" 
d="M275 190c12.667 0 22.5 3.16797 29.5 9.50098s10.5 13.166 10.5 20.499c0 8.66699 -6.66699 16.167 -20 22.5s-30 13.333 -50 21s-41.667 16.834 -65 27.501s-45 24.667 -65 42s-36.667 38.666 -50 63.999s-20 56.333 -20 93c0 28.667 6.66699 56.5 20 83.5
s32.333 51 57 72s54.5 37.833 89.5 50.5s74.5 19 118.5 19c45.333 0 84.666 -5.83301 117.999 -17.5s61.333 -24.167 84 -37.5c26.667 -16.667 49.334 -35 68.001 -55l-95 -150c-12 10 -25 19 -39 27c-12 7.33301 -25.833 13.833 -41.5 19.5s-32.167 8.5 -49.5 8.5
c-12.667 0 -22.5 -3.16699 -29.5 -9.5s-10.5 -13.166 -10.5 -20.499c0 -8.66699 6.66699 -16.167 20 -22.5s30 -13.333 50 -21s41.667 -17 65 -28s45 -25 65 -42s36.667 -38.167 50 -63.5s20 -56.333 20 -93c0 -28.667 -6.66699 -56.5 -20 -83.5s-32.333 -51 -57 -72
s-54.5 -37.833 -89.5 -50.5s-74.5 -19 -118.5 -19c-55.333 0 -102.5 6.16699 -141.5 18.5s-71.167 26.166 -96.5 41.499c-29.333 17.333 -53.333 37.333 -72 60l95 150c14 -12.667 29.667 -23.667 47 -33c15.333 -8 33.333 -15.333 54 -22s43.667 -10 69 -10z" />
    <glyph glyph-name="T" unicode="T" horiz-adv-x="680" 
d="M660 700v-230h-190v-470h-260v470h-190v230h640z" />
    <glyph glyph-name="U" unicode="U" horiz-adv-x="800" 
d="M400 235c22.667 0 41.667 8 57 24s23 38 23 66v375h260v-375c0 -50 -8.33301 -95.833 -25 -137.5s-40 -77.5 -70 -107.5s-65.833 -53.333 -107.5 -70s-87.5 -25 -137.5 -25s-95.833 8.33301 -137.5 25s-77.5 40 -107.5 70s-53.333 65.833 -70 107.5s-25 87.5 -25 137.5
v375h260v-375c0 -28 7.66699 -50 23 -66s34.333 -24 57 -24z" />
    <glyph glyph-name="V" unicode="V" horiz-adv-x="750" 
d="M300 700l75 -410l75 410h290l-195 -700h-340l-195 700h290z" />
    <glyph glyph-name="W" unicode="W" horiz-adv-x="1050" 
d="M715 315l55 385h270l-150 -700h-290l-75 355l-75 -355h-290l-150 700h270l55 -385l75 385h230z" />
    <glyph glyph-name="X" unicode="X" horiz-adv-x="740" 
d="M0 700h300l70 -190l70 190h300l-190 -350l200 -350h-300l-80 210l-80 -210h-300l200 350z" />
    <glyph glyph-name="Y" unicode="Y" horiz-adv-x="700" 
d="M350 500l70 200h300l-240 -430v-270h-260v270l-240 430h300z" />
    <glyph glyph-name="Z" unicode="Z" horiz-adv-x="690" 
d="M380 220h260v-220h-590v4v216l250 260h-230v220h560v-220z" />
    <glyph glyph-name="bracketleft" unicode="[" horiz-adv-x="410" 
d="M380 20v-160h-300v840h300v-160h-110v-520h110z" />
    <glyph glyph-name="backslash" unicode="\" horiz-adv-x="550" 
d="M340 -80l-320 860h190l320 -860h-190z" />
    <glyph glyph-name="bracketright" unicode="]" horiz-adv-x="410" 
d="M140 20v520h-110v160h300v-840h-300v160h110z" />
    <glyph glyph-name="asciicircum" unicode="^" horiz-adv-x="540" 
d="M190 700h160l190 -350h-190l-80 150l-80 -150h-190z" />
    <glyph glyph-name="underscore" unicode="_" horiz-adv-x="430" 
d="M-20 -120h470v-150h-470v150z" />
    <glyph glyph-name="grave" unicode="`" horiz-adv-x="360" 
d="M330 490h-160l-140 210h210z" />
    <glyph glyph-name="a" unicode="a" horiz-adv-x="620" 
d="M285 545c42.667 0 82.001 -7.33301 118.001 -22s67.167 -34.667 93.5 -60s46.833 -55 61.5 -89s22 -70.333 22 -109v-265h-230l-20 60c-8.66699 -14 -19 -26.667 -31 -38c-10.667 -9.33301 -24.167 -17.833 -40.5 -25.5s-35.833 -11.5 -58.5 -11.5
c-27.333 0 -52.166 4.16699 -74.499 12.5s-41.333 19.833 -57 34.5s-27.667 32 -36 52s-12.5 42 -12.5 66s4.5 46 13.5 66s23.167 37.333 42.5 52s44.166 26.167 74.499 34.5s66.833 12.5 109.5 12.5h80c-2.66699 10 -7.66699 19 -15 27
c-6.66699 7.33301 -15.834 13.833 -27.501 19.5s-27.5 8.5 -47.5 8.5c-12.667 0 -24.5 -2 -35.5 -6s-20.5 -8.66699 -28.5 -14c-9.33301 -6 -18 -12.667 -26 -20l-85 135c14.667 14.667 32.667 28 54 40c18 10 40 19.167 66 27.5s56 12.5 90 12.5zM290.001 145
c12.667 0 24.168 6.66602 34.501 19.999s15.5 35 15.5 65c-28 0 -48.333 -5.33301 -61 -16s-19 -23.667 -19 -39c0 -7.33301 3.16699 -14.166 9.5 -20.499s13.166 -9.5 20.499 -9.5z" />
    <glyph glyph-name="b" unicode="b" 
d="M640 265c0 -45.333 -5.83301 -85.3311 -17.5 -119.998s-27.167 -63.834 -46.5 -87.501s-41.666 -41.667 -66.999 -54s-51.666 -18.5 -78.999 -18.5c-25.333 0 -46.833 3.83301 -64.5 11.5s-32.167 16.167 -43.5 25.5c-13.333 11.333 -24 24 -32 38l-20 -60h-220v740h240
v-270c8 13.333 18.667 25.666 32 36.999c11.333 9.33301 25.833 18 43.5 26s39.167 12 64.5 12c27.333 0 53.666 -6.16699 78.999 -18.5s47.666 -30.333 66.999 -54s34.833 -53 46.5 -88s17.5 -74.833 17.5 -119.5zM390 265.002c0 25.333 -5.33301 44.166 -16 56.499
s-23.667 18.5 -39 18.5s-28.333 -6.16699 -39 -18.5s-16 -31.166 -16 -56.499s5.33301 -44.166 16 -56.499s23.667 -18.5 39 -18.5s28.333 6.16699 39 18.5s16 31.166 16 56.499z" />
    <glyph glyph-name="c" unicode="c" horiz-adv-x="560" 
d="M280 265c0 -22.667 7 -40.8311 21 -54.498s33.667 -20.5 59 -20.5c12.667 0 24.5 2 35.5 6s20.5 8.66699 28.5 14c9.33301 6 18 12.667 26 20l100 -160c-16.667 -16.667 -36 -31 -58 -43c-19.333 -10.667 -43 -20.334 -71 -29.001s-60 -13 -96 -13
c-42.667 0 -82 7.33301 -118 22s-67.167 34.667 -93.5 60s-46.833 55 -61.5 89s-22 70.333 -22 109s7.33301 75 22 109s35.167 63.667 61.5 89s57.5 45.333 93.5 60s75.333 22 118 22c36 0 68 -4.5 96 -13.5s51.667 -18.833 71 -29.5c22 -12 41.333 -26 58 -42l-100 -160
c-8 7.33301 -16.667 14 -26 20c-8 5.33301 -17.5 10 -28.5 14s-22.833 6 -35.5 6c-25.333 0 -45 -6.83301 -59 -20.5s-21 -31.834 -21 -54.501z" />
    <glyph glyph-name="d" unicode="d" 
d="M30 265c0 44.667 5.83301 84.498 17.5 119.498s27.167 64.333 46.5 88s41.666 41.667 66.999 54s51.666 18.5 78.999 18.5c25.333 0 46.666 -4 63.999 -12s31.666 -16.667 42.999 -26c12.667 -11.333 23.667 -23.666 33 -36.999v270h240v-740h-220l-20 60
c-9.33301 -14 -20.333 -26.667 -33 -38c-11.333 -9.33301 -25.666 -17.833 -42.999 -25.5s-38.666 -11.5 -63.999 -11.5c-27.333 0 -53.666 6.16699 -78.999 18.5s-47.666 30.333 -66.999 54s-34.833 52.834 -46.5 87.501s-17.5 74.667 -17.5 120zM280 264.998
c0 -25.333 5.33301 -44.166 16 -56.499s23.667 -18.5 39 -18.5s28.333 6.16699 39 18.5s16 31.166 16 56.499s-5.33301 44.166 -16 56.499s-23.667 18.5 -39 18.5s-28.333 -6.16699 -39 -18.5s-16 -31.166 -16 -56.499z" />
    <glyph glyph-name="e" unicode="e" horiz-adv-x="610" 
d="M310 545c38.667 0 75 -7.33398 109 -22.001s63.667 -34.667 89 -60s45.333 -55 60 -89s22 -70.333 22 -109v-50h-320c2.66699 -10.667 7.66699 -20 15 -28c6 -7.33301 15 -13.666 27 -18.999s28 -8 48 -8c12.667 0 24.5 2 35.5 6s20.5 8.66699 28.5 14
c9.33301 6 18 12.667 26 20l85 -135c-14.667 -14.667 -32.667 -28 -54 -40c-18 -10 -40 -19.167 -66 -27.5s-56 -12.5 -90 -12.5c-42.667 0 -82 7.33301 -118 22s-67.167 34.667 -93.5 60s-46.833 55 -61.5 89s-22 70.333 -22 109s7.33301 75 22 109s34.667 63.667 60 89
s55 45.333 89 60s70.333 22 109 22zM355 309.999c0 20 -4.33105 35 -12.998 45s-19.334 15 -32.001 15s-23.334 -5 -32.001 -15s-13 -25 -13 -45h90z" />
    <glyph glyph-name="f" unicode="f" horiz-adv-x="450" 
d="M90 500v14.999c0 88 21.167 154.167 63.5 198.5s101.166 66.5 176.499 66.5c12.667 0 24.5 -0.5 35.5 -1.5s20.5 -2.16699 28.5 -3.5c9.33301 -2 18 -3.66699 26 -5v-200c-4.66699 0.666992 -9 1.33398 -13 2.00098l-12.5 2c-4.33301 0.666992 -9.16602 1 -14.499 1
c-15.333 0 -27.5 -5 -36.5 -15s-13.5 -25 -13.5 -45v-15h90v-200h-90v-300h-240v300h-70v200h70z" />
    <glyph glyph-name="g" unicode="g" 
d="M380 80c-9.33301 -14 -20.332 -26.6709 -32.999 -38.0039c-11.333 -9.33301 -25.666 -17.833 -42.999 -25.5s-38.666 -11.5 -63.999 -11.5c-27.333 0 -53.666 6.16699 -78.999 18.5s-47.666 30 -66.999 53s-34.833 51.167 -46.5 84.5s-17.5 71.333 -17.5 114
s5.83301 80.667 17.5 114s27.167 61.5 46.5 84.5s41.666 40.667 66.999 53s51.666 18.5 78.999 18.5c25.333 0 46.666 -4 63.999 -12s31.666 -16.667 42.999 -26c12.667 -11.333 23.667 -23.666 33 -36.999l20 60h220v-510c0 -41.333 -8 -80.166 -24 -116.499
s-37.667 -68.166 -65 -95.499s-59.5 -48.833 -96.5 -64.5s-76.833 -23.5 -119.5 -23.5c-36.667 0 -68.834 4.33301 -96.501 13s-51.167 18.334 -70.5 29.001c-22 12 -41.333 26.333 -58 43l100 160c8 -7.33301 16.667 -14 26 -20c8 -5.33301 17.5 -10 28.5 -14
s22.833 -6 35.5 -6c30 0 54.167 8.83301 72.5 26.5s27.5 40.5 27.5 68.5v60zM280.001 274.996c0 -20 5.33301 -35.833 16 -47.5s23.667 -17.5 39 -17.5s28.333 5.83301 39 17.5s16 27.5 16 47.5s-5.33301 35.833 -16 47.5s-23.667 17.5 -39 17.5s-28.333 -5.83301 -39 -17.5
s-16 -27.5 -16 -47.5z" />
    <glyph glyph-name="h" unicode="h" horiz-adv-x="650" 
d="M430 545c24.667 0 48.001 -5.16797 70.001 -15.501s41.167 -26.166 57.5 -47.499s29.166 -48.833 38.499 -82.5s14 -73.5 14 -119.5v-280h-240v280c0 20 -4.16699 35 -12.5 45s-17.5 15 -27.5 15s-19.167 -5 -27.5 -15s-12.5 -25 -12.5 -45v-280h-240v740h240v-280
c10 16 22 30 36 42c12 10.667 26.667 20.5 44 29.5s37.333 13.5 60 13.5z" />
    <glyph glyph-name="i" unicode="i" horiz-adv-x="340" 
d="M290 530v-530h-240v530h240zM50 780h240v-190h-240v190z" />
    <glyph glyph-name="j" unicode="j" horiz-adv-x="340" 
d="M50 780h240v-190h-240v190zM50 530h239.999v-555c0 -88 -21.167 -154.167 -63.5 -198.5s-101.166 -66.5 -176.499 -66.5c-12.667 0 -24.5 0.5 -35.5 1.5s-20.5 2.16699 -28.5 3.5c-9.33301 1.33301 -18 3 -26 5v200c3.33301 -1.33301 7.33301 -2.33301 12 -3
c3.33301 -0.666992 7.5 -1.16699 12.5 -1.5s10.167 -0.5 15.5 -0.5c15.333 0 27.5 5 36.5 15s13.5 25 13.5 45v555z" />
    <glyph glyph-name="k" unicode="k" horiz-adv-x="645" 
d="M495 270l160 -270h-265l-100 210v-210h-240v740h240v-410l85 200h260z" />
    <glyph glyph-name="l" unicode="l" horiz-adv-x="340" 
d="M50 740h240v-740h-240v740z" />
    <glyph glyph-name="m" unicode="m" horiz-adv-x="970" 
d="M750 545c24.667 0 48.001 -5.16699 70.001 -15.5s41.167 -26.166 57.5 -47.499s29.166 -48.833 38.499 -82.5s14 -73.5 14 -119.5v-280h-240v280c0 20 -4.16699 35 -12.5 45s-17.5 15 -27.5 15s-19.167 -5 -27.5 -15s-12.5 -25 -12.5 -45v-280h-240v280
c0 20 -4.16699 35 -12.5 45s-17.5 15 -27.5 15s-19.167 -5 -27.5 -15s-12.5 -25 -12.5 -45v-280h-240v530h230l20 -60c8 13.333 18.667 25.666 32 36.999c11.333 9.33301 25.833 18 43.5 26s39.167 12 64.5 12s47.166 -5 65.499 -15s33.833 -21 46.5 -33
c14.667 -14 27.334 -29.667 38.001 -47c11.333 17.333 25.333 33 42 47c13.333 12 30 23 50 33s42.667 15 68 15z" />
    <glyph glyph-name="n" unicode="n" horiz-adv-x="650" 
d="M430 545c24.667 0 48.001 -5.16699 70.001 -15.5s41.167 -26.166 57.5 -47.499s29.166 -48.833 38.499 -82.5s14 -73.5 14 -119.5v-280h-240v280c0 20 -4.16699 35 -12.5 45s-17.5 15 -27.5 15s-19.167 -5 -27.5 -15s-12.5 -25 -12.5 -45v-280h-240v530h230l20 -60
c8.66699 13.333 19 25.666 31 36.999c10.667 9.33301 24.167 18 40.5 26s35.833 12 58.5 12z" />
    <glyph glyph-name="o" unicode="o" 
d="M30 265c0 38.667 7.5 75 22.5 109s35.833 63.667 62.5 89s58.667 45.333 96 60s78.666 22 123.999 22c44.667 0 85.834 -7.33301 123.501 -22s69.834 -34.667 96.501 -60s47.5 -55 62.5 -89s22.5 -70.333 22.5 -109s-7.5 -75 -22.5 -109s-35.833 -63.667 -62.5 -89
s-58.834 -45.333 -96.501 -60s-78.834 -22 -123.501 -22c-45.333 0 -86.666 7.33301 -123.999 22s-69.333 34.667 -96 60s-47.5 55 -62.5 89s-22.5 70.333 -22.5 109zM400 265c0 22.667 -6.5 40.834 -19.5 54.501s-28.167 20.5 -45.5 20.5s-32.5 -6.83301 -45.5 -20.5
s-19.5 -31.834 -19.5 -54.501s6.5 -40.834 19.5 -54.501s28.167 -20.5 45.5 -20.5s32.5 6.83301 45.5 20.5s19.5 31.834 19.5 54.501z" />
    <glyph glyph-name="p" unicode="p" 
d="M640 265c0 -45.333 -5.83301 -85.3311 -17.5 -119.998s-27.167 -63.834 -46.5 -87.501s-41.666 -41.667 -66.999 -54s-51.666 -18.5 -78.999 -18.5c-25.333 0 -46.833 3.83301 -64.5 11.5s-32.167 16.167 -43.5 25.5c-13.333 11.333 -24 24 -32 38v-310h-240v780h220
l20 -60c8 13.333 18.667 25.666 32 36.999c11.333 9.33301 25.833 18 43.5 26s39.167 12 64.5 12c27.333 0 53.666 -6.16699 78.999 -18.5s47.666 -30.333 66.999 -54s34.833 -53 46.5 -88s17.5 -74.833 17.5 -119.5zM390 265.002c0 25.333 -5.33301 44.166 -16 56.499
s-23.667 18.5 -39 18.5s-28.333 -6.16699 -39 -18.5s-16 -31.166 -16 -56.499s5.33301 -44.166 16 -56.499s23.667 -18.5 39 -18.5s28.333 6.16699 39 18.5s16 31.166 16 56.499z" />
    <glyph glyph-name="q" unicode="q" 
d="M30 265c0 44.667 5.83301 84.498 17.5 119.498s27.167 64.333 46.5 88s41.666 41.667 66.999 54s51.666 18.5 78.999 18.5c25.333 0 46.666 -4 63.999 -12s31.666 -16.667 42.999 -26c12.667 -11.333 23.667 -23.666 33 -36.999l20 60h220v-780h-240v310
c-9.33301 -14 -20.333 -26.667 -33 -38c-11.333 -9.33301 -25.666 -17.833 -42.999 -25.5s-38.666 -11.5 -63.999 -11.5c-27.333 0 -53.666 6.16699 -78.999 18.5s-47.666 30.333 -66.999 54s-34.833 52.834 -46.5 87.501s-17.5 74.667 -17.5 120zM280 264.998
c0 -25.333 5.33301 -44.166 16 -56.499s23.667 -18.5 39 -18.5s28.333 6.16699 39 18.5s16 31.166 16 56.499s-5.33301 44.166 -16 56.499s-23.667 18.5 -39 18.5s-28.333 -6.16699 -39 -18.5s-16 -31.166 -16 -56.499z" />
    <glyph glyph-name="r" unicode="r" horiz-adv-x="480" 
d="M300 470c8 13.333 17.999 25.667 29.999 37c10 9.33301 22.5 18 37.5 26s32.5 12 52.5 12c10 0 19.167 -0.833008 27.5 -2.5s15.833 -3.5 22.5 -5.5l20 -7l-40 -220c-8 4 -16 7.33301 -24 10c-7.33301 2.66699 -15 5 -23 7s-15.667 3 -23 3
c-25.333 0 -46.666 -9.5 -63.999 -28.5s-26 -46.167 -26 -81.5v-220h-240v530h230l20 -60v0z" />
    <glyph glyph-name="s" unicode="s" horiz-adv-x="515" 
d="M495 160c0 -24 -4.99902 -46.5029 -14.999 -67.5029s-24.833 -39.5 -44.5 -55.5s-44.167 -28.667 -73.5 -38s-63.333 -14 -102 -14c-42 0 -78.333 4.83301 -109 14.5s-56.667 20.5 -78 32.5c-24.667 14 -45.667 30 -63 48l75 120c10 -9.33301 21.333 -17.666 34 -24.999
c11.333 -6.66699 24.5 -12.5 39.5 -17.5s32.167 -7.5 51.5 -7.5c7.33301 0 13.333 2 18 6s7 8.66699 7 14c0 4.66699 -4.83301 9.33398 -14.5 14.001s-21.667 10 -36 16s-30 13.167 -47 21.5s-32.667 19 -47 32s-26.333 29 -36 48s-14.5 41.833 -14.5 68.5
c0 24 5 46.5 15 67.5s24.833 39.5 44.5 55.5s44.167 28.667 73.5 38s63.333 14 102 14c34 0 64.5 -4.5 91.5 -13.5s50.167 -18.833 69.5 -29.5c22 -12 41.667 -26 59 -42l-75 -120c-8 7.33301 -17 14 -27 20c-8.66699 5.33301 -18.834 10 -30.501 14s-24.167 6 -37.5 6
c-7.33301 0 -13.333 -2 -18 -6s-7 -8.66699 -7 -14s4.83301 -10.166 14.5 -14.499l36 -15.5c14.333 -6 30 -13.167 47 -21.5s32.667 -19 47 -32s26.333 -29 36 -48s14.5 -41.833 14.5 -68.5z" />
    <glyph glyph-name="t" unicode="t" horiz-adv-x="470" 
d="M20 330v200h70v170h240v-170h90v-200h-90v-85c0 -20 4.5 -35 13.5 -45s21.167 -15 36.5 -15c5.33301 0 10.166 0.166992 14.499 0.5s8.5 0.833008 12.5 1.5s8.33301 1.66699 13 3v-200c-8 -2 -16.667 -3.66699 -26 -5c-8 -1.33301 -17.5 -2.5 -28.5 -3.5
s-22.833 -1.5 -35.5 -1.5c-75.333 0 -134.166 22.167 -176.499 66.5s-63.5 110.5 -63.5 198.5v85h-70z" />
    <glyph glyph-name="u" unicode="u" horiz-adv-x="660" 
d="M230 -15c-25.333 0 -48.834 5.16797 -70.501 15.501s-40.667 26.166 -57 47.499s-29.166 48.833 -38.499 82.5s-14 73.5 -14 119.5v280h240v-280c0 -20 4.16699 -35 12.5 -45s17.5 -15 27.5 -15s19.167 5 27.5 15s12.5 25 12.5 45v280h240v-530h-230l-20 60
c-8.66699 -14 -19 -26.667 -31 -38c-10.667 -9.33301 -24.167 -17.833 -40.5 -25.5s-35.833 -11.5 -58.5 -11.5z" />
    <glyph glyph-name="v" unicode="v" horiz-adv-x="590" 
d="M155 0l-155 530h250l45 -280l45 280h250l-155 -530h-280z" />
    <glyph glyph-name="w" unicode="w" horiz-adv-x="840" 
d="M560 270l30 260h250l-120 -530h-240l-60 270l-60 -270h-240l-120 530h250l30 -260l45 260h190z" />
    <glyph glyph-name="x" unicode="x" horiz-adv-x="600" 
d="M460 265l150 -265h-270l-40 130l-40 -130h-270l150 265l-135 265h255l40 -130l40 130h255z" />
    <glyph glyph-name="y" unicode="y" horiz-adv-x="590" 
d="M175 0l-175.001 529.999h250l45 -280l45 280h250l-190 -570c-15.333 -45.333 -31.333 -83.833 -48 -115.5s-35.167 -57.5 -55.5 -77.5s-42.833 -34.5 -67.5 -43.5s-52.667 -13.5 -84 -13.5c-17.333 0 -33.833 2 -49.5 6s-29.5 8.66699 -41.5 14c-14 6 -27 12.667 -39 20
l55 175c3.33301 -2 6.66602 -3.66699 9.99902 -5c6.66699 -3.33301 15 -5 25 -5c12.667 0 23.834 4.33301 33.501 13s16.834 19.334 21.501 32.001z" />
    <glyph glyph-name="z" unicode="z" horiz-adv-x="560" 
d="M330 190h190v-190h-480v190l180 150h-170v190h460v-190z" />
    <glyph glyph-name="braceleft" unicode="{" horiz-adv-x="410" 
d="M40 339c40 0.666992 60 21.0039 60 61.0039v150c0 45.333 13.667 81.666 41 108.999s63.666 41 108.999 41h120v-160h-50c-20 0 -30 -10 -30 -30v-110c0 -25.333 -4.16699 -45.833 -12.5 -61.5s-17.5 -27.834 -27.5 -36.501c-12 -10.667 -25.333 -18 -40 -22
c14.667 -5.33301 28 -13 40 -23c10 -9.33301 19.167 -21.5 27.5 -36.5s12.5 -35.167 12.5 -60.5v-110c0 -20 10 -30 30 -30h50v-160h-120c-45.333 0 -81.666 13.667 -108.999 41s-41 63.666 -41 108.999v150c0 39.333 -20 59.666 -60 60.999v118z" />
    <glyph glyph-name="bar" unicode="|" horiz-adv-x="330" 
d="M80 750h170v-800h-170v800z" />
    <glyph glyph-name="braceright" unicode="}" horiz-adv-x="410" 
d="M370 221c-40 -1.33301 -60 -21.6699 -60 -61.0029v-150c0 -45.333 -13.667 -81.666 -41 -108.999s-63.666 -41 -108.999 -41h-120v160h50c20 0 30 10 30 30v110c0 25.333 4.16699 45.5 12.5 60.5s17.5 27.167 27.5 36.5c12 10 25.333 17.667 40 23
c-14.667 4 -28 11.333 -40 22c-10 8.66699 -19.167 20.834 -27.5 36.501s-12.5 36.167 -12.5 61.5v110c0 20 -10 30 -30 30h-50v160h120c45.333 0 81.666 -13.667 108.999 -41s41 -63.666 41 -108.999v-150c0 -40 20 -60.333 60 -61v-118z" />
    <glyph glyph-name="asciitilde" unicode="~" horiz-adv-x="500" 
d="M310 390c15.333 0 27.5 4.5 36.5 13.5s13.5 21.167 13.5 36.5h110v-100c0 -45.333 -11.667 -80 -35 -104s-55 -36 -95 -36c-17.333 0 -33 3.16699 -47 9.5s-27 13.166 -39 20.499l-33.5 20.5c-10.333 6.33301 -20.5 9.5 -30.5 9.5c-15.333 0 -27.5 -4.5 -36.5 -13.5
s-13.5 -21.167 -13.5 -36.5h-110v100c0 45.333 11.667 80 35 104s55 36 95 36c17.333 0 33 -3.16699 47 -9.5s27 -13.166 39 -20.499l33.5 -20.5c10.333 -6.33301 20.5 -9.5 30.5 -9.5z" />
    <glyph glyph-name="nonbreakingspace" unicode="&#xa0;" horiz-adv-x="0" 
 />
    <glyph glyph-name="exclamdown" unicode="&#xa1;" horiz-adv-x="380" 
d="M95 270h190l35 -520h-260zM85 330v200h210v-200h-210z" />
    <glyph glyph-name="cent" unicode="&#xa2;" horiz-adv-x="560" 
d="M240 700l140 0.000976562v-75c28 -4 52.333 -10.333 73 -19s38.334 -17.667 53.001 -27c17.333 -10.667 32 -22 44 -34l-100 -160c-8 7.33301 -16.667 14 -26 20c-8 5.33301 -17.5 10 -28.5 14s-22.833 6 -35.5 6c-25.333 0 -45 -6.83301 -59 -20.5
s-21 -31.834 -21 -54.501s7 -40.834 21 -54.501s33.667 -20.5 59 -20.5c12.667 0 24.5 2 35.5 6s20.5 8.66699 28.5 14c9.33301 6 18 12.667 26 20l100 -160c-12 -12 -26.667 -23.333 -44 -34c-14.667 -9.33301 -32.334 -18.5 -53.001 -27.5s-45 -15.167 -73 -18.5v-75h-140
v80c-39.333 12 -74.333 30 -105 54c-13.333 10 -26.333 21.833 -39 35.5s-23.834 29.334 -33.501 47.001s-17.5 37.5 -23.5 59.5s-9 46.667 -9 74c0 26.667 3 51 9 73s13.833 41.833 23.5 59.5s20.834 33.5 33.501 47.5s25.667 26 39 36c30.667 24 65.667 42 105 54v80z" />
    <glyph glyph-name="sterling" unicode="&#xa3;" horiz-adv-x="660" 
d="M350 270c0 -12.667 -2.66797 -23.5 -8.00098 -32.5s-11 -16.167 -17 -21.5c-7.33301 -6.66699 -15.666 -12 -24.999 -16h310v-200h-560v200c12.667 4 24.334 9.33301 35.001 16c8.66699 5.33301 16.667 12.5 24 21.5s11 19.833 11 32.5h-50v140h50v50
c0 38.667 6 73.667 18 105s29.167 58.166 51.5 80.499s49.166 39.5 80.499 51.5s66.333 18 105 18c72.667 0 130 -21.667 172 -65s63 -106.666 63 -189.999h-175c0 15.333 -4.16699 27.5 -12.5 36.5s-17.5 13.5 -27.5 13.5s-19.167 -4.5 -27.5 -13.5
s-12.5 -21.167 -12.5 -36.5v-50h125v-140h-130z" />
    <glyph glyph-name="currency" unicode="&#xa4;" horiz-adv-x="750" 
d="M40 250l70 -0.000976562v40h-70v129h70v281c28 1.33301 58 3 90 5c28 1.33301 60 2.5 96 3.5s74 1.5 114 1.5c54.667 0 101.667 -5.33301 141 -16s71.5 -25.5 96.5 -44.5s43.333 -41.667 55 -68s17.5 -55.166 17.5 -86.499c0 -28.667 -5.5 -55.5 -16.5 -80.5
s-27.5 -46.667 -49.5 -65s-49.167 -32.833 -81.5 -43.5s-69.833 -16 -112.5 -16h-90v-40h210v-130h-210v-120h-260v120h-70v130zM410 429.999c15.333 0 27.5 4.33105 36.5 12.998s13.5 19.334 13.5 32.001s-4.5 23.334 -13.5 32.001s-21.167 13 -36.5 13h-40v-90h40z" />
    <glyph glyph-name="yen" unicode="&#xa5;" horiz-adv-x="720" 
d="M-10 700h300l70 -200l70 200h300l-200 -350h90v-110h-130v-40h130v-110h-130v-90h-260v90h-130v110h130v40h-130v110h90z" />
    <glyph glyph-name="brokenbar" unicode="&#xa6;" horiz-adv-x="330" 
d="M80 270h170v-320h-170v320zM80 750h170v-320h-170v320z" />
    <glyph glyph-name="section" unicode="&#xa7;" horiz-adv-x="545" 
d="M430 240c9.33301 -6 17.666 -14.001 24.999 -24.001c6 -8.66699 11.667 -19.667 17 -33s8 -29.333 8 -48c0 -24 -4.83301 -46.5 -14.5 -67.5s-23.834 -39.5 -42.501 -55.5s-41.167 -28.667 -67.5 -38s-56.5 -14 -90.5 -14s-64.5 4.33301 -91.5 13
s-50.167 18.334 -69.5 29.001c-22 12 -41.667 26.333 -59 43l75 120c8 -7.33301 17 -14 27 -20c8.66699 -5.33301 18.667 -10 30 -14s24 -6 38 -6c7.33301 0 13.333 2 18 6s7 8.66699 7 14c0 9.33301 -5 17 -15 23s-22.333 12.167 -37 18.5l-48 20.5
c-17.333 7.33301 -33.333 16.666 -48 27.999s-27 25.333 -37 42s-15 37.667 -15 63c0 20 3.83301 37.5 11.5 52.5s16.167 27.5 25.5 37.5c11.333 12 24 22 38 30c-9.33301 6 -17.666 14 -24.999 24c-6.66699 8.66699 -12.5 19.5 -17.5 32.5s-7.5 29.167 -7.5 48.5
c0 24 4.83301 46.5 14.5 67.5s23.834 39.5 42.501 55.5s41.167 28.667 67.5 38s56.5 14 90.5 14s64.5 -4.5 91.5 -13.5s50.167 -18.833 69.5 -29.5c22 -12 41.667 -26 59 -42l-75 -120c-8 7.33301 -17 14 -27 20c-8.66699 5.33301 -18.834 10 -30.501 14s-24.167 6 -37.5 6
c-7.33301 0 -13.333 -2 -18 -6s-7 -8.66699 -7 -14c0 -9.33301 5 -17 15 -23s22.333 -12.167 37 -18.5l48 -20.5c17.333 -7.33301 33.333 -16.666 48 -27.999s27 -25.5 37 -42.5s15 -37.833 15 -62.5c0 -20 -4 -37.5 -12 -52.5s-16.667 -27.5 -26 -37.5
c-11.333 -12 -23.666 -22 -36.999 -30zM310 309.999l7 6.99902c2 2.66699 3.83301 5.83398 5.5 9.50098s2.5 8.16699 2.5 13.5c0 7.33301 -4.66699 14 -14 20s-19.666 11.333 -30.999 16c-13.333 5.33301 -28.333 10 -45 14l-8 -8c-4.66699 -6 -7 -13.333 -7 -22
c0 -7.33301 4.66699 -14 14 -20s19.666 -11.333 30.999 -16c12.667 -5.33301 27.667 -10 45 -14z" />
    <glyph glyph-name="dieresis" unicode="&#xa8;" horiz-adv-x="460" 
d="M430 610c0 -25.333 -8.66699 -46.666 -26 -63.999s-38.666 -26 -63.999 -26s-46.666 8.66699 -63.999 26s-26 38.666 -26 63.999s8.66699 46.666 26 63.999s38.666 26 63.999 26s46.666 -8.66699 63.999 -26s26 -38.666 26 -63.999zM210 610
c0 -25.333 -8.66699 -46.666 -26 -63.999s-38.666 -26 -63.999 -26s-46.666 8.66699 -63.999 26s-26 38.666 -26 63.999s8.66699 46.666 26 63.999s38.666 26 63.999 26s46.666 -8.66699 63.999 -26s26 -38.666 26 -63.999z" />
    <glyph glyph-name="copyright" unicode="&#xa9;" horiz-adv-x="840" 
d="M40 350c0 50 10 97.333 30 142s47.167 84 81.5 118s74.5 60.833 120.5 80.5s95.333 29.5 148 29.5s102 -9.83301 148 -29.5s86.167 -46.5 120.5 -80.5s61.5 -73.333 81.5 -118s30 -92 30 -142s-10 -97.333 -30 -142s-47.167 -84 -81.5 -118s-74.5 -60.833 -120.5 -80.5
s-95.333 -29.5 -148 -29.5s-102 9.83301 -148 29.5s-86.167 46.5 -120.5 80.5s-61.5 73.333 -81.5 118s-30 92 -30 142zM700 350c0 37.333 -7.16699 72.5 -21.5 105.5s-34 61.667 -59 86s-54.5 43.5 -88.5 57.5s-71 21 -111 21s-77.167 -7 -111.5 -21s-64 -33.167 -89 -57.5
s-44.5 -53 -58.5 -86s-21 -68.167 -21 -105.5s7 -72.5 21 -105.5s33.5 -61.667 58.5 -86s54.667 -43.5 89 -57.5s71.5 -21 111.5 -21s77 7 111 21s63.5 33.167 88.5 57.5s44.667 53 59 86s21.5 68.167 21.5 105.5zM250 350c0 27.333 4.66699 52.667 14 76
s22.5 43.5 39.5 60.5s37.167 30.167 60.5 39.5s48.666 14 75.999 14c22.667 0 43.167 -2.83301 61.5 -8.5s34.166 -12.167 47.499 -19.5c15.333 -8 29 -17 41 -27l-60 -100c-5.33301 4.66699 -11.666 8.66699 -18.999 12c-6 3.33301 -13 6.33301 -21 9s-16.333 4 -25 4
c-20 0 -35.833 -5.66699 -47.5 -17s-17.5 -25.666 -17.5 -42.999s5.83301 -31.666 17.5 -42.999s27.5 -17 47.5 -17c8.66699 0 17 1.16699 25 3.5s15 5.16602 21 8.49902c7.33301 3.33301 13.666 7.66602 18.999 12.999l60 -100c-12 -10.667 -25.667 -20 -41 -28
c-13.333 -7.33301 -29.166 -13.666 -47.499 -18.999s-38.833 -8 -61.5 -8c-27.333 0 -52.666 4.66699 -75.999 14s-43.5 22.5 -60.5 39.5s-30.167 37.167 -39.5 60.5s-14 48.666 -14 75.999z" />
    <glyph glyph-name="ordfeminine" unicode="&#xaa;" horiz-adv-x="470" 
d="M80 660c10 9.33301 22.335 17.667 37.002 25c12.667 6 28.334 11.667 47.001 17s40.667 8 66 8c27.333 0 52.166 -4.16699 74.499 -12.5s41.333 -20 57 -35s27.667 -33 36 -54s12.5 -43.833 12.5 -68.5v-200h-140l-10 50c-6.66699 -11.333 -15 -21.333 -25 -30
c-9.33301 -7.33301 -20.833 -14.166 -34.5 -20.499s-30.5 -9.5 -50.5 -9.5c-15.333 0 -29.666 2.83301 -42.999 8.5s-25 13.5 -35 23.5s-17.833 21.667 -23.5 35s-8.5 27.666 -8.5 42.999c0 14.667 3.16699 28.667 9.5 42s15.666 25 27.999 35s27.833 17.833 46.5 23.5
s40.667 8.5 66 8.5l60 1c-2 7.33301 -5.66699 14 -11 20c-4.66699 5.33301 -10.834 10 -18.501 14s-17.834 6 -30.501 6c-10 0 -19.333 -1 -28 -3s-16 -4.33301 -22 -7c-7.33301 -2.66699 -14 -6 -20 -10zM220.002 440.001c7.33301 0 14.167 3.99902 20.5 11.999
s9.5 20.667 9.5 38c-17.333 0 -30 -3.16699 -38 -9.5s-12 -13.166 -12 -20.499c0 -5.33301 2 -10 6 -14s8.66699 -6 14 -6zM40.0029 270h370v-130h-370v130z" />
    <glyph glyph-name="guillemotleft" unicode="&#xab;" horiz-adv-x="540" 
d="M30 270l110 230h150l-110 -230l110 -230h-150zM250 270l110 230h150l-110 -230l110 -230h-150z" />
    <glyph glyph-name="logicalnot" unicode="&#xac;" horiz-adv-x="490" 
d="M460 210h-130v110h-300v120h430v-230z" />
    <glyph glyph-name="uni00AD" unicode="&#xad;" horiz-adv-x="490" 
d="M30 420h430v-190h-430v190z" />
    <glyph glyph-name="registered" unicode="&#xae;" horiz-adv-x="840" 
d="M450 170l-35.001 109.998h-5v-110h-150v360l50 5c15.333 1.33301 32.5 2.5 51.5 3.5s38.5 1.5 58.5 1.5c30 0 56.167 -3.5 78.5 -10.5s41 -16.5 56 -28.5s26.333 -25.833 34 -41.5s11.5 -32.167 11.5 -49.5c0 -15.333 -2.66699 -28.666 -8 -39.999
s-11 -20.666 -17 -27.999c-7.33301 -8.66699 -15.666 -16 -24.999 -22l70 -150h-170zM409.999 379.998l10 0.00195312c7.33301 0 14.166 3.16699 20.499 9.5s9.5 13.166 9.5 20.499s-3.16699 14.166 -9.5 20.499s-13.166 9.5 -20.499 9.5h-10v-60zM39.999 350
c0 50 10 97.333 30 142s47.167 84 81.5 118s74.5 60.833 120.5 80.5s95.333 29.5 148 29.5s102 -9.83301 148 -29.5s86.167 -46.5 120.5 -80.5s61.5 -73.333 81.5 -118s30 -92 30 -142s-10 -97.333 -30 -142s-47.167 -84 -81.5 -118s-74.5 -60.833 -120.5 -80.5
s-95.333 -29.5 -148 -29.5s-102 9.83301 -148 29.5s-86.167 46.5 -120.5 80.5s-61.5 73.333 -81.5 118s-30 92 -30 142zM699.999 350c0 37.333 -7.16699 72.5 -21.5 105.5s-34 61.667 -59 86s-54.5 43.5 -88.5 57.5s-71 21 -111 21s-77.167 -7 -111.5 -21
s-64 -33.167 -89 -57.5s-44.5 -53 -58.5 -86s-21 -68.167 -21 -105.5s7 -72.5 21 -105.5s33.5 -61.667 58.5 -86s54.667 -43.5 89 -57.5s71.5 -21 111.5 -21s77 7 111 21s63.5 33.167 88.5 57.5s44.667 53 59 86s21.5 68.167 21.5 105.5z" />
    <glyph glyph-name="macron" unicode="&#xaf;" horiz-adv-x="370" 
d="M30 700h310v-140h-310v140z" />
    <glyph glyph-name="degree" unicode="&#xb0;" horiz-adv-x="520" 
d="M200 500c0 -20 6.16699 -36.667 18.5 -50s26.166 -20 41.499 -20s29.166 6.66699 41.499 20s18.5 30 18.5 50s-6.16699 36.667 -18.5 50s-26.166 20 -41.499 20s-29.166 -6.66699 -41.499 -20s-18.5 -30 -18.5 -50zM40 500c0 30 5.33301 57.833 16 83.5
s25.667 47.834 45 66.501s42.5 33.334 69.5 44.001s56.833 16 89.5 16s62.5 -5.33301 89.5 -16s50.167 -25.334 69.5 -44.001s34.333 -40.834 45 -66.501s16 -53.5 16 -83.5s-5.33301 -57.833 -16 -83.5s-25.667 -47.834 -45 -66.501s-42.5 -33.334 -69.5 -44.001
s-56.833 -16 -89.5 -16s-62.5 5.33301 -89.5 16s-50.167 25.334 -69.5 44.001s-34.333 40.834 -45 66.501s-16 53.5 -16 83.5z" />
    <glyph glyph-name="plusminus" unicode="&#xb1;" horiz-adv-x="510" 
d="M40 220h120v90h-130v190h130v140h190v-140h130v-190h-130v-90h120v-190h-430v190z" />
    <glyph glyph-name="twosuperior" unicode="&#xb2;" horiz-adv-x="470" 
d="M430 340l-0.00195312 -140.002h-390v130c38.667 23.333 73.667 46.333 105 69l38 30.5c12.667 10.333 24 20.833 34 31.5s18 21 24 31s9 19.333 9 28c0 26.667 -13.333 40 -40 40c-15.333 0 -29.666 -2 -42.999 -6s-25 -8.66699 -35 -14c-12 -6 -22.667 -12.667 -32 -20
l-80 120c14 12.667 31 24.334 51 35.001c17.333 8.66699 38.333 16.667 63 24s53.334 11 86.001 11c34.667 0 65.167 -4.16699 91.5 -12.5s48.333 -19.666 66 -33.999s30.834 -31.166 39.501 -50.499s13 -40.333 13 -63c0 -30 -7.83301 -57.833 -23.5 -83.5
s-32.834 -47.834 -51.501 -66.501c-22 -22 -47 -42 -75 -60h150z" />
    <glyph glyph-name="threesuperior" unicode="&#xb3;" horiz-adv-x="470" 
d="M430 350c0 -22.667 -4.33008 -43.666 -12.9971 -62.999s-21.834 -36.166 -39.501 -50.499s-39.667 -25.666 -66 -33.999s-56.833 -12.5 -91.5 -12.5c-32.667 0 -61.334 3.5 -86.001 10.5s-45.667 15.167 -63 24.5c-20 10 -37 21.667 -51 35l80 120
c9.33301 -7.33301 20 -14 32 -20c10 -5.33301 21.667 -10 35 -14s27.666 -6 42.999 -6c12.667 0 22.5 3.16699 29.5 9.5s10.5 13.166 10.5 20.499s-3.5 14.166 -10.5 20.499s-16.833 9.5 -29.5 9.5h-80v90l100 70h-180v140h370v-140l-100 -70c20 -7.33301 38.333 -17 55 -29
c13.333 -10.667 25.833 -24.834 37.5 -42.501s17.5 -40.5 17.5 -68.5z" />
    <glyph glyph-name="acute" unicode="&#xb4;" horiz-adv-x="360" 
d="M120 700h210l-140 -210h-160z" />
    <glyph glyph-name="mu" unicode="&#xb5;" horiz-adv-x="690" 
d="M590 530l0.00292969 -279.999c0 -26.667 13.333 -40 40 -40c4 0 8.66699 0.666992 14 2c2.66699 0.666992 4.66699 1.66699 6 3l40 -195c-10.667 -6 -22.334 -11 -35.001 -15c-11.333 -4 -25 -7.5 -41 -10.5s-34 -4.5 -54 -4.5c-35.333 0 -64 4.66699 -86 14
s-39.333 19.666 -52 30.999c-14.667 12.667 -25.334 27.667 -32.001 45c-4 -7.33301 -9 -14 -15 -20c-5.33301 -5.33301 -11.666 -10 -18.999 -14s-16 -6 -26 -6c-10.667 0 -20 1.66699 -28 5c-4.66699 1.33301 -8.66699 3 -12 5v-300h-240v780h240v-260
c0 -12.667 3.16699 -22.5 9.5 -29.5s13.166 -10.5 20.499 -10.5s14.166 3.5 20.499 10.5s9.5 16.833 9.5 29.5v260h240z" />
    <glyph glyph-name="paragraph" unicode="&#xb6;" horiz-adv-x="770" 
d="M30 510c0 24.667 5.16699 48.499 15.5 71.499s24 43.333 41 61s36.167 31.667 57.5 42s43.333 15.5 66 15.5h530v-220h-80v-730h-200v730h-50v-730h-200v570c-22.667 0 -44.667 5.16699 -66 15.5s-40.5 24.333 -57.5 42s-30.667 37.834 -41 60.501s-15.5 46.667 -15.5 72
z" />
    <glyph glyph-name="periodcentered" unicode="&#xb7;" horiz-adv-x="210" 
d="M210 450v-200h-210v200h210z" />
    <glyph glyph-name="cedilla" unicode="&#xb8;" horiz-adv-x="290" 
d="M140 -60c16 0 31.333 -3.16504 46 -9.49805s27.5 -15 38.5 -26s19.667 -23.833 26 -38.5s9.5 -30 9.5 -46c0 -38 -12.667 -69.167 -38 -93.5s-59.333 -36.5 -102 -36.5h-90v100h70c7.33301 0 14.166 3.16699 20.499 9.5s9.5 13.166 9.5 20.499
s-3.16699 14.166 -9.5 20.499s-13.166 9.5 -20.499 9.5h-60l60 150h65z" />
    <glyph glyph-name="onesuperior" unicode="&#xb9;" horiz-adv-x="360" 
d="M310 700v-500h-180v330l-100 -45v165l110 50h170z" />
    <glyph glyph-name="ordmasculine" unicode="&#xba;" horiz-adv-x="540" 
d="M40 450c0 40 5.83301 76 17.5 108s27.834 59.333 48.501 82s45 40 73 52s58.333 18 91 18s63 -6 91 -18s52.333 -29.333 73 -52s36.834 -50 48.501 -82s17.5 -68 17.5 -108s-5.83301 -76 -17.5 -108s-27.834 -59.333 -48.501 -82s-45 -40 -73 -52s-58.333 -18 -91 -18
s-63 6 -91 18s-52.333 29.333 -73 52s-36.834 50 -48.501 82s-17.5 68 -17.5 108zM320 450c0 21.333 -1.5 39 -4.5 53s-6.83301 25.333 -11.5 34s-10 14.667 -16 18s-12 5 -18 5s-12 -1.66699 -18 -5s-11.333 -9.33301 -16 -18s-8.5 -20 -11.5 -34s-4.5 -31.667 -4.5 -53
s1.5 -39 4.5 -53s6.83301 -25.333 11.5 -34s10 -14.667 16 -18s12 -5 18 -5s12 1.66699 18 5s11.333 9.33301 16 18s8.5 20 11.5 34s4.5 31.667 4.5 53z" />
    <glyph glyph-name="guillemotright" unicode="&#xbb;" horiz-adv-x="540" 
d="M400 40h-150l110 230l-110 230h150l110 -230zM180 40h-150l110 230l-110 230h150l110 -230z" />
    <glyph glyph-name="onequarter" unicode="&#xbc;" horiz-adv-x="1080" 
d="M310 700v-500h-180v330l-100 -45v165l110 50h170zM440 0h-110l200 700h110zM1060 80h-50v-80h-180v80h-240v140l170 280h250v-280h50v-140zM830 350l-70 -130h70v130z" />
    <glyph glyph-name="onehalf" unicode="&#xbd;" horiz-adv-x="1060" 
d="M310 700v-500h-180v330l-100 -45v165l110 50h170zM440 0h-110l200 700h110zM1020 140l-0.00195312 -140.002h-390v130c38.667 23.333 73.667 46.333 105 69l38 30.5c12.667 10.333 24 20.833 34 31.5s18 21 24 31s9 19.333 9 28c0 26.667 -13.333 40 -40 40
c-15.333 0 -29.666 -2 -42.999 -6s-25 -8.66699 -35 -14c-12 -6 -22.667 -12.667 -32 -20l-80 120c14 12.667 31 24.334 51 35.001c17.333 8.66699 38.333 16.667 63 24s53.334 11 86.001 11c34.667 0 65.167 -4.16699 91.5 -12.5s48.333 -19.666 66 -33.999
s30.834 -31.166 39.501 -50.499s13 -40.333 13 -63c0 -30 -7.83301 -57.833 -23.5 -83.5s-32.834 -47.834 -51.501 -66.501c-22 -22 -47 -42 -75 -60h150z" />
    <glyph glyph-name="threequarters" unicode="&#xbe;" horiz-adv-x="1160" 
d="M430 350c0 -22.667 -4.33008 -43.666 -12.9971 -62.999s-21.834 -36.166 -39.501 -50.499s-39.667 -25.666 -66 -33.999s-56.833 -12.5 -91.5 -12.5c-32.667 0 -61.334 3.5 -86.001 10.5s-45.667 15.167 -63 24.5c-20 10 -37 21.667 -51 35l80 120
c9.33301 -7.33301 20 -14 32 -20c10 -5.33301 21.667 -10 35 -14s27.666 -6 42.999 -6c12.667 0 22.5 3.16699 29.5 9.5s10.5 13.166 10.5 20.499s-3.5 14.166 -10.5 20.499s-16.833 9.5 -29.5 9.5h-80v90l100 70h-180v140h370v-140l-100 -70c20 -7.33301 38.333 -17 55 -29
c13.333 -10.667 25.833 -24.834 37.5 -42.501s17.5 -40.5 17.5 -68.5zM520.003 0.000976562h-110l200 700h110zM1140 80.001h-50v-80h-180v80h-240v140l170 280h250v-280h50v-140zM910.003 350.001l-70 -130h70v130z" />
    <glyph glyph-name="questiondown" unicode="&#xbf;" horiz-adv-x="540" 
d="M20 -40c0 24.667 4.16504 46.8369 12.498 66.5039s18.833 37.667 31.5 54s26.334 31.666 41.001 45.999s28.334 28.833 41.001 43.5s23.167 30 31.5 46s12.5 34 12.5 54h210c0 -28 -3 -52.5 -9 -73.5s-13.333 -39.333 -22 -55s-18.334 -29.5 -29.001 -41.5
s-20.334 -23.667 -29.001 -35s-16 -23 -22 -35s-9 -25.333 -9 -40c0 -10 4.16699 -19.167 12.5 -27.5s17.5 -12.5 27.5 -12.5c12.667 0 22.834 3.16699 30.501 9.5s13.834 13.166 18.501 20.499c5.33301 8.66699 9 18.667 11 30l190 -70c-10 -36 -26.667 -67.667 -50 -95
c-10 -12 -22 -23.667 -36 -35s-30.333 -21.5 -49 -30.5s-40 -16.167 -64 -21.5s-51 -8 -81 -8c-42.667 0 -80.667 5.83301 -114 17.5s-61.5 27.167 -84.5 46.5s-40.667 41.666 -53 66.999s-18.5 51.666 -18.5 78.999zM189.998 330.003v200h210v-200h-210z" />
    <glyph glyph-name="Agrave" unicode="&#xc0;" horiz-adv-x="770" 
d="M555 700c0 -0.666992 3 -11.167 9 -31.5l23.5 -80l33 -112.5l37.5 -128l102 -348h-290l-20 100h-130l-20 -100h-290l205 700h340zM420 260l-35 180l-35 -180h70zM470 770h-160l-140 210h210z" />
    <glyph glyph-name="Aacute" unicode="&#xc1;" horiz-adv-x="770" 
d="M555 700c0 -0.666992 3 -11.167 9 -31.5l23.5 -80l33 -112.5l37.5 -128l102 -348h-290l-20 100h-130l-20 -100h-290l205 700h340zM420 260l-35 180l-35 -180h70zM400 980h210l-140 -210h-160z" />
    <glyph glyph-name="Acircumflex" unicode="&#xc2;" horiz-adv-x="770" 
d="M555 700c0 -0.666992 3 -11.167 9 -31.5l23.5 -80l33 -112.5l37.5 -128l102 -348h-290l-20 100h-130l-20 -100h-290l205 700h340zM420 260l-35 180l-35 -180h70zM585 770h-150l-50 80l-50 -80h-150l120 170h160z" />
    <glyph glyph-name="Atilde" unicode="&#xc3;" horiz-adv-x="770" 
d="M555 700c0 -0.666992 3 -11.167 9 -31.5l23.5 -80l33 -112.5l37.5 -128l102 -348h-290l-20 100h-130l-20 -100h-290l205 700h340zM420 260l-35 180l-35 -180h70zM455 770c-15.333 0 -28.332 2.66699 -38.999 8s-20.334 11 -29.001 17s-16.334 11.667 -23.001 17
s-13 8 -19 8c-7.33301 0 -14.166 -3.5 -20.499 -10.5s-9.5 -16.833 -9.5 -29.5h-90v70c0 30 8.66699 54.167 26 72.5s38.666 27.5 63.999 27.5c14.667 0 27.5 -2.66699 38.5 -8s20.833 -11 29.5 -17s16.334 -11.667 23.001 -17s13 -8 19 -8
c7.33301 0 14.166 3.5 20.499 10.5s9.5 16.833 9.5 29.5h90v-70c0 -30 -8.66699 -54.167 -26 -72.5s-38.666 -27.5 -63.999 -27.5z" />
    <glyph glyph-name="Adieresis" unicode="&#xc4;" horiz-adv-x="770" 
d="M555 700c0 -0.666992 3 -11.167 9 -31.5l23.5 -80l33 -112.5l37.5 -128l102 -348h-290l-20 100h-130l-20 -100h-290l205 700h340zM420 260l-35 180l-35 -180h70zM585 860c0 -25.333 -8.66699 -46.666 -26 -63.999s-38.666 -26 -63.999 -26s-46.666 8.66699 -63.999 26
s-26 38.666 -26 63.999s8.66699 46.666 26 63.999s38.666 26 63.999 26s46.666 -8.66699 63.999 -26s26 -38.666 26 -63.999zM365 860c0 -25.333 -8.66699 -46.666 -26 -63.999s-38.666 -26 -63.999 -26s-46.666 8.66699 -63.999 26s-26 38.666 -26 63.999
s8.66699 46.666 26 63.999s38.666 26 63.999 26s46.666 -8.66699 63.999 -26s26 -38.666 26 -63.999z" />
    <glyph glyph-name="Aring" unicode="&#xc5;" horiz-adv-x="770" 
d="M555 700c0 -0.666992 3 -11.167 9 -31.5l23.5 -80l33 -112.5l37.5 -128l102 -348h-290l-20 100h-130l-20 -100h-290l205 700h340zM420 260l-35 180l-35 -180h70zM255 880c0 38 12.167 69.167 36.5 93.5s55.5 36.5 93.5 36.5s69.167 -12.167 93.5 -36.5
s36.5 -55.5 36.5 -93.5s-12.167 -69.167 -36.5 -93.5s-55.5 -36.5 -93.5 -36.5s-69.167 12.167 -93.5 36.5s-36.5 55.5 -36.5 93.5zM345 880c0 -10 4.16699 -19.167 12.5 -27.5s17.5 -12.5 27.5 -12.5s19.167 4.16699 27.5 12.5s12.5 17.5 12.5 27.5
s-4.16699 19.167 -12.5 27.5s-17.5 12.5 -27.5 12.5s-19.167 -4.16699 -27.5 -12.5s-12.5 -17.5 -12.5 -27.5z" />
    <glyph glyph-name="AE" unicode="&#xc6;" horiz-adv-x="1070" 
d="M1040 200v-200h-560v110h-190l-50 -110h-280l360 700h700v-200h-280v-50h260v-200h-260v-50h300zM480 300v200h-10l-90 -200h100z" />
    <glyph glyph-name="Ccedilla" unicode="&#xc7;" horiz-adv-x="710" 
d="M40 350c0 51.333 9.5 99.168 28.5 143.501s45 83 78 116s72 58.833 117 77.5s93.833 28 146.5 28c48 0 89.333 -5.83301 124 -17.5s63.667 -24.167 87 -37.5c26.667 -16.667 49.667 -35 69 -55l-120 -190c-12 10 -25 19 -39 27c-12 7.33301 -25.833 13.833 -41.5 19.5
s-32.167 8.5 -49.5 8.5c-35.333 0 -64.166 -11.167 -86.499 -33.5s-33.5 -51.166 -33.5 -86.499s11.167 -64.166 33.5 -86.499s51.166 -33.5 86.499 -33.5c17.333 0 33.833 2.66699 49.5 8s29.5 11.666 41.5 18.999c14 8 27 17.333 39 28l120 -190
c-18.667 -19.333 -41.334 -37 -68.001 -53c-22.667 -13.333 -50.667 -25.833 -84 -37.5s-72.666 -18.167 -117.999 -19.5l-20 -45c16 0 31.333 -3.16699 46 -9.5s27.5 -15 38.5 -26s19.667 -23.833 26 -38.5s9.5 -30 9.5 -46c0 -38 -12.667 -69.167 -38 -93.5
s-59.333 -36.5 -102 -36.5h-90v100h70c7.33301 0 14.166 3.16699 20.499 9.5s9.5 13.166 9.5 20.499s-3.16699 14.166 -9.5 20.499s-13.166 9.5 -20.499 9.5h-60l55 140c-46 7.33301 -88.333 21.333 -127 42s-72 46.667 -100 78s-49.667 67.333 -65 108s-23 84.667 -23 132z
" />
    <glyph glyph-name="Egrave" unicode="&#xc8;" horiz-adv-x="650" 
d="M320 200h300v-200h-560v700h540v-200h-280v-50h260v-200h-260v-50zM420 770h-160l-140 210h210z" />
    <glyph glyph-name="Eacute" unicode="&#xc9;" horiz-adv-x="650" 
d="M320 200h300v-200h-560v700h540v-200h-280v-50h260v-200h-260v-50zM340 980h210l-140 -210h-160z" />
    <glyph glyph-name="Ecircumflex" unicode="&#xca;" horiz-adv-x="650" 
d="M320 200h300v-200h-560v700h540v-200h-280v-50h260v-200h-260v-50zM530 770h-150l-50 80l-50 -80h-150l120 170h160z" />
    <glyph glyph-name="Edieresis" unicode="&#xcb;" horiz-adv-x="650" 
d="M320 200h300v-200h-560v700h540v-200h-280v-50h260v-200h-260v-50zM530 860c0 -25.333 -8.66699 -46.666 -26 -63.999s-38.666 -26 -63.999 -26s-46.666 8.66699 -63.999 26s-26 38.666 -26 63.999s8.66699 46.666 26 63.999s38.666 26 63.999 26
s46.666 -8.66699 63.999 -26s26 -38.666 26 -63.999zM310 860c0 -25.333 -8.66699 -46.666 -26 -63.999s-38.666 -26 -63.999 -26s-46.666 8.66699 -63.999 26s-26 38.666 -26 63.999s8.66699 46.666 26 63.999s38.666 26 63.999 26s46.666 -8.66699 63.999 -26
s26 -38.666 26 -63.999z" />
    <glyph glyph-name="Igrave" unicode="&#xcc;" horiz-adv-x="380" 
d="M320 0h-260v700h260v-700zM271 770h-160l-140 210h210z" />
    <glyph glyph-name="Iacute" unicode="&#xcd;" horiz-adv-x="380" 
d="M320 0h-260v700h260v-700zM200 980h210l-140 -210h-160z" />
    <glyph glyph-name="Icircumflex" unicode="&#xce;" horiz-adv-x="380" 
d="M320 0h-260v700h260v-700zM391 770h-150l-50 80l-50 -80h-150l120 170h160z" />
    <glyph glyph-name="Idieresis" unicode="&#xcf;" horiz-adv-x="380" 
d="M320 0h-260v700h260v-700zM391 860c0 -25.333 -8.66699 -46.666 -26 -63.999s-38.666 -26 -63.999 -26s-46.666 8.66699 -63.999 26s-26 38.666 -26 63.999s8.66699 46.666 26 63.999s38.666 26 63.999 26s46.666 -8.66699 63.999 -26s26 -38.666 26 -63.999zM171 860
c0 -25.333 -8.66699 -46.666 -26 -63.999s-38.666 -26 -63.999 -26s-46.666 8.66699 -63.999 26s-26 38.666 -26 63.999s8.66699 46.666 26 63.999s38.666 26 63.999 26s46.666 -8.66699 63.999 -26s26 -38.666 26 -63.999z" />
    <glyph glyph-name="Eth" unicode="&#xd0;" horiz-adv-x="830" 
d="M20 420h70v280c28 1.33301 58 3 90 5c28 1.33301 60 2.5 96 3.5s74 1.5 114 1.5c66.667 0 125 -8.66699 175 -26s91.667 -41.833 125 -73.5s58.333 -69.5 75 -113.5s25 -93 25 -147s-8.33301 -103 -25 -147s-41.667 -81.833 -75 -113.5s-75 -56.167 -125 -73.5
s-108.333 -26 -175 -26c-40 0 -78 0.5 -114 1.5s-68 2.16699 -96 3.5c-32 1.33301 -62 3 -90 5v280h-70v140zM390 210c38 0 67.5 11.333 88.5 34s31.5 58 31.5 106s-10.5 83.333 -31.5 106s-50.5 34 -88.5 34h-40v-70h90v-140h-90v-70h40z" />
    <glyph glyph-name="Ntilde" unicode="&#xd1;" horiz-adv-x="840" 
d="M320 310v-310h-260v700h290l170 -310v310h260v-700h-290zM489 760c-15.333 0 -28.332 2.66699 -38.999 8s-20.334 11 -29.001 17s-16.334 11.667 -23.001 17s-13 8 -19 8c-7.33301 0 -14.166 -3.5 -20.499 -10.5s-9.5 -16.833 -9.5 -29.5h-90v70
c0 30 8.66699 54.167 26 72.5s38.666 27.5 63.999 27.5c14.667 0 27.5 -2.66699 38.5 -8s20.833 -11 29.5 -17s16.334 -11.667 23.001 -17s13 -8 19 -8c7.33301 0 14.166 3.5 20.499 10.5s9.5 16.833 9.5 29.5h90v-70c0 -30 -8.66699 -54.167 -26 -72.5
s-38.666 -27.5 -63.999 -27.5z" />
    <glyph glyph-name="Ograve" unicode="&#xd2;" horiz-adv-x="860" 
d="M540 350c0 17.333 -3 33.333 -9 48s-14 27.334 -24 38.001s-21.667 19 -35 25s-27.333 9 -42 9c-15.333 0 -29.666 -3 -42.999 -9s-25 -14.333 -35 -25s-17.833 -23.334 -23.5 -38.001s-8.5 -30.667 -8.5 -48s2.83301 -33.333 8.5 -48s13.5 -27.334 23.5 -38.001
s21.667 -19 35 -25s27.666 -9 42.999 -9c14.667 0 28.667 3 42 9s25 14.333 35 25s18 23.334 24 38.001s9 30.667 9 48zM820 350c0 -51.333 -9.5 -99.166 -28.5 -143.499s-45.667 -83 -80 -116s-75.5 -58.833 -123.5 -77.5s-100.667 -28 -158 -28s-110 9.33301 -158 28
s-89.167 44.5 -123.5 77.5s-61 71.667 -80 116s-28.5 92.166 -28.5 143.499s9.5 99.166 28.5 143.499s45.667 83 80 116s75.5 58.833 123.5 77.5s100.667 28 158 28s110 -9.33301 158 -28s89.167 -44.5 123.5 -77.5s61 -71.667 80 -116s28.5 -92.166 28.5 -143.499zM510 770
h-160l-140 210h210z" />
    <glyph glyph-name="Oacute" unicode="&#xd3;" horiz-adv-x="860" 
d="M540 350c0 17.333 -3 33.333 -9 48s-14 27.334 -24 38.001s-21.667 19 -35 25s-27.333 9 -42 9c-15.333 0 -29.666 -3 -42.999 -9s-25 -14.333 -35 -25s-17.833 -23.334 -23.5 -38.001s-8.5 -30.667 -8.5 -48s2.83301 -33.333 8.5 -48s13.5 -27.334 23.5 -38.001
s21.667 -19 35 -25s27.666 -9 42.999 -9c14.667 0 28.667 3 42 9s25 14.333 35 25s18 23.334 24 38.001s9 30.667 9 48zM820 350c0 -51.333 -9.5 -99.166 -28.5 -143.499s-45.667 -83 -80 -116s-75.5 -58.833 -123.5 -77.5s-100.667 -28 -158 -28s-110 9.33301 -158 28
s-89.167 44.5 -123.5 77.5s-61 71.667 -80 116s-28.5 92.166 -28.5 143.499s9.5 99.166 28.5 143.499s45.667 83 80 116s75.5 58.833 123.5 77.5s100.667 28 158 28s110 -9.33301 158 -28s89.167 -44.5 123.5 -77.5s61 -71.667 80 -116s28.5 -92.166 28.5 -143.499zM450 980
h210l-140 -210h-160z" />
    <glyph glyph-name="Ocircumflex" unicode="&#xd4;" horiz-adv-x="860" 
d="M540 350c0 17.333 -3 33.333 -9 48s-14 27.334 -24 38.001s-21.667 19 -35 25s-27.333 9 -42 9c-15.333 0 -29.666 -3 -42.999 -9s-25 -14.333 -35 -25s-17.833 -23.334 -23.5 -38.001s-8.5 -30.667 -8.5 -48s2.83301 -33.333 8.5 -48s13.5 -27.334 23.5 -38.001
s21.667 -19 35 -25s27.666 -9 42.999 -9c14.667 0 28.667 3 42 9s25 14.333 35 25s18 23.334 24 38.001s9 30.667 9 48zM820 350c0 -51.333 -9.5 -99.166 -28.5 -143.499s-45.667 -83 -80 -116s-75.5 -58.833 -123.5 -77.5s-100.667 -28 -158 -28s-110 9.33301 -158 28
s-89.167 44.5 -123.5 77.5s-61 71.667 -80 116s-28.5 92.166 -28.5 143.499s9.5 99.166 28.5 143.499s45.667 83 80 116s75.5 58.833 123.5 77.5s100.667 28 158 28s110 -9.33301 158 -28s89.167 -44.5 123.5 -77.5s61 -71.667 80 -116s28.5 -92.166 28.5 -143.499zM630 770
h-150l-50 80l-50 -80h-150l120 170h160z" />
    <glyph glyph-name="Otilde" unicode="&#xd5;" horiz-adv-x="860" 
d="M540 350c0 17.333 -3 33.333 -9 48s-14 27.334 -24 38.001s-21.667 19 -35 25s-27.333 9 -42 9c-15.333 0 -29.666 -3 -42.999 -9s-25 -14.333 -35 -25s-17.833 -23.334 -23.5 -38.001s-8.5 -30.667 -8.5 -48s2.83301 -33.333 8.5 -48s13.5 -27.334 23.5 -38.001
s21.667 -19 35 -25s27.666 -9 42.999 -9c14.667 0 28.667 3 42 9s25 14.333 35 25s18 23.334 24 38.001s9 30.667 9 48zM820 350c0 -51.333 -9.5 -99.166 -28.5 -143.499s-45.667 -83 -80 -116s-75.5 -58.833 -123.5 -77.5s-100.667 -28 -158 -28s-110 9.33301 -158 28
s-89.167 44.5 -123.5 77.5s-61 71.667 -80 116s-28.5 92.166 -28.5 143.499s9.5 99.166 28.5 143.499s45.667 83 80 116s75.5 58.833 123.5 77.5s100.667 28 158 28s110 -9.33301 158 -28s89.167 -44.5 123.5 -77.5s61 -71.667 80 -116s28.5 -92.166 28.5 -143.499zM500 770
c-15.333 0 -28.332 2.66699 -38.999 8s-20.334 11 -29.001 17s-16.334 11.667 -23.001 17s-13 8 -19 8c-7.33301 0 -14.166 -3.5 -20.499 -10.5s-9.5 -16.833 -9.5 -29.5h-90v70c0 30 8.66699 54.167 26 72.5s38.666 27.5 63.999 27.5c14.667 0 27.5 -2.66699 38.5 -8
s20.833 -11 29.5 -17s16.334 -11.667 23.001 -17s13 -8 19 -8c7.33301 0 14.166 3.5 20.499 10.5s9.5 16.833 9.5 29.5h90v-70c0 -30 -8.66699 -54.167 -26 -72.5s-38.666 -27.5 -63.999 -27.5z" />
    <glyph glyph-name="Odieresis" unicode="&#xd6;" horiz-adv-x="860" 
d="M540 350c0 17.333 -3 33.333 -9 48s-14 27.334 -24 38.001s-21.667 19 -35 25s-27.333 9 -42 9c-15.333 0 -29.666 -3 -42.999 -9s-25 -14.333 -35 -25s-17.833 -23.334 -23.5 -38.001s-8.5 -30.667 -8.5 -48s2.83301 -33.333 8.5 -48s13.5 -27.334 23.5 -38.001
s21.667 -19 35 -25s27.666 -9 42.999 -9c14.667 0 28.667 3 42 9s25 14.333 35 25s18 23.334 24 38.001s9 30.667 9 48zM820 350c0 -51.333 -9.5 -99.166 -28.5 -143.499s-45.667 -83 -80 -116s-75.5 -58.833 -123.5 -77.5s-100.667 -28 -158 -28s-110 9.33301 -158 28
s-89.167 44.5 -123.5 77.5s-61 71.667 -80 116s-28.5 92.166 -28.5 143.499s9.5 99.166 28.5 143.499s45.667 83 80 116s75.5 58.833 123.5 77.5s100.667 28 158 28s110 -9.33301 158 -28s89.167 -44.5 123.5 -77.5s61 -71.667 80 -116s28.5 -92.166 28.5 -143.499zM630 860
c0 -25.333 -8.66699 -46.666 -26 -63.999s-38.666 -26 -63.999 -26s-46.666 8.66699 -63.999 26s-26 38.666 -26 63.999s8.66699 46.666 26 63.999s38.666 26 63.999 26s46.666 -8.66699 63.999 -26s26 -38.666 26 -63.999zM410 860c0 -25.333 -8.66699 -46.666 -26 -63.999
s-38.666 -26 -63.999 -26s-46.666 8.66699 -63.999 26s-26 38.666 -26 63.999s8.66699 46.666 26 63.999s38.666 26 63.999 26s46.666 -8.66699 63.999 -26s26 -38.666 26 -63.999z" />
    <glyph glyph-name="multiply" unicode="&#xd7;" horiz-adv-x="540" 
d="M150 90l-120 120l120 120l-120 120l120 120l120 -120l120 120l120 -120l-120 -120l120 -120l-120 -120l-120 120z" />
    <glyph glyph-name="Oslash" unicode="&#xd8;" horiz-adv-x="860" 
d="M430 230c14.667 0 28.667 2.99902 42 8.99902s25 14.333 35 25s18 23.334 24 38.001s9 30.667 9 48v40l-140 -160h30zM430 -15.001c-32.667 0 -61.667 2.5 -87 7.5s-46.666 10.833 -63.999 17.5c-20.667 7.33301 -38.667 15.666 -54 24.999l-65 -75l-85 75l60 70
c-18 17.333 -34 38 -48 62c-12 20.667 -22.833 46.167 -32.5 76.5s-14.5 65.5 -14.5 105.5c0 51.333 9.5 99.333 28.5 144s45.667 83.5 80 116.5s75.5 58.833 123.5 77.5s100.667 28 158 28c32.667 0 61.667 -2.66699 87 -8s46.666 -11 63.999 -17
c20.667 -7.33301 38.667 -15.666 54 -24.999l65 75l85 -75l-60 -70c17.333 -17.333 33 -38 47 -62c12 -20.667 23 -46.167 33 -76.5s15 -65.5 15 -105.5c0 -51.333 -9.5 -99.333 -28.5 -144s-45.667 -83.5 -80 -116.5s-75.5 -58.833 -123.5 -77.5s-100.667 -28 -158 -28z
M430 469.999c-15.333 0 -29.667 -2.99902 -43 -8.99902s-25 -14.333 -35 -25s-17.833 -23.334 -23.5 -38.001s-8.5 -30.667 -8.5 -48v-40l140 160h-30z" />
    <glyph glyph-name="Ugrave" unicode="&#xd9;" horiz-adv-x="800" 
d="M400 235c22.667 0 41.667 8 57 24s23 38 23 66v375h260v-375c0 -50 -8.33301 -95.833 -25 -137.5s-40 -77.5 -70 -107.5s-65.833 -53.333 -107.5 -70s-87.5 -25 -137.5 -25s-95.833 8.33301 -137.5 25s-77.5 40 -107.5 70s-53.333 65.833 -70 107.5s-25 87.5 -25 137.5
v375h260v-375c0 -28 7.66699 -50 23 -66s34.333 -24 57 -24zM480 770h-160l-140 210h210z" />
    <glyph glyph-name="Uacute" unicode="&#xda;" horiz-adv-x="800" 
d="M400 235c22.667 0 41.667 8 57 24s23 38 23 66v375h260v-375c0 -50 -8.33301 -95.833 -25 -137.5s-40 -77.5 -70 -107.5s-65.833 -53.333 -107.5 -70s-87.5 -25 -137.5 -25s-95.833 8.33301 -137.5 25s-77.5 40 -107.5 70s-53.333 65.833 -70 107.5s-25 87.5 -25 137.5
v375h260v-375c0 -28 7.66699 -50 23 -66s34.333 -24 57 -24zM410 980h210l-140 -210h-160z" />
    <glyph glyph-name="Ucircumflex" unicode="&#xdb;" horiz-adv-x="800" 
d="M400 235c22.667 0 41.667 8 57 24s23 38 23 66v375h260v-375c0 -50 -8.33301 -95.833 -25 -137.5s-40 -77.5 -70 -107.5s-65.833 -53.333 -107.5 -70s-87.5 -25 -137.5 -25s-95.833 8.33301 -137.5 25s-77.5 40 -107.5 70s-53.333 65.833 -70 107.5s-25 87.5 -25 137.5
v375h260v-375c0 -28 7.66699 -50 23 -66s34.333 -24 57 -24zM600 770h-150l-50 80l-50 -80h-150l120 170h160z" />
    <glyph glyph-name="Udieresis" unicode="&#xdc;" horiz-adv-x="800" 
d="M400 235c22.667 0 41.667 8 57 24s23 38 23 66v375h260v-375c0 -50 -8.33301 -95.833 -25 -137.5s-40 -77.5 -70 -107.5s-65.833 -53.333 -107.5 -70s-87.5 -25 -137.5 -25s-95.833 8.33301 -137.5 25s-77.5 40 -107.5 70s-53.333 65.833 -70 107.5s-25 87.5 -25 137.5
v375h260v-375c0 -28 7.66699 -50 23 -66s34.333 -24 57 -24zM600 860c0 -25.333 -8.66699 -46.666 -26 -63.999s-38.666 -26 -63.999 -26s-46.666 8.66699 -63.999 26s-26 38.666 -26 63.999s8.66699 46.666 26 63.999s38.666 26 63.999 26s46.666 -8.66699 63.999 -26
s26 -38.666 26 -63.999zM380 860c0 -25.333 -8.66699 -46.666 -26 -63.999s-38.666 -26 -63.999 -26s-46.666 8.66699 -63.999 26s-26 38.666 -26 63.999s8.66699 46.666 26 63.999s38.666 26 63.999 26s46.666 -8.66699 63.999 -26s26 -38.666 26 -63.999z" />
    <glyph glyph-name="Yacute" unicode="&#xdd;" horiz-adv-x="700" 
d="M350 500l70 200h300l-240 -430v-270h-260v270l-240 430h300zM360 980h210l-140 -210h-160z" />
    <glyph glyph-name="Thorn" unicode="&#xde;" horiz-adv-x="710" 
d="M60 710l260 -0.00195312v-115h90c42.667 0 80.667 -6 114 -18s61.5 -28.667 84.5 -50s40.667 -47.166 53 -77.499s18.5 -63.5 18.5 -99.5s-6.16699 -69.167 -18.5 -99.5s-30 -56.166 -53 -77.499s-51.167 -38 -84.5 -50s-71.333 -18 -114 -18h-90v-115h-260v720z
M360 294.998c17.333 0 31.666 5.33301 42.999 16s17 23.667 17 39s-5.66699 28.333 -17 39s-25.666 16 -42.999 16h-40v-110h40z" />
    <glyph glyph-name="germandbls" unicode="&#xdf;" horiz-adv-x="680" 
d="M520 370c0 -7.33301 7.3291 -14.8369 21.9961 -22.5039s30.667 -17.667 48 -30s33.333 -28.5 48 -48.5s22 -46.333 22 -79c0 -25.333 -5.66699 -49.333 -17 -72s-29 -42.834 -53 -60.501s-54.167 -31.667 -90.5 -42s-79.5 -15.5 -129.5 -15.5v180
c17.333 0 31.666 5.16699 42.999 15.5s17 21.833 17 34.5s-4.66699 24.167 -14 34.5s-19.666 20.833 -30.999 31.5s-21.666 21.834 -30.999 33.501s-14 25.167 -14 40.5c0 14.667 3.66699 28 11 40s15.333 23.333 24 34s16.667 21.167 24 31.5s11 21.833 11 34.5
c0 10 -4.16699 19.167 -12.5 27.5s-17.5 12.5 -27.5 12.5c-12.667 0 -24.167 -5.66699 -34.5 -17s-15.5 -25.666 -15.5 -42.999v-460c0 -25.333 -1 -48.333 -3 -69s-4.33301 -38.667 -7 -54c-2.66699 -17.333 -6 -33 -10 -47h-260c4 14 7.33301 29.667 10 47
c2.66699 15.333 5 33.333 7 54s3 43.667 3 69v450c0 34.667 6.33301 66.834 19 96.501s31.834 55 57.501 76s57.834 37.5 96.501 49.5s84.334 18 137.001 18c40 0 75.5 -5.16699 106.5 -15.5s57.167 -24 78.5 -41s37.5 -36.167 48.5 -57.5s16.5 -43.333 16.5 -66
c0 -27.333 -5.16699 -50.166 -15.5 -68.499s-21.833 -33.833 -34.5 -46.5s-24.167 -23.167 -34.5 -31.5s-15.5 -16.166 -15.5 -23.499z" />
    <glyph glyph-name="agrave" unicode="&#xe0;" horiz-adv-x="620" 
d="M285 545c42.667 0 82.001 -7.33301 118.001 -22s67.167 -34.667 93.5 -60s46.833 -55 61.5 -89s22 -70.333 22 -109v-265h-230l-20 60c-8.66699 -14 -19 -26.667 -31 -38c-10.667 -9.33301 -24.167 -17.833 -40.5 -25.5s-35.833 -11.5 -58.5 -11.5
c-27.333 0 -52.166 4.16699 -74.499 12.5s-41.333 19.833 -57 34.5s-27.667 32 -36 52s-12.5 42 -12.5 66s4.5 46 13.5 66s23.167 37.333 42.5 52s44.166 26.167 74.499 34.5s66.833 12.5 109.5 12.5h80c-2.66699 10 -7.66699 19 -15 27
c-6.66699 7.33301 -15.834 13.833 -27.501 19.5s-27.5 8.5 -47.5 8.5c-12.667 0 -24.5 -2 -35.5 -6s-20.5 -8.66699 -28.5 -14c-9.33301 -6 -18 -12.667 -26 -20l-85 135c14.667 14.667 32.667 28 54 40c18 10 40 19.167 66 27.5s56 12.5 90 12.5zM290.001 145
c12.667 0 24.168 6.66602 34.501 19.999s15.5 35 15.5 65c-28 0 -48.333 -5.33301 -61 -16s-19 -23.667 -19 -39c0 -7.33301 3.16699 -14.166 9.5 -20.499s13.166 -9.5 20.499 -9.5zM430.002 599.999h-160l-140 210h210z" />
    <glyph glyph-name="aacute" unicode="&#xe1;" horiz-adv-x="620" 
d="M285 545c42.667 0 82.001 -7.33301 118.001 -22s67.167 -34.667 93.5 -60s46.833 -55 61.5 -89s22 -70.333 22 -109v-265h-230l-20 60c-8.66699 -14 -19 -26.667 -31 -38c-10.667 -9.33301 -24.167 -17.833 -40.5 -25.5s-35.833 -11.5 -58.5 -11.5
c-27.333 0 -52.166 4.16699 -74.499 12.5s-41.333 19.833 -57 34.5s-27.667 32 -36 52s-12.5 42 -12.5 66s4.5 46 13.5 66s23.167 37.333 42.5 52s44.166 26.167 74.499 34.5s66.833 12.5 109.5 12.5h80c-2.66699 10 -7.66699 19 -15 27
c-6.66699 7.33301 -15.834 13.833 -27.501 19.5s-27.5 8.5 -47.5 8.5c-12.667 0 -24.5 -2 -35.5 -6s-20.5 -8.66699 -28.5 -14c-9.33301 -6 -18 -12.667 -26 -20l-85 135c14.667 14.667 32.667 28 54 40c18 10 40 19.167 66 27.5s56 12.5 90 12.5zM290.001 145
c12.667 0 24.168 6.66602 34.501 19.999s15.5 35 15.5 65c-28 0 -48.333 -5.33301 -61 -16s-19 -23.667 -19 -39c0 -7.33301 3.16699 -14.166 9.5 -20.499s13.166 -9.5 20.499 -9.5zM340.002 809.999h210l-140 -210h-160z" />
    <glyph glyph-name="acircumflex" unicode="&#xe2;" horiz-adv-x="620" 
d="M285 545c42.667 0 82.001 -7.33301 118.001 -22s67.167 -34.667 93.5 -60s46.833 -55 61.5 -89s22 -70.333 22 -109v-265h-230l-20 60c-8.66699 -14 -19 -26.667 -31 -38c-10.667 -9.33301 -24.167 -17.833 -40.5 -25.5s-35.833 -11.5 -58.5 -11.5
c-27.333 0 -52.166 4.16699 -74.499 12.5s-41.333 19.833 -57 34.5s-27.667 32 -36 52s-12.5 42 -12.5 66s4.5 46 13.5 66s23.167 37.333 42.5 52s44.166 26.167 74.499 34.5s66.833 12.5 109.5 12.5h80c-2.66699 10 -7.66699 19 -15 27
c-6.66699 7.33301 -15.834 13.833 -27.501 19.5s-27.5 8.5 -47.5 8.5c-12.667 0 -24.5 -2 -35.5 -6s-20.5 -8.66699 -28.5 -14c-9.33301 -6 -18 -12.667 -26 -20l-85 135c14.667 14.667 32.667 28 54 40c18 10 40 19.167 66 27.5s56 12.5 90 12.5zM290.001 145
c12.667 0 24.168 6.66602 34.501 19.999s15.5 35 15.5 65c-28 0 -48.333 -5.33301 -61 -16s-19 -23.667 -19 -39c0 -7.33301 3.16699 -14.166 9.5 -20.499s13.166 -9.5 20.499 -9.5zM530.002 599.999h-150l-50 80l-50 -80h-150l120 170h160z" />
    <glyph glyph-name="atilde" unicode="&#xe3;" horiz-adv-x="620" 
d="M285 545c42.667 0 82.001 -7.33301 118.001 -22s67.167 -34.667 93.5 -60s46.833 -55 61.5 -89s22 -70.333 22 -109v-265h-230l-20 60c-8.66699 -14 -19 -26.667 -31 -38c-10.667 -9.33301 -24.167 -17.833 -40.5 -25.5s-35.833 -11.5 -58.5 -11.5
c-27.333 0 -52.166 4.16699 -74.499 12.5s-41.333 19.833 -57 34.5s-27.667 32 -36 52s-12.5 42 -12.5 66s4.5 46 13.5 66s23.167 37.333 42.5 52s44.166 26.167 74.499 34.5s66.833 12.5 109.5 12.5h80c-2.66699 10 -7.66699 19 -15 27
c-6.66699 7.33301 -15.834 13.833 -27.501 19.5s-27.5 8.5 -47.5 8.5c-12.667 0 -24.5 -2 -35.5 -6s-20.5 -8.66699 -28.5 -14c-9.33301 -6 -18 -12.667 -26 -20l-85 135c14.667 14.667 32.667 28 54 40c18 10 40 19.167 66 27.5s56 12.5 90 12.5zM290.001 145
c12.667 0 24.168 6.66602 34.501 19.999s15.5 35 15.5 65c-28 0 -48.333 -5.33301 -61 -16s-19 -23.667 -19 -39c0 -7.33301 3.16699 -14.166 9.5 -20.499s13.166 -9.5 20.499 -9.5zM400.002 599.999c-15.333 0 -28.332 2.66699 -38.999 8s-20.334 11 -29.001 17
s-16.334 11.667 -23.001 17s-13 8 -19 8c-7.33301 0 -14.166 -3.5 -20.499 -10.5s-9.5 -16.833 -9.5 -29.5h-90v70c0 30 8.66699 54.167 26 72.5s38.666 27.5 63.999 27.5c14.667 0 27.5 -2.66699 38.5 -8s20.833 -11 29.5 -17s16.334 -11.667 23.001 -17s13 -8 19 -8
c7.33301 0 14.166 3.5 20.499 10.5s9.5 16.833 9.5 29.5h90v-70c0 -30 -8.66699 -54.167 -26 -72.5s-38.666 -27.5 -63.999 -27.5z" />
    <glyph glyph-name="adieresis" unicode="&#xe4;" horiz-adv-x="620" 
d="M285 545c42.667 0 82.001 -7.33301 118.001 -22s67.167 -34.667 93.5 -60s46.833 -55 61.5 -89s22 -70.333 22 -109v-265h-230l-20 60c-8.66699 -14 -19 -26.667 -31 -38c-10.667 -9.33301 -24.167 -17.833 -40.5 -25.5s-35.833 -11.5 -58.5 -11.5
c-27.333 0 -52.166 4.16699 -74.499 12.5s-41.333 19.833 -57 34.5s-27.667 32 -36 52s-12.5 42 -12.5 66s4.5 46 13.5 66s23.167 37.333 42.5 52s44.166 26.167 74.499 34.5s66.833 12.5 109.5 12.5h80c-2.66699 10 -7.66699 19 -15 27
c-6.66699 7.33301 -15.834 13.833 -27.501 19.5s-27.5 8.5 -47.5 8.5c-12.667 0 -24.5 -2 -35.5 -6s-20.5 -8.66699 -28.5 -14c-9.33301 -6 -18 -12.667 -26 -20l-85 135c14.667 14.667 32.667 28 54 40c18 10 40 19.167 66 27.5s56 12.5 90 12.5zM290.001 145
c12.667 0 24.168 6.66602 34.501 19.999s15.5 35 15.5 65c-28 0 -48.333 -5.33301 -61 -16s-19 -23.667 -19 -39c0 -7.33301 3.16699 -14.166 9.5 -20.499s13.166 -9.5 20.499 -9.5zM540.002 689.999c0 -25.333 -8.66699 -46.666 -26 -63.999s-38.666 -26 -63.999 -26
s-46.666 8.66699 -63.999 26s-26 38.666 -26 63.999s8.66699 46.666 26 63.999s38.666 26 63.999 26s46.666 -8.66699 63.999 -26s26 -38.666 26 -63.999zM320.002 689.999c0 -25.333 -8.66699 -46.666 -26 -63.999s-38.666 -26 -63.999 -26s-46.666 8.66699 -63.999 26
s-26 38.666 -26 63.999s8.66699 46.666 26 63.999s38.666 26 63.999 26s46.666 -8.66699 63.999 -26s26 -38.666 26 -63.999z" />
    <glyph glyph-name="aring" unicode="&#xe5;" horiz-adv-x="620" 
d="M285 545c42.667 0 82.001 -7.33301 118.001 -22s67.167 -34.667 93.5 -60s46.833 -55 61.5 -89s22 -70.333 22 -109v-265h-230l-20 60c-8.66699 -14 -19 -26.667 -31 -38c-10.667 -9.33301 -24.167 -17.833 -40.5 -25.5s-35.833 -11.5 -58.5 -11.5
c-27.333 0 -52.166 4.16699 -74.499 12.5s-41.333 19.833 -57 34.5s-27.667 32 -36 52s-12.5 42 -12.5 66s4.5 46 13.5 66s23.167 37.333 42.5 52s44.166 26.167 74.499 34.5s66.833 12.5 109.5 12.5h80c-2.66699 10 -7.66699 19 -15 27
c-6.66699 7.33301 -15.834 13.833 -27.501 19.5s-27.5 8.5 -47.5 8.5c-12.667 0 -24.5 -2 -35.5 -6s-20.5 -8.66699 -28.5 -14c-9.33301 -6 -18 -12.667 -26 -20l-85 135c14.667 14.667 32.667 28 54 40c18 10 40 19.167 66 27.5s56 12.5 90 12.5zM290.001 145
c12.667 0 24.168 6.66602 34.501 19.999s15.5 35 15.5 65c-28 0 -48.333 -5.33301 -61 -16s-19 -23.667 -19 -39c0 -7.33301 3.16699 -14.166 9.5 -20.499s13.166 -9.5 20.499 -9.5zM210.002 719.999c0 38 12.167 69.167 36.5 93.5s55.5 36.5 93.5 36.5
s69.167 -12.167 93.5 -36.5s36.5 -55.5 36.5 -93.5s-12.167 -69.167 -36.5 -93.5s-55.5 -36.5 -93.5 -36.5s-69.167 12.167 -93.5 36.5s-36.5 55.5 -36.5 93.5zM300.002 719.999c0 -10 4.16699 -19.167 12.5 -27.5s17.5 -12.5 27.5 -12.5s19.167 4.16699 27.5 12.5
s12.5 17.5 12.5 27.5s-4.16699 19.167 -12.5 27.5s-17.5 12.5 -27.5 12.5s-19.167 -4.16699 -27.5 -12.5s-12.5 -17.5 -12.5 -27.5z" />
    <glyph glyph-name="ae" unicode="&#xe6;" horiz-adv-x="925" 
d="M625 545c38.667 0 75.0029 -7.33398 109.003 -22.001s63.667 -34.667 89 -60s45.333 -55 60 -89s22 -70.333 22 -109v-50h-320c2.66699 -10.667 7.66699 -20 15 -28c6 -7.33301 15 -13.666 27 -18.999s28 -8 48 -8c12.667 0 24.5 2 35.5 6s20.5 8.66699 28.5 14
c9.33301 6 18 12.667 26 20l85 -135c-14.667 -14.667 -32.667 -28 -54 -40c-18 -10 -40 -19.167 -66 -27.5s-56 -12.5 -90 -12.5c-29.333 0 -54.833 3.33301 -76.5 10s-39.834 14 -54.501 22c-17.333 9.33301 -32 20.333 -44 33c-12.667 -12.667 -28.667 -23.667 -48 -33
c-16.667 -8 -38 -15.333 -64 -22s-57 -10 -93 -10c-42.667 0 -79.167 4.16699 -109.5 12.5s-55.166 19.833 -74.499 34.5s-33.5 32 -42.5 52s-13.5 42 -13.5 66s4.5 46 13.5 66s23.167 37.333 42.5 52s44.166 26.167 74.499 34.5s66.833 12.5 109.5 12.5h80
c-2.66699 10 -7.66699 19 -15 27c-6.66699 7.33301 -15.834 13.833 -27.501 19.5s-27.5 8.5 -47.5 8.5c-12.667 0 -24.5 -2 -35.5 -6s-20.5 -8.66699 -28.5 -14c-9.33301 -6 -18 -12.667 -26 -20l-85 135c15.333 14.667 33.333 28 54 40
c17.333 10 38.666 19.167 63.999 27.5s54.333 12.5 87 12.5c31.333 0 58.5 -3.5 81.5 -10.5s42.167 -14.5 57.5 -22.5c18 -9.33301 33.333 -20 46 -32c11.333 12 25.333 22.667 42 32c13.333 8 30 15.5 50 22.5s42.667 10.5 68 10.5zM340.003 229.999
c-28 0 -48.333 -5.16797 -61 -15.501s-19 -21.833 -19 -34.5c0 -10 3.5 -18.333 10.5 -25s16.833 -10 29.5 -10c8.66699 0 17.667 2.33301 27 7c4 2.66699 8.33301 5.33398 13 8.00098v70zM670.003 309.998c0 20 -4.33105 35 -12.998 45s-19.334 15 -32.001 15
s-23.334 -5 -32.001 -15s-13 -25 -13 -45h90z" />
    <glyph glyph-name="ccedilla" unicode="&#xe7;" horiz-adv-x="560" 
d="M280 265c0 -22.667 6.99902 -40.8281 20.999 -54.4951s33.667 -20.5 59 -20.5c12.667 0 24.5 2 35.5 6s20.5 8.66699 28.5 14c9.33301 6 18 12.667 26 20l100 -160c-16 -15.333 -34.667 -29 -56 -41c-18 -10.667 -40 -20.334 -66 -29.001s-55.333 -13.667 -88 -15
l-20 -45c16 0 31.333 -3.16699 46 -9.5s27.5 -15 38.5 -26s19.667 -23.833 26 -38.5s9.5 -30 9.5 -46c0 -38 -12.667 -69.167 -38 -93.5s-59.333 -36.5 -102 -36.5h-90v100h70c7.33301 0 14.166 3.16699 20.499 9.5s9.5 13.166 9.5 20.499s-3.16699 14.166 -9.5 20.499
s-13.166 9.5 -20.499 9.5h-60l55 140c-36 4.66699 -69.167 15.167 -99.5 31.5s-56.166 36.666 -77.499 60.999s-38 52 -50 83s-18 64.167 -18 99.5c0 38.667 7.33301 75 22 109s35.167 63.667 61.5 89s57.5 45.333 93.5 60s75.333 22 118 22c36 0 68 -4.5 96 -13.5
s51.667 -18.833 71 -29.5c22 -12 41.333 -26 58 -42l-100 -160c-8 7.33301 -16.667 14 -26 20c-8 5.33301 -17.5 10 -28.5 14s-22.833 6 -35.5 6c-25.333 0 -45 -6.83301 -59 -20.5s-21 -31.834 -21 -54.501z" />
    <glyph glyph-name="egrave" unicode="&#xe8;" horiz-adv-x="610" 
d="M310 545c38.667 0 75 -7.33398 109 -22.001s63.667 -34.667 89 -60s45.333 -55 60 -89s22 -70.333 22 -109v-50h-320c2.66699 -10.667 7.66699 -20 15 -28c6 -7.33301 15 -13.666 27 -18.999s28 -8 48 -8c12.667 0 24.5 2 35.5 6s20.5 8.66699 28.5 14
c9.33301 6 18 12.667 26 20l85 -135c-14.667 -14.667 -32.667 -28 -54 -40c-18 -10 -40 -19.167 -66 -27.5s-56 -12.5 -90 -12.5c-42.667 0 -82 7.33301 -118 22s-67.167 34.667 -93.5 60s-46.833 55 -61.5 89s-22 70.333 -22 109s7.33301 75 22 109s34.667 63.667 60 89
s55 45.333 89 60s70.333 22 109 22zM355 309.999c0 20 -4.33105 35 -12.998 45s-19.334 15 -32.001 15s-23.334 -5 -32.001 -15s-13 -25 -13 -45h90zM390.002 599.999h-160l-140 210h210z" />
    <glyph glyph-name="eacute" unicode="&#xe9;" horiz-adv-x="610" 
d="M310 545c38.667 0 75 -7.33398 109 -22.001s63.667 -34.667 89 -60s45.333 -55 60 -89s22 -70.333 22 -109v-50h-320c2.66699 -10.667 7.66699 -20 15 -28c6 -7.33301 15 -13.666 27 -18.999s28 -8 48 -8c12.667 0 24.5 2 35.5 6s20.5 8.66699 28.5 14
c9.33301 6 18 12.667 26 20l85 -135c-14.667 -14.667 -32.667 -28 -54 -40c-18 -10 -40 -19.167 -66 -27.5s-56 -12.5 -90 -12.5c-42.667 0 -82 7.33301 -118 22s-67.167 34.667 -93.5 60s-46.833 55 -61.5 89s-22 70.333 -22 109s7.33301 75 22 109s34.667 63.667 60 89
s55 45.333 89 60s70.333 22 109 22zM355 309.999c0 20 -4.33105 35 -12.998 45s-19.334 15 -32.001 15s-23.334 -5 -32.001 -15s-13 -25 -13 -45h90zM310.002 809.999h210l-140 -210h-160z" />
    <glyph glyph-name="ecircumflex" unicode="&#xea;" horiz-adv-x="610" 
d="M310 545c38.667 0 75 -7.33398 109 -22.001s63.667 -34.667 89 -60s45.333 -55 60 -89s22 -70.333 22 -109v-50h-320c2.66699 -10.667 7.66699 -20 15 -28c6 -7.33301 15 -13.666 27 -18.999s28 -8 48 -8c12.667 0 24.5 2 35.5 6s20.5 8.66699 28.5 14
c9.33301 6 18 12.667 26 20l85 -135c-14.667 -14.667 -32.667 -28 -54 -40c-18 -10 -40 -19.167 -66 -27.5s-56 -12.5 -90 -12.5c-42.667 0 -82 7.33301 -118 22s-67.167 34.667 -93.5 60s-46.833 55 -61.5 89s-22 70.333 -22 109s7.33301 75 22 109s34.667 63.667 60 89
s55 45.333 89 60s70.333 22 109 22zM355 309.999c0 20 -4.33105 35 -12.998 45s-19.334 15 -32.001 15s-23.334 -5 -32.001 -15s-13 -25 -13 -45h90zM510.002 599.999h-150l-50 80l-50 -80h-150l120 170h160z" />
    <glyph glyph-name="edieresis" unicode="&#xeb;" horiz-adv-x="610" 
d="M310 545c38.667 0 75 -7.33398 109 -22.001s63.667 -34.667 89 -60s45.333 -55 60 -89s22 -70.333 22 -109v-50h-320c2.66699 -10.667 7.66699 -20 15 -28c6 -7.33301 15 -13.666 27 -18.999s28 -8 48 -8c12.667 0 24.5 2 35.5 6s20.5 8.66699 28.5 14
c9.33301 6 18 12.667 26 20l85 -135c-14.667 -14.667 -32.667 -28 -54 -40c-18 -10 -40 -19.167 -66 -27.5s-56 -12.5 -90 -12.5c-42.667 0 -82 7.33301 -118 22s-67.167 34.667 -93.5 60s-46.833 55 -61.5 89s-22 70.333 -22 109s7.33301 75 22 109s34.667 63.667 60 89
s55 45.333 89 60s70.333 22 109 22zM355 309.999c0 20 -4.33105 35 -12.998 45s-19.334 15 -32.001 15s-23.334 -5 -32.001 -15s-13 -25 -13 -45h90zM510.002 689.999c0 -25.333 -8.66699 -46.666 -26 -63.999s-38.666 -26 -63.999 -26s-46.666 8.66699 -63.999 26
s-26 38.666 -26 63.999s8.66699 46.666 26 63.999s38.666 26 63.999 26s46.666 -8.66699 63.999 -26s26 -38.666 26 -63.999zM290.002 689.999c0 -25.333 -8.66699 -46.666 -26 -63.999s-38.666 -26 -63.999 -26s-46.666 8.66699 -63.999 26s-26 38.666 -26 63.999
s8.66699 46.666 26 63.999s38.666 26 63.999 26s46.666 -8.66699 63.999 -26s26 -38.666 26 -63.999z" />
    <glyph glyph-name="igrave" unicode="&#xec;" horiz-adv-x="340" 
d="M290 530v-530h-240v530h240zM251 600h-160l-140 210h210z" />
    <glyph glyph-name="iacute" unicode="&#xed;" horiz-adv-x="340" 
d="M290 530v-530h-240v530h240zM180 810h210l-140 -210h-160z" />
    <glyph glyph-name="icircumflex" unicode="&#xee;" horiz-adv-x="340" 
d="M290 530v-530h-240v530h240zM371 600h-150l-50 80l-50 -80h-150l120 170h160z" />
    <glyph glyph-name="idieresis" unicode="&#xef;" horiz-adv-x="340" 
d="M290 530v-530h-240v530h240zM381 690c0 -25.333 -8.66699 -46.666 -26 -63.999s-38.666 -26 -63.999 -26s-46.666 8.66699 -63.999 26s-26 38.666 -26 63.999s8.66699 46.666 26 63.999s38.666 26 63.999 26s46.666 -8.66699 63.999 -26s26 -38.666 26 -63.999zM161 690
c0 -25.333 -8.66699 -46.666 -26 -63.999s-38.666 -26 -63.999 -26s-46.666 8.66699 -63.999 26s-26 38.666 -26 63.999s8.66699 46.666 26 63.999s38.666 26 63.999 26s46.666 -8.66699 63.999 -26s26 -38.666 26 -63.999z" />
    <glyph glyph-name="eth" unicode="&#xf0;" horiz-adv-x="650" 
d="M195 615l-27 1.99707c-8 0.666992 -17.167 1.33398 -27.5 2.00098s-20.5 1 -30.5 1l40 170c20 0 38.667 -0.833008 56 -2.5s32.666 -3.5 45.999 -5.5c15.333 -2.66699 29.666 -5 42.999 -7l55 85l60 -40l-40 -65c46.667 -16 88.334 -40.333 125.001 -73
c15.333 -14 30.5 -30.667 45.5 -50s28.333 -41.666 40 -66.999s21.167 -54.166 28.5 -86.499s11 -68.5 11 -108.5v-40c0 -55.333 -7.33301 -104.333 -22 -147s-35.167 -78.667 -61.5 -108s-57.5 -51.666 -93.5 -66.999s-75.333 -23 -118 -23s-82 7.33301 -118 22
s-67.167 34.667 -93.5 60s-46.833 55 -61.5 89s-22 70.333 -22 109c0 36 5.83301 69.167 17.5 99.5s27.834 56.166 48.501 77.499s45 38 73 50s58.333 18 91 18c25.333 0 47.166 -3.16699 65.499 -9.5s33.833 -13.166 46.5 -20.499
c14.667 -8.66699 27.334 -18.667 38.001 -30c0 30 -7.33301 54.667 -22 74s-30.667 34.666 -48 45.999c-20.667 12.667 -44 22.667 -70 30l-50 -80l-60 40zM270 264.997c0 -25.333 5.33301 -44.166 16 -56.499s23.667 -18.5 39 -18.5s28.333 6.16699 39 18.5
s16 31.166 16 56.499s-5.33301 44.166 -16 56.499s-23.667 18.5 -39 18.5s-28.333 -6.16699 -39 -18.5s-16 -31.166 -16 -56.499z" />
    <glyph glyph-name="ntilde" unicode="&#xf1;" horiz-adv-x="650" 
d="M430 545c24.667 0 48.001 -5.16699 70.001 -15.5s41.167 -26.166 57.5 -47.499s29.166 -48.833 38.499 -82.5s14 -73.5 14 -119.5v-280h-240v280c0 20 -4.16699 35 -12.5 45s-17.5 15 -27.5 15s-19.167 -5 -27.5 -15s-12.5 -25 -12.5 -45v-280h-240v530h230l20 -60
c8.66699 13.333 19 25.666 31 36.999c10.667 9.33301 24.167 18 40.5 26s35.833 12 58.5 12zM400.001 590c-15.333 0 -28.332 2.66699 -38.999 8s-20.334 11 -29.001 17s-16.334 11.667 -23.001 17s-13 8 -19 8c-7.33301 0 -14.166 -3.5 -20.499 -10.5
s-9.5 -16.833 -9.5 -29.5h-90v70c0 30 8.66699 54.167 26 72.5s38.666 27.5 63.999 27.5c14.667 0 27.5 -2.66699 38.5 -8s20.833 -11 29.5 -17s16.334 -11.667 23.001 -17s13 -8 19 -8c7.33301 0 14.166 3.5 20.499 10.5s9.5 16.833 9.5 29.5h90v-70
c0 -30 -8.66699 -54.167 -26 -72.5s-38.666 -27.5 -63.999 -27.5z" />
    <glyph glyph-name="ograve" unicode="&#xf2;" 
d="M30 265c0 38.667 7.5 75 22.5 109s35.833 63.667 62.5 89s58.667 45.333 96 60s78.666 22 123.999 22c44.667 0 85.834 -7.33301 123.501 -22s69.834 -34.667 96.501 -60s47.5 -55 62.5 -89s22.5 -70.333 22.5 -109s-7.5 -75 -22.5 -109s-35.833 -63.667 -62.5 -89
s-58.834 -45.333 -96.501 -60s-78.834 -22 -123.501 -22c-45.333 0 -86.666 7.33301 -123.999 22s-69.333 34.667 -96 60s-47.5 55 -62.5 89s-22.5 70.333 -22.5 109zM400 265c0 22.667 -6.5 40.834 -19.5 54.501s-28.167 20.5 -45.5 20.5s-32.5 -6.83301 -45.5 -20.5
s-19.5 -31.834 -19.5 -54.501s6.5 -40.834 19.5 -54.501s28.167 -20.5 45.5 -20.5s32.5 6.83301 45.5 20.5s19.5 31.834 19.5 54.501zM410 600h-160l-140 210h210z" />
    <glyph glyph-name="oacute" unicode="&#xf3;" 
d="M30 265c0 38.667 7.5 75 22.5 109s35.833 63.667 62.5 89s58.667 45.333 96 60s78.666 22 123.999 22c44.667 0 85.834 -7.33301 123.501 -22s69.834 -34.667 96.501 -60s47.5 -55 62.5 -89s22.5 -70.333 22.5 -109s-7.5 -75 -22.5 -109s-35.833 -63.667 -62.5 -89
s-58.834 -45.333 -96.501 -60s-78.834 -22 -123.501 -22c-45.333 0 -86.666 7.33301 -123.999 22s-69.333 34.667 -96 60s-47.5 55 -62.5 89s-22.5 70.333 -22.5 109zM400 265c0 22.667 -6.5 40.834 -19.5 54.501s-28.167 20.5 -45.5 20.5s-32.5 -6.83301 -45.5 -20.5
s-19.5 -31.834 -19.5 -54.501s6.5 -40.834 19.5 -54.501s28.167 -20.5 45.5 -20.5s32.5 6.83301 45.5 20.5s19.5 31.834 19.5 54.501zM340 810h210l-140 -210h-160z" />
    <glyph glyph-name="ocircumflex" unicode="&#xf4;" 
d="M30 265c0 38.667 7.5 75 22.5 109s35.833 63.667 62.5 89s58.667 45.333 96 60s78.666 22 123.999 22c44.667 0 85.834 -7.33301 123.501 -22s69.834 -34.667 96.501 -60s47.5 -55 62.5 -89s22.5 -70.333 22.5 -109s-7.5 -75 -22.5 -109s-35.833 -63.667 -62.5 -89
s-58.834 -45.333 -96.501 -60s-78.834 -22 -123.501 -22c-45.333 0 -86.666 7.33301 -123.999 22s-69.333 34.667 -96 60s-47.5 55 -62.5 89s-22.5 70.333 -22.5 109zM400 265c0 22.667 -6.5 40.834 -19.5 54.501s-28.167 20.5 -45.5 20.5s-32.5 -6.83301 -45.5 -20.5
s-19.5 -31.834 -19.5 -54.501s6.5 -40.834 19.5 -54.501s28.167 -20.5 45.5 -20.5s32.5 6.83301 45.5 20.5s19.5 31.834 19.5 54.501zM535 600h-150l-50 80l-50 -80h-150l120 170h160z" />
    <glyph glyph-name="otilde" unicode="&#xf5;" 
d="M30 265c0 38.667 7.5 75 22.5 109s35.833 63.667 62.5 89s58.667 45.333 96 60s78.666 22 123.999 22c44.667 0 85.834 -7.33301 123.501 -22s69.834 -34.667 96.501 -60s47.5 -55 62.5 -89s22.5 -70.333 22.5 -109s-7.5 -75 -22.5 -109s-35.833 -63.667 -62.5 -89
s-58.834 -45.333 -96.501 -60s-78.834 -22 -123.501 -22c-45.333 0 -86.666 7.33301 -123.999 22s-69.333 34.667 -96 60s-47.5 55 -62.5 89s-22.5 70.333 -22.5 109zM400 265c0 22.667 -6.5 40.834 -19.5 54.501s-28.167 20.5 -45.5 20.5s-32.5 -6.83301 -45.5 -20.5
s-19.5 -31.834 -19.5 -54.501s6.5 -40.834 19.5 -54.501s28.167 -20.5 45.5 -20.5s32.5 6.83301 45.5 20.5s19.5 31.834 19.5 54.501zM405 600c-15.333 0 -28.332 2.66699 -38.999 8s-20.334 11 -29.001 17s-16.334 11.667 -23.001 17s-13 8 -19 8
c-7.33301 0 -14.166 -3.5 -20.499 -10.5s-9.5 -16.833 -9.5 -29.5h-90v70c0 30 8.66699 54.167 26 72.5s38.666 27.5 63.999 27.5c14.667 0 27.5 -2.66699 38.5 -8s20.833 -11 29.5 -17s16.334 -11.667 23.001 -17s13 -8 19 -8c7.33301 0 14.166 3.5 20.499 10.5
s9.5 16.833 9.5 29.5h90v-70c0 -30 -8.66699 -54.167 -26 -72.5s-38.666 -27.5 -63.999 -27.5z" />
    <glyph glyph-name="odieresis" unicode="&#xf6;" 
d="M30 265c0 38.667 7.5 75 22.5 109s35.833 63.667 62.5 89s58.667 45.333 96 60s78.666 22 123.999 22c44.667 0 85.834 -7.33301 123.501 -22s69.834 -34.667 96.501 -60s47.5 -55 62.5 -89s22.5 -70.333 22.5 -109s-7.5 -75 -22.5 -109s-35.833 -63.667 -62.5 -89
s-58.834 -45.333 -96.501 -60s-78.834 -22 -123.501 -22c-45.333 0 -86.666 7.33301 -123.999 22s-69.333 34.667 -96 60s-47.5 55 -62.5 89s-22.5 70.333 -22.5 109zM400 265c0 22.667 -6.5 40.834 -19.5 54.501s-28.167 20.5 -45.5 20.5s-32.5 -6.83301 -45.5 -20.5
s-19.5 -31.834 -19.5 -54.501s6.5 -40.834 19.5 -54.501s28.167 -20.5 45.5 -20.5s32.5 6.83301 45.5 20.5s19.5 31.834 19.5 54.501zM535 690c0 -25.333 -8.66699 -46.666 -26 -63.999s-38.666 -26 -63.999 -26s-46.666 8.66699 -63.999 26s-26 38.666 -26 63.999
s8.66699 46.666 26 63.999s38.666 26 63.999 26s46.666 -8.66699 63.999 -26s26 -38.666 26 -63.999zM315 690c0 -25.333 -8.66699 -46.666 -26 -63.999s-38.666 -26 -63.999 -26s-46.666 8.66699 -63.999 26s-26 38.666 -26 63.999s8.66699 46.666 26 63.999
s38.666 26 63.999 26s46.666 -8.66699 63.999 -26s26 -38.666 26 -63.999z" />
    <glyph glyph-name="divide" unicode="&#xf7;" horiz-adv-x="490" 
d="M30 420h430v-190h-430v190zM350 170v-150h-210v150h210zM350 630v-150h-210v150h210z" />
    <glyph glyph-name="oslash" unicode="&#xf8;" 
d="M335 350c-20 0 -37.5 -7.83203 -52.5 -23.499s-22.5 -35.834 -22.5 -60.501v-11l90 95h-15zM335 545.001c25.333 0 47.6709 -2 67.0039 -6s36 -8.66699 50 -14c16 -6 30.333 -12.667 43 -20l60 65l60 -60l-50 -55c13.333 -13.333 25.666 -29.333 36.999 -48
c9.33301 -16 18 -35.833 26 -59.5s12 -51.167 12 -82.5c0 -38.667 -7.5 -75 -22.5 -109s-35.833 -63.667 -62.5 -89s-58.834 -45.333 -96.501 -60s-78.834 -22 -123.501 -22c-25.333 0 -48 2 -68 6s-36.667 8.66699 -50 14c-16.667 6 -30.667 12.667 -42 20l-60 -65l-60 60
l50 55c-14 13.333 -26.667 29.333 -38 48c-9.33301 16 -17.833 35.667 -25.5 59s-11.5 51 -11.5 83c0 38.667 7.5 75 22.5 109s35.833 63.667 62.5 89s58.667 45.333 96 60s78.666 22 123.999 22zM335.005 180.001c20 0 37.5 7.83203 52.5 23.499s22.5 35.834 22.5 60.501
v11l-90 -95h15z" />
    <glyph glyph-name="ugrave" unicode="&#xf9;" horiz-adv-x="660" 
d="M230 -15c-25.333 0 -48.834 5.16797 -70.501 15.501s-40.667 26.166 -57 47.499s-29.166 48.833 -38.499 82.5s-14 73.5 -14 119.5v280h240v-280c0 -20 4.16699 -35 12.5 -45s17.5 -15 27.5 -15s19.167 5 27.5 15s12.5 25 12.5 45v280h240v-530h-230l-20 60
c-8.66699 -14 -19 -26.667 -31 -38c-10.667 -9.33301 -24.167 -17.833 -40.5 -25.5s-35.833 -11.5 -58.5 -11.5zM409.999 600.001h-160l-140 210h210z" />
    <glyph glyph-name="uacute" unicode="&#xfa;" horiz-adv-x="660" 
d="M230 -15c-25.333 0 -48.834 5.16797 -70.501 15.501s-40.667 26.166 -57 47.499s-29.166 48.833 -38.499 82.5s-14 73.5 -14 119.5v280h240v-280c0 -20 4.16699 -35 12.5 -45s17.5 -15 27.5 -15s19.167 5 27.5 15s12.5 25 12.5 45v280h240v-530h-230l-20 60
c-8.66699 -14 -19 -26.667 -31 -38c-10.667 -9.33301 -24.167 -17.833 -40.5 -25.5s-35.833 -11.5 -58.5 -11.5zM339.999 810.001h210l-140 -210h-160z" />
    <glyph glyph-name="ucircumflex" unicode="&#xfb;" horiz-adv-x="660" 
d="M230 -15c-25.333 0 -48.834 5.16797 -70.501 15.501s-40.667 26.166 -57 47.499s-29.166 48.833 -38.499 82.5s-14 73.5 -14 119.5v280h240v-280c0 -20 4.16699 -35 12.5 -45s17.5 -15 27.5 -15s19.167 5 27.5 15s12.5 25 12.5 45v280h240v-530h-230l-20 60
c-8.66699 -14 -19 -26.667 -31 -38c-10.667 -9.33301 -24.167 -17.833 -40.5 -25.5s-35.833 -11.5 -58.5 -11.5zM529.999 600.001h-150l-50 80l-50 -80h-150l120 170h160z" />
    <glyph glyph-name="udieresis" unicode="&#xfc;" horiz-adv-x="660" 
d="M230 -15c-25.333 0 -48.834 5.16797 -70.501 15.501s-40.667 26.166 -57 47.499s-29.166 48.833 -38.499 82.5s-14 73.5 -14 119.5v280h240v-280c0 -20 4.16699 -35 12.5 -45s17.5 -15 27.5 -15s19.167 5 27.5 15s12.5 25 12.5 45v280h240v-530h-230l-20 60
c-8.66699 -14 -19 -26.667 -31 -38c-10.667 -9.33301 -24.167 -17.833 -40.5 -25.5s-35.833 -11.5 -58.5 -11.5zM529.999 690.001c0 -25.333 -8.66699 -46.666 -26 -63.999s-38.666 -26 -63.999 -26s-46.666 8.66699 -63.999 26s-26 38.666 -26 63.999
s8.66699 46.666 26 63.999s38.666 26 63.999 26s46.666 -8.66699 63.999 -26s26 -38.666 26 -63.999zM309.999 690.001c0 -25.333 -8.66699 -46.666 -26 -63.999s-38.666 -26 -63.999 -26s-46.666 8.66699 -63.999 26s-26 38.666 -26 63.999s8.66699 46.666 26 63.999
s38.666 26 63.999 26s46.666 -8.66699 63.999 -26s26 -38.666 26 -63.999z" />
    <glyph glyph-name="yacute" unicode="&#xfd;" horiz-adv-x="590" 
d="M175 0l-175.001 529.999h250l45 -280l45 280h250l-190 -570c-15.333 -45.333 -31.333 -83.833 -48 -115.5s-35.167 -57.5 -55.5 -77.5s-42.833 -34.5 -67.5 -43.5s-52.667 -13.5 -84 -13.5c-17.333 0 -33.833 2 -49.5 6s-29.5 8.66699 -41.5 14c-14 6 -27 12.667 -39 20
l55 175c3.33301 -2 6.66602 -3.66699 9.99902 -5c6.66699 -3.33301 15 -5 25 -5c12.667 0 23.834 4.33301 33.501 13s16.834 19.334 21.501 32.001zM299.999 809.999h210l-140 -210h-160z" />
    <glyph glyph-name="thorn" unicode="&#xfe;" 
d="M390 265c0 25.333 -5.33301 44.166 -16 56.499s-23.667 18.5 -39 18.5s-28.333 -6.16699 -39 -18.5s-16 -31.166 -16 -56.499s5.33301 -44.166 16 -56.499s23.667 -18.5 39 -18.5s28.333 6.16699 39 18.5s16 31.166 16 56.499zM290 740v-269.998
c8 13.333 18.667 25.666 32 36.999c11.333 9.33301 25.833 18 43.5 26s39.167 12 64.5 12c27.333 0 53.666 -6.16699 78.999 -18.5s47.666 -30.333 66.999 -54s34.833 -53 46.5 -88s17.5 -74.833 17.5 -119.5c0 -45.333 -5.83301 -85.333 -17.5 -120
s-27.167 -63.834 -46.5 -87.501s-41.666 -41.667 -66.999 -54s-51.666 -18.5 -78.999 -18.5c-25.333 0 -46.833 3.83301 -64.5 11.5s-32.167 16.167 -43.5 25.5c-13.333 11.333 -24 24 -32 38v-310h-240v990h240z" />
    <glyph glyph-name="ydieresis" unicode="&#xff;" horiz-adv-x="590" 
d="M175 0l-175.001 529.999h250l45 -280l45 280h250l-190 -570c-15.333 -45.333 -31.333 -83.833 -48 -115.5s-35.167 -57.5 -55.5 -77.5s-42.833 -34.5 -67.5 -43.5s-52.667 -13.5 -84 -13.5c-17.333 0 -33.833 2 -49.5 6s-29.5 8.66699 -41.5 14c-14 6 -27 12.667 -39 20
l55 175c3.33301 -2 6.66602 -3.66699 9.99902 -5c6.66699 -3.33301 15 -5 25 -5c12.667 0 23.834 4.33301 33.501 13s16.834 19.334 21.501 32.001zM499.999 689.999c0 -25.333 -8.66699 -46.666 -26 -63.999s-38.666 -26 -63.999 -26s-46.666 8.66699 -63.999 26
s-26 38.666 -26 63.999s8.66699 46.666 26 63.999s38.666 26 63.999 26s46.666 -8.66699 63.999 -26s26 -38.666 26 -63.999zM279.999 689.999c0 -25.333 -8.66699 -46.666 -26 -63.999s-38.666 -26 -63.999 -26s-46.666 8.66699 -63.999 26s-26 38.666 -26 63.999
s8.66699 46.666 26 63.999s38.666 26 63.999 26s46.666 -8.66699 63.999 -26s26 -38.666 26 -63.999z" />
    <glyph glyph-name="Amacron" unicode="&#x100;" horiz-adv-x="770" 
d="M555 700c0 -0.666992 3 -11.167 9 -31.5l23.5 -80l33 -112.5l37.5 -128l102 -348h-290l-20 100h-130l-20 -100h-290l205 700h340zM420 260l-35 180l-35 -180h70zM230 920h310v-140h-310v140z" />
    <glyph glyph-name="amacron" unicode="&#x101;" horiz-adv-x="620" 
d="M285 545c42.667 0 82.001 -7.33301 118.001 -22s67.167 -34.667 93.5 -60s46.833 -55 61.5 -89s22 -70.333 22 -109v-265h-230l-20 60c-8.66699 -14 -19 -26.667 -31 -38c-10.667 -9.33301 -24.167 -17.833 -40.5 -25.5s-35.833 -11.5 -58.5 -11.5
c-27.333 0 -52.166 4.16699 -74.499 12.5s-41.333 19.833 -57 34.5s-27.667 32 -36 52s-12.5 42 -12.5 66s4.5 46 13.5 66s23.167 37.333 42.5 52s44.166 26.167 74.499 34.5s66.833 12.5 109.5 12.5h80c-2.66699 10 -7.66699 19 -15 27
c-6.66699 7.33301 -15.834 13.833 -27.501 19.5s-27.5 8.5 -47.5 8.5c-12.667 0 -24.5 -2 -35.5 -6s-20.5 -8.66699 -28.5 -14c-9.33301 -6 -18 -12.667 -26 -20l-85 135c14.667 14.667 32.667 28 54 40c18 10 40 19.167 66 27.5s56 12.5 90 12.5zM290.001 145
c12.667 0 24.168 6.66602 34.501 19.999s15.5 35 15.5 65c-28 0 -48.333 -5.33301 -61 -16s-19 -23.667 -19 -39c0 -7.33301 3.16699 -14.166 9.5 -20.499s13.166 -9.5 20.499 -9.5zM180.002 749.999h310v-140h-310v140z" />
    <glyph glyph-name="Abreve" unicode="&#x102;" horiz-adv-x="770" 
d="M555 700c0 -0.666992 3 -11.167 9 -31.5l23.5 -80l33 -112.5l37.5 -128l102 -348h-290l-20 100h-130l-20 -100h-290l205 700h340zM420 260l-35 180l-35 -180h70zM385 920c26.667 0 40 13.333 40 40h150c0 -58 -17.167 -104.167 -51.5 -138.5s-80.5 -51.5 -138.5 -51.5
s-104.167 17.167 -138.5 51.5s-51.5 80.5 -51.5 138.5h150c0 -26.667 13.333 -40 40 -40z" />
    <glyph glyph-name="abreve" unicode="&#x103;" horiz-adv-x="620" 
d="M285 545c42.667 0 82.001 -7.33301 118.001 -22s67.167 -34.667 93.5 -60s46.833 -55 61.5 -89s22 -70.333 22 -109v-265h-230l-20 60c-8.66699 -14 -19 -26.667 -31 -38c-10.667 -9.33301 -24.167 -17.833 -40.5 -25.5s-35.833 -11.5 -58.5 -11.5
c-27.333 0 -52.166 4.16699 -74.499 12.5s-41.333 19.833 -57 34.5s-27.667 32 -36 52s-12.5 42 -12.5 66s4.5 46 13.5 66s23.167 37.333 42.5 52s44.166 26.167 74.499 34.5s66.833 12.5 109.5 12.5h80c-2.66699 10 -7.66699 19 -15 27
c-6.66699 7.33301 -15.834 13.833 -27.501 19.5s-27.5 8.5 -47.5 8.5c-12.667 0 -24.5 -2 -35.5 -6s-20.5 -8.66699 -28.5 -14c-9.33301 -6 -18 -12.667 -26 -20l-85 135c14.667 14.667 32.667 28 54 40c18 10 40 19.167 66 27.5s56 12.5 90 12.5zM290.001 145
c12.667 0 24.168 6.66602 34.501 19.999s15.5 35 15.5 65c-28 0 -48.333 -5.33301 -61 -16s-19 -23.667 -19 -39c0 -7.33301 3.16699 -14.166 9.5 -20.499s13.166 -9.5 20.499 -9.5zM340.002 749.999c26.667 0 40 13.333 40 40h150c0 -58 -17.167 -104.167 -51.5 -138.5
s-80.5 -51.5 -138.5 -51.5s-104.167 17.167 -138.5 51.5s-51.5 80.5 -51.5 138.5h150c0 -26.667 13.333 -40 40 -40z" />
    <glyph glyph-name="Aogonek" unicode="&#x104;" horiz-adv-x="770" 
d="M760 0c-18.667 -15.333 -35.332 -30.666 -49.999 -45.999c-12.667 -13.333 -24.167 -27.5 -34.5 -42.5s-15.5 -28.833 -15.5 -41.5c0 -5.33301 2 -10 6 -14s8.66699 -6 14 -6h60v-120h-100c-17.333 0 -33.333 2.83301 -48 8.5s-27.334 13.5 -38.001 23.5
s-19 21.667 -25 35s-9 27.666 -9 42.999c0 14 2.33301 26.833 7 38.5s11 22.5 19 32.5s17.167 19.167 27.5 27.5s20.833 15.833 31.5 22.5c24.667 15.333 53 28.333 85 39h-220l-20 100h-130l-20 -100h-290l205 700h340c0 -0.666992 3 -11.167 9 -31.5l23.5 -80l33 -112.5
l37.5 -128zM420.002 260l-35 180l-35 -180h70z" />
    <glyph glyph-name="aogonek" unicode="&#x105;" horiz-adv-x="620" 
d="M285 545c42.667 0 82.0029 -7.33301 118.003 -22s67.167 -34.667 93.5 -60s46.833 -55 61.5 -89s22 -70.333 22 -109v-265c-18.667 -15.333 -35.334 -30.666 -50.001 -45.999c-12.667 -13.333 -24.167 -27.5 -34.5 -42.5s-15.5 -28.833 -15.5 -41.5
c0 -5.33301 2 -10 6 -14s8.66699 -6 14 -6h60v-120h-100c-17.333 0 -33.333 2.83301 -48 8.5s-27.334 13.5 -38.001 23.5s-19 21.667 -25 35s-9 27.666 -9 42.999c0 14 2.33301 26.833 7 38.5s11 22.5 19 32.5s17.167 19.167 27.5 27.5s20.833 15.833 31.5 22.5
c24.667 15.333 53 28.333 85 39h-160l-20 60c-8.66699 -14 -19 -26.667 -31 -38c-10.667 -9.33301 -24.167 -17.833 -40.5 -25.5s-35.833 -11.5 -58.5 -11.5c-27.333 0 -52.166 4.16699 -74.499 12.5s-41.333 19.833 -57 34.5s-27.667 32 -36 52s-12.5 42 -12.5 66
s4.5 46 13.5 66s23.167 37.333 42.5 52s44.166 26.167 74.499 34.5s66.833 12.5 109.5 12.5h80c-2.66699 10 -7.66699 19 -15 27c-6.66699 7.33301 -15.834 13.833 -27.501 19.5s-27.5 8.5 -47.5 8.5c-12.667 0 -24.5 -2 -35.5 -6s-20.5 -8.66699 -28.5 -14
c-9.33301 -6 -18 -12.667 -26 -20l-85 135c14.667 14.667 32.667 28 54 40c18 10 40 19.167 66 27.5s56 12.5 90 12.5zM290.003 145c12.667 0 24.168 6.66602 34.501 19.999s15.5 35 15.5 65c-28 0 -48.333 -5.33301 -61 -16s-19 -23.667 -19 -39
c0 -7.33301 3.16699 -14.166 9.5 -20.499s13.166 -9.5 20.499 -9.5z" />
    <glyph glyph-name="Cacute" unicode="&#x106;" horiz-adv-x="710" 
d="M40 350c0 51.333 9.5 99.167 28.5 143.5s45 83 78 116s72 58.833 117 77.5s93.833 28 146.5 28c48 0 89.333 -5.83301 124 -17.5s63.667 -24.167 87 -37.5c26.667 -16.667 49.667 -35 69 -55l-120 -190c-12 10 -25 19 -39 27c-12 7.33301 -25.833 13.833 -41.5 19.5
s-32.167 8.5 -49.5 8.5c-35.333 0 -64.166 -11.167 -86.499 -33.5s-33.5 -51.166 -33.5 -86.499s11.167 -64.166 33.5 -86.499s51.166 -33.5 86.499 -33.5c17.333 0 33.833 2.66699 49.5 8s29.5 11.666 41.5 18.999c14 8 27 17.333 39 28l120 -190
c-19.333 -20.667 -42.333 -39 -69 -55c-23.333 -14 -52.333 -26.667 -87 -38s-76 -17 -124 -17c-52.667 0 -101.5 9.33301 -146.5 28s-84 44.5 -117 77.5s-59 71.667 -78 116s-28.5 92.166 -28.5 143.499zM400 980.001h210l-140 -210h-160z" />
    <glyph glyph-name="cacute" unicode="&#x107;" horiz-adv-x="560" 
d="M280 265c0 -22.667 7 -40.8311 21 -54.498s33.667 -20.5 59 -20.5c12.667 0 24.5 2 35.5 6s20.5 8.66699 28.5 14c9.33301 6 18 12.667 26 20l100 -160c-16.667 -16.667 -36 -31 -58 -43c-19.333 -10.667 -43 -20.334 -71 -29.001s-60 -13 -96 -13
c-42.667 0 -82 7.33301 -118 22s-67.167 34.667 -93.5 60s-46.833 55 -61.5 89s-22 70.333 -22 109s7.33301 75 22 109s35.167 63.667 61.5 89s57.5 45.333 93.5 60s75.333 22 118 22c36 0 68 -4.5 96 -13.5s51.667 -18.833 71 -29.5c22 -12 41.333 -26 58 -42l-100 -160
c-8 7.33301 -16.667 14 -26 20c-8 5.33301 -17.5 10 -28.5 14s-22.833 6 -35.5 6c-25.333 0 -45 -6.83301 -59 -20.5s-21 -31.834 -21 -54.501zM310 810.003h210l-140 -210h-160z" />
    <glyph glyph-name="Ccircumflex" unicode="&#x108;" horiz-adv-x="710" 
d="M40 350c0 51.333 9.5 99.167 28.5 143.5s45 83 78 116s72 58.833 117 77.5s93.833 28 146.5 28c48 0 89.333 -5.83301 124 -17.5s63.667 -24.167 87 -37.5c26.667 -16.667 49.667 -35 69 -55l-120 -190c-12 10 -25 19 -39 27c-12 7.33301 -25.833 13.833 -41.5 19.5
s-32.167 8.5 -49.5 8.5c-35.333 0 -64.166 -11.167 -86.499 -33.5s-33.5 -51.166 -33.5 -86.499s11.167 -64.166 33.5 -86.499s51.166 -33.5 86.499 -33.5c17.333 0 33.833 2.66699 49.5 8s29.5 11.666 41.5 18.999c14 8 27 17.333 39 28l120 -190
c-19.333 -20.667 -42.333 -39 -69 -55c-23.333 -14 -52.333 -26.667 -87 -38s-76 -17 -124 -17c-52.667 0 -101.5 9.33301 -146.5 28s-84 44.5 -117 77.5s-59 71.667 -78 116s-28.5 92.166 -28.5 143.499zM580 770.001h-150l-50 80l-50 -80h-150l120 170h160z" />
    <glyph glyph-name="ccircumflex" unicode="&#x109;" horiz-adv-x="560" 
d="M280 265c0 -22.667 7 -40.8311 21 -54.498s33.667 -20.5 59 -20.5c12.667 0 24.5 2 35.5 6s20.5 8.66699 28.5 14c9.33301 6 18 12.667 26 20l100 -160c-16.667 -16.667 -36 -31 -58 -43c-19.333 -10.667 -43 -20.334 -71 -29.001s-60 -13 -96 -13
c-42.667 0 -82 7.33301 -118 22s-67.167 34.667 -93.5 60s-46.833 55 -61.5 89s-22 70.333 -22 109s7.33301 75 22 109s35.167 63.667 61.5 89s57.5 45.333 93.5 60s75.333 22 118 22c36 0 68 -4.5 96 -13.5s51.667 -18.833 71 -29.5c22 -12 41.333 -26 58 -42l-100 -160
c-8 7.33301 -16.667 14 -26 20c-8 5.33301 -17.5 10 -28.5 14s-22.833 6 -35.5 6c-25.333 0 -45 -6.83301 -59 -20.5s-21 -31.834 -21 -54.501zM520 600.003h-150l-50 80l-50 -80h-150l120 170h160z" />
    <glyph glyph-name="Ccaron" unicode="&#x10c;" horiz-adv-x="710" 
d="M40 350c0 51.333 9.5 99.167 28.5 143.5s45 83 78 116s72 58.833 117 77.5s93.833 28 146.5 28c48 0 89.333 -5.83301 124 -17.5s63.667 -24.167 87 -37.5c26.667 -16.667 49.667 -35 69 -55l-120 -190c-12 10 -25 19 -39 27c-12 7.33301 -25.833 13.833 -41.5 19.5
s-32.167 8.5 -49.5 8.5c-35.333 0 -64.166 -11.167 -86.499 -33.5s-33.5 -51.166 -33.5 -86.499s11.167 -64.166 33.5 -86.499s51.166 -33.5 86.499 -33.5c17.333 0 33.833 2.66699 49.5 8s29.5 11.666 41.5 18.999c14 8 27 17.333 39 28l120 -190
c-19.333 -20.667 -42.333 -39 -69 -55c-23.333 -14 -52.333 -26.667 -87 -38s-76 -17 -124 -17c-52.667 0 -101.5 9.33301 -146.5 28s-84 44.5 -117 77.5s-59 71.667 -78 116s-28.5 92.166 -28.5 143.499zM470 770.001h-160l-120 170h150l50 -80l50 80h150z" />
    <glyph glyph-name="ccaron" unicode="&#x10d;" horiz-adv-x="560" 
d="M280 265c0 -22.667 7 -40.8311 21 -54.498s33.667 -20.5 59 -20.5c12.667 0 24.5 2 35.5 6s20.5 8.66699 28.5 14c9.33301 6 18 12.667 26 20l100 -160c-16.667 -16.667 -36 -31 -58 -43c-19.333 -10.667 -43 -20.334 -71 -29.001s-60 -13 -96 -13
c-42.667 0 -82 7.33301 -118 22s-67.167 34.667 -93.5 60s-46.833 55 -61.5 89s-22 70.333 -22 109s7.33301 75 22 109s35.167 63.667 61.5 89s57.5 45.333 93.5 60s75.333 22 118 22c36 0 68 -4.5 96 -13.5s51.667 -18.833 71 -29.5c22 -12 41.333 -26 58 -42l-100 -160
c-8 7.33301 -16.667 14 -26 20c-8 5.33301 -17.5 10 -28.5 14s-22.833 6 -35.5 6c-25.333 0 -45 -6.83301 -59 -20.5s-21 -31.834 -21 -54.501zM390 600.003h-160l-120 170h150l50 -80l50 80h150z" />
    <glyph glyph-name="Dcaron" unicode="&#x10e;" horiz-adv-x="800" 
d="M360 210c38 0 67.5 11.333 88.5 34s31.5 58 31.5 106s-10.5 83.333 -31.5 106s-50.5 34 -88.5 34h-40v-280h40zM760 350c0 -54 -8.33301 -103 -25 -147s-41.667 -81.833 -75 -113.5s-75 -56.167 -125 -73.5s-108.333 -26 -175 -26c-40 0 -78 0.5 -114 1.5
s-68 2.16699 -96 3.5c-32 1.33301 -62 3 -90 5v700c28 1.33301 58 3 90 5c28 1.33301 60 2.5 96 3.5s74 1.5 114 1.5c66.667 0 125 -8.66699 175 -26s91.667 -41.833 125 -73.5s58.333 -69.5 75 -113.5s25 -93 25 -147zM470 770h-160l-120 170h150l50 -80l50 80h150z" />
    <glyph glyph-name="dcaron" unicode="&#x10f;" horiz-adv-x="830" 
d="M30 265c0 44.667 5.83301 84.498 17.5 119.498s27.167 64.333 46.5 88s41.666 41.667 66.999 54s51.666 18.5 78.999 18.5c25.333 0 46.666 -4 63.999 -12s31.666 -16.667 42.999 -26c12.667 -11.333 23.667 -23.666 33 -36.999v270h240v-740h-220l-20 60
c-9.33301 -14 -20.333 -26.667 -33 -38c-11.333 -9.33301 -25.666 -17.833 -42.999 -25.5s-38.666 -11.5 -63.999 -11.5c-27.333 0 -53.666 6.16699 -78.999 18.5s-47.666 30.333 -66.999 54s-34.833 52.834 -46.5 87.501s-17.5 74.667 -17.5 120zM280 264.998
c0 -25.333 5.33301 -44.166 16 -56.499s23.667 -18.5 39 -18.5s28.333 6.16699 39 18.5s16 31.166 16 56.499s-5.33301 44.166 -16 56.499s-23.667 18.5 -39 18.5s-28.333 -6.16699 -39 -18.5s-16 -31.166 -16 -56.499zM850 589.998l-70 -150h-80l40 120h-80v180h190v-150z
" />
    <glyph glyph-name="Dcroat" unicode="&#x110;" horiz-adv-x="800" 
d="M360 210c38 0 67.5 11.333 88.5 34s31.5 58 31.5 106s-10.5 83.333 -31.5 106s-50.5 34 -88.5 34h-40v-280h40zM760 350c0 -54 -8.33301 -103 -25 -147s-41.667 -81.833 -75 -113.5s-75 -56.167 -125 -73.5s-108.333 -26 -175 -26c-40 0 -78 0.5 -114 1.5
s-68 2.16699 -96 3.5c-32 1.33301 -62 3 -90 5v700c28 1.33301 58 3 90 5c28 1.33301 60 2.5 96 3.5s74 1.5 114 1.5c66.667 0 125 -8.66699 175 -26s91.667 -41.833 125 -73.5s58.333 -69.5 75 -113.5s25 -93 25 -147zM240 910h310v-140h-310v140z" />
    <glyph glyph-name="dcroat" unicode="&#x111;" horiz-adv-x="690" 
d="M620 0l-220 -0.000976562l-20 60c-9.33301 -14 -20.333 -26.667 -33 -38c-11.333 -9.33301 -25.666 -17.833 -42.999 -25.5s-38.666 -11.5 -63.999 -11.5c-27.333 0 -53.666 6 -78.999 18s-47.666 29.333 -66.999 52s-34.833 50 -46.5 82s-17.5 68 -17.5 108
s5.83301 76 17.5 108s27.167 59.333 46.5 82s41.666 40 66.999 52s51.666 18 78.999 18c25.333 0 46.666 -4 63.999 -12s31.666 -16.667 42.999 -26c12.667 -11.333 23.667 -23.666 33 -36.999v100h-100v130h100v80h240v-80h70v-130h-70v-530zM280 244.999
c0 -15.333 5.33301 -28.333 16 -39s23.667 -16 39 -16s28.333 5.33301 39 16s16 23.667 16 39s-5.33301 28.333 -16 39s-23.667 16 -39 16s-28.333 -5.33301 -39 -16s-16 -23.667 -16 -39z" />
    <glyph glyph-name="Emacron" unicode="&#x112;" horiz-adv-x="650" 
d="M320 200h300v-200h-560v700h540v-200h-280v-50h260v-200h-260v-50zM180 930h310v-140h-310v140z" />
    <glyph glyph-name="emacron" unicode="&#x113;" horiz-adv-x="610" 
d="M310 545c38.667 0 75 -7.33398 109 -22.001s63.667 -34.667 89 -60s45.333 -55 60 -89s22 -70.333 22 -109v-50h-320c2.66699 -10.667 7.66699 -20 15 -28c6 -7.33301 15 -13.666 27 -18.999s28 -8 48 -8c12.667 0 24.5 2 35.5 6s20.5 8.66699 28.5 14
c9.33301 6 18 12.667 26 20l85 -135c-14.667 -14.667 -32.667 -28 -54 -40c-18 -10 -40 -19.167 -66 -27.5s-56 -12.5 -90 -12.5c-42.667 0 -82 7.33301 -118 22s-67.167 34.667 -93.5 60s-46.833 55 -61.5 89s-22 70.333 -22 109s7.33301 75 22 109s34.667 63.667 60 89
s55 45.333 89 60s70.333 22 109 22zM355 309.999c0 20 -4.33105 35 -12.998 45s-19.334 15 -32.001 15s-23.334 -5 -32.001 -15s-13 -25 -13 -45h90zM155.002 739.999h310v-140h-310v140z" />
    <glyph glyph-name="Edotaccent" unicode="&#x116;" horiz-adv-x="650" 
d="M320 200h300v-200h-560v700h540v-200h-280v-50h260v-200h-260v-50zM240 870c0 28 9.66699 51.667 29 71s43 29 71 29s51.667 -9.66699 71 -29s29 -43 29 -71s-9.66699 -51.667 -29 -71s-43 -29 -71 -29s-51.667 9.66699 -71 29s-29 43 -29 71z" />
    <glyph glyph-name="edotaccent" unicode="&#x117;" horiz-adv-x="610" 
d="M310 545c38.667 0 75 -7.33398 109 -22.001s63.667 -34.667 89 -60s45.333 -55 60 -89s22 -70.333 22 -109v-50h-320c2.66699 -10.667 7.66699 -20 15 -28c6 -7.33301 15 -13.666 27 -18.999s28 -8 48 -8c12.667 0 24.5 2 35.5 6s20.5 8.66699 28.5 14
c9.33301 6 18 12.667 26 20l85 -135c-14.667 -14.667 -32.667 -28 -54 -40c-18 -10 -40 -19.167 -66 -27.5s-56 -12.5 -90 -12.5c-42.667 0 -82 7.33301 -118 22s-67.167 34.667 -93.5 60s-46.833 55 -61.5 89s-22 70.333 -22 109s7.33301 75 22 109s34.667 63.667 60 89
s55 45.333 89 60s70.333 22 109 22zM355 309.999c0 20 -4.33105 35 -12.998 45s-19.334 15 -32.001 15s-23.334 -5 -32.001 -15s-13 -25 -13 -45h90zM210.002 699.999c0 28 9.66699 51.667 29 71s43 29 71 29s51.667 -9.66699 71 -29s29 -43 29 -71
s-9.66699 -51.667 -29 -71s-43 -29 -71 -29s-51.667 9.66699 -71 29s-29 43 -29 71z" />
    <glyph glyph-name="Eogonek" unicode="&#x118;" horiz-adv-x="650" 
d="M320 200h300.002v-200h-180c-18.667 -15.333 -35.334 -30.666 -50.001 -45.999c-12.667 -13.333 -24.167 -27.5 -34.5 -42.5s-15.5 -28.833 -15.5 -41.5c0 -5.33301 2 -10 6 -14s8.66699 -6 14 -6h60v-120h-100c-17.333 0 -33.333 2.83301 -48 8.5
s-27.334 13.5 -38.001 23.5s-19 21.667 -25 35s-9 27.666 -9 42.999c0 14 2.33301 26.833 7 38.5s11 22.5 19 32.5s17.167 19.167 27.5 27.5s20.833 15.833 31.5 22.5c24.667 15.333 53 28.333 85 39h-310v700h540v-200h-280v-50h260v-200h-260v-50z" />
    <glyph glyph-name="eogonek" unicode="&#x119;" horiz-adv-x="610" 
d="M310 545c38.667 0 75.001 -7.33203 109.001 -21.999s63.667 -34.667 89 -60s45.333 -55 60 -89s22 -70.333 22 -109v-50h-320c2.66699 -10.667 7.66699 -20 15 -28c6 -7.33301 15 -13.666 27 -18.999s28 -8 48 -8c12.667 0 24.5 2 35.5 6s20.5 8.66699 28.5 14
c9.33301 6 18 12.667 26 20l85 -135l-35 -21c-10.667 -6.66699 -22.834 -13.834 -36.501 -21.501s-28.167 -15.167 -43.5 -22.5c-10 -5.33301 -20.833 -12.666 -32.5 -21.999s-22.5 -20 -32.5 -32s-18.333 -24.5 -25 -37.5s-10 -25.833 -10 -38.5c0 -5.33301 2 -10 6 -14
s8.66699 -6 14 -6h60v-120h-100c-17.333 0 -33.333 2.83301 -48 8.5s-27.334 13.5 -38.001 23.5s-19 21.667 -25 35s-9 27.666 -9 42.999c0 20 6.66699 38.667 20 56s28.333 32.666 45 45.999c18.667 15.333 40.334 29.666 65.001 42.999
c-40 1.33301 -77.167 9.33301 -111.5 24s-64 34.5 -89 59.5s-44.5 54.333 -58.5 88s-21 69.834 -21 108.501s7.33301 75 22 109s34.667 63.667 60 89s55 45.333 89 60s70.333 22 109 22zM355.001 310.001c0 20 -4.33105 35 -12.998 45s-19.334 15 -32.001 15
s-23.334 -5 -32.001 -15s-13 -25 -13 -45h90z" />
    <glyph glyph-name="Ecaron" unicode="&#x11a;" horiz-adv-x="650" 
d="M320 200h300v-200h-560v700h540v-200h-280v-50h260v-200h-260v-50zM410 770h-160l-120 170h150l50 -80l50 80h150z" />
    <glyph glyph-name="ecaron" unicode="&#x11b;" horiz-adv-x="610" 
d="M310 545c38.667 0 75 -7.33398 109 -22.001s63.667 -34.667 89 -60s45.333 -55 60 -89s22 -70.333 22 -109v-50h-320c2.66699 -10.667 7.66699 -20 15 -28c6 -7.33301 15 -13.666 27 -18.999s28 -8 48 -8c12.667 0 24.5 2 35.5 6s20.5 8.66699 28.5 14
c9.33301 6 18 12.667 26 20l85 -135c-14.667 -14.667 -32.667 -28 -54 -40c-18 -10 -40 -19.167 -66 -27.5s-56 -12.5 -90 -12.5c-42.667 0 -82 7.33301 -118 22s-67.167 34.667 -93.5 60s-46.833 55 -61.5 89s-22 70.333 -22 109s7.33301 75 22 109s34.667 63.667 60 89
s55 45.333 89 60s70.333 22 109 22zM355 309.999c0 20 -4.33105 35 -12.998 45s-19.334 15 -32.001 15s-23.334 -5 -32.001 -15s-13 -25 -13 -45h90zM390.002 599.999h-160l-120 170h150l50 -80l50 80h150z" />
    <glyph glyph-name="Gbreve" unicode="&#x11e;" horiz-adv-x="740" 
d="M460 230l-0.000976562 119.999h240v-245c-19.333 -22.667 -42.666 -42.667 -69.999 -60c-24 -15.333 -54.167 -29.166 -90.5 -41.499s-79.5 -18.5 -129.5 -18.5c-52.667 0 -101.5 9.33301 -146.5 28s-84 44.5 -117 77.5s-59 71.667 -78 116s-28.5 92.166 -28.5 143.499
s9.5 99.166 28.5 143.499s45 83 78 116s72 58.833 117 77.5s93.833 28 146.5 28c48 0 89.333 -5.83301 124 -17.5s63.667 -24.167 87 -37.5c26.667 -16.667 49.667 -35 69 -55l-120 -190c-12 10 -25 19 -39 27c-12 7.33301 -25.833 13.833 -41.5 19.5s-32.167 8.5 -49.5 8.5
c-35.333 0 -64.166 -11.167 -86.499 -33.5s-33.5 -51.166 -33.5 -86.499s11.167 -64.166 33.5 -86.499s51.166 -33.5 86.499 -33.5h20zM399.999 919.999c26.667 0 40 13.333 40 40h150c0 -58 -17.167 -104.167 -51.5 -138.5s-80.5 -51.5 -138.5 -51.5
s-104.167 17.167 -138.5 51.5s-51.5 80.5 -51.5 138.5h150c0 -26.667 13.333 -40 40 -40z" />
    <glyph glyph-name="gbreve" unicode="&#x11f;" 
d="M380 80c-9.33301 -14 -20.332 -26.6709 -32.999 -38.0039c-11.333 -9.33301 -25.666 -17.833 -42.999 -25.5s-38.666 -11.5 -63.999 -11.5c-27.333 0 -53.666 6.16699 -78.999 18.5s-47.666 30 -66.999 53s-34.833 51.167 -46.5 84.5s-17.5 71.333 -17.5 114
s5.83301 80.667 17.5 114s27.167 61.5 46.5 84.5s41.666 40.667 66.999 53s51.666 18.5 78.999 18.5c25.333 0 46.666 -4 63.999 -12s31.666 -16.667 42.999 -26c12.667 -11.333 23.667 -23.666 33 -36.999l20 60h220v-510c0 -41.333 -8 -80.166 -24 -116.499
s-37.667 -68.166 -65 -95.499s-59.5 -48.833 -96.5 -64.5s-76.833 -23.5 -119.5 -23.5c-36.667 0 -68.834 4.33301 -96.501 13s-51.167 18.334 -70.5 29.001c-22 12 -41.333 26.333 -58 43l100 160c8 -7.33301 16.667 -14 26 -20c8 -5.33301 17.5 -10 28.5 -14
s22.833 -6 35.5 -6c30 0 54.167 8.83301 72.5 26.5s27.5 40.5 27.5 68.5v60zM280.001 274.996c0 -20 5.33301 -35.833 16 -47.5s23.667 -17.5 39 -17.5s28.333 5.83301 39 17.5s16 27.5 16 47.5s-5.33301 35.833 -16 47.5s-23.667 17.5 -39 17.5s-28.333 -5.83301 -39 -17.5
s-16 -27.5 -16 -47.5zM340.001 749.996c26.667 0 40 13.333 40 40h150c0 -58 -17.167 -104.167 -51.5 -138.5s-80.5 -51.5 -138.5 -51.5s-104.167 17.167 -138.5 51.5s-51.5 80.5 -51.5 138.5h150c0 -26.667 13.333 -40 40 -40z" />
    <glyph glyph-name="Gcommaaccent" unicode="&#x122;" horiz-adv-x="740" 
d="M500 -230l-70 -150h-80l40 120h-80v180h190v-150zM460 230l-0.000976562 119.999h240v-245c-19.333 -22.667 -42.666 -42.667 -69.999 -60c-24 -15.333 -54.167 -29.166 -90.5 -41.499s-79.5 -18.5 -129.5 -18.5c-52.667 0 -101.5 9.33301 -146.5 28s-84 44.5 -117 77.5
s-59 71.667 -78 116s-28.5 92.166 -28.5 143.499s9.5 99.166 28.5 143.499s45 83 78 116s72 58.833 117 77.5s93.833 28 146.5 28c48 0 89.333 -5.83301 124 -17.5s63.667 -24.167 87 -37.5c26.667 -16.667 49.667 -35 69 -55l-120 -190c-12 10 -25 19 -39 27
c-12 7.33301 -25.833 13.833 -41.5 19.5s-32.167 8.5 -49.5 8.5c-35.333 0 -64.166 -11.167 -86.499 -33.5s-33.5 -51.166 -33.5 -86.499s11.167 -64.166 33.5 -86.499s51.166 -33.5 86.499 -33.5h20z" />
    <glyph glyph-name="gcommaaccent" unicode="&#x123;" 
d="M240 750l70 150h80l-40 -120h80v-180h-190v150zM380 80c-9.33301 -14 -20.332 -26.6709 -32.999 -38.0039c-11.333 -9.33301 -25.666 -17.833 -42.999 -25.5s-38.666 -11.5 -63.999 -11.5c-27.333 0 -53.666 6.16699 -78.999 18.5s-47.666 30 -66.999 53
s-34.833 51.167 -46.5 84.5s-17.5 71.333 -17.5 114s5.83301 80.667 17.5 114s27.167 61.5 46.5 84.5s41.666 40.667 66.999 53s51.666 18.5 78.999 18.5c25.333 0 46.666 -4 63.999 -12s31.666 -16.667 42.999 -26c12.667 -11.333 23.667 -23.666 33 -36.999l20 60h220
v-510c0 -41.333 -8 -80.166 -24 -116.499s-37.667 -68.166 -65 -95.499s-59.5 -48.833 -96.5 -64.5s-76.833 -23.5 -119.5 -23.5c-36.667 0 -68.834 4.33301 -96.501 13s-51.167 18.334 -70.5 29.001c-22 12 -41.333 26.333 -58 43l100 160c8 -7.33301 16.667 -14 26 -20
c8 -5.33301 17.5 -10 28.5 -14s22.833 -6 35.5 -6c30 0 54.167 8.83301 72.5 26.5s27.5 40.5 27.5 68.5v60zM280.001 274.996c0 -20 5.33301 -35.833 16 -47.5s23.667 -17.5 39 -17.5s28.333 5.83301 39 17.5s16 27.5 16 47.5s-5.33301 35.833 -16 47.5
s-23.667 17.5 -39 17.5s-28.333 -5.83301 -39 -17.5s-16 -27.5 -16 -47.5z" />
    <glyph glyph-name="Imacron" unicode="&#x12a;" horiz-adv-x="380" 
d="M320 0h-260v700h260v-700zM35 920h310v-140h-310v140z" />
    <glyph glyph-name="imacron" unicode="&#x12b;" horiz-adv-x="340" 
d="M290 530v-530h-240v530h240zM16 750h310v-140h-310v140z" />
    <glyph glyph-name="Iogonek" unicode="&#x12e;" horiz-adv-x="380" 
d="M320 0c-18.667 -15.333 -35.332 -30.666 -49.999 -45.999c-12.667 -13.333 -24.167 -27.5 -34.5 -42.5s-15.5 -28.833 -15.5 -41.5c0 -5.33301 2 -10 6 -14s8.66699 -6 14 -6h60v-120h-100c-17.333 0 -33.333 2.83301 -48 8.5s-27.334 13.5 -38.001 23.5
s-19 21.667 -25 35s-9 27.666 -9 42.999c0 14 2.33301 26.833 7 38.5s11 22.5 19 32.5s17.167 19.167 27.5 27.5s20.833 15.833 31.5 22.5c24.667 15.333 53 28.333 85 39h-190v700h260v-700z" />
    <glyph glyph-name="iogonek" unicode="&#x12f;" horiz-adv-x="340" 
d="M290 530l0.00195312 -530c-18.667 -15.333 -35.334 -30.666 -50.001 -45.999c-12.667 -13.333 -24.167 -27.5 -34.5 -42.5s-15.5 -28.833 -15.5 -41.5c0 -5.33301 2 -10 6 -14s8.66699 -6 14 -6h60v-120h-100c-17.333 0 -33.333 2.83301 -48 8.5
s-27.334 13.5 -38.001 23.5s-19 21.667 -25 35s-9 27.666 -9 42.999c0 14 2.33301 26.833 7 38.5s11 22.5 19 32.5s17.167 19.167 27.5 27.5s20.833 15.833 31.5 22.5c24.667 15.333 53 28.333 85 39h-170v530h240zM50.002 780h240v-190h-240v190z" />
    <glyph glyph-name="Idotaccent" unicode="&#x130;" horiz-adv-x="380" 
d="M320 0h-260v700h260v-700zM90 870c0 28 9.66699 51.667 29 71s43 29 71 29s51.667 -9.66699 71 -29s29 -43 29 -71s-9.66699 -51.667 -29 -71s-43 -29 -71 -29s-51.667 9.66699 -71 29s-29 43 -29 71z" />
    <glyph glyph-name="dotlessi" unicode="&#x131;" horiz-adv-x="340" 
d="M290 530v-530h-240v530h240z" />
    <glyph glyph-name="Kcommaaccent" unicode="&#x136;" horiz-adv-x="750" 
d="M550 350l210 -350h-300l-140 280v-280h-260v700h260v-280l120 280h300zM480 -230l-70 -150h-80l40 120h-80v180h190v-150z" />
    <glyph glyph-name="kcommaaccent" unicode="&#x137;" horiz-adv-x="645" 
d="M495 270l160 -270h-265l-100 210v-210h-240v740h240v-410l85 200h260zM420 -230l-70 -150h-80l40 120h-80v180h190v-150z" />
    <glyph glyph-name="Lacute" unicode="&#x139;" horiz-adv-x="610" 
d="M320 230h270v-230h-530v700h260v-470zM200 980h210l-140 -210h-160z" />
    <glyph glyph-name="lacute" unicode="&#x13a;" horiz-adv-x="340" 
d="M50 740h240v-740h-240v740zM180 990h210l-140 -210h-160z" />
    <glyph glyph-name="Lcommaaccent" unicode="&#x13b;" horiz-adv-x="610" 
d="M320 230h270v-230h-530v700h260v-470zM430 -230l-70 -150h-80l40 120h-80v180h190v-150z" />
    <glyph glyph-name="lcommaaccent" unicode="&#x13c;" horiz-adv-x="340" 
d="M50 740h240v-740h-240v740zM265 -230l-70 -150h-80l40 120h-80v180h190v-150z" />
    <glyph glyph-name="Lcaron" unicode="&#x13d;" horiz-adv-x="610" 
d="M320 230h270v-230h-530v700h260v-470zM590 550l-70 -150h-80l40 120h-80v180h190v-150z" />
    <glyph glyph-name="lcaron" unicode="&#x13e;" horiz-adv-x="500" 
d="M50 740h240v-740h-240v740zM520 590l-70 -150h-80l40 120h-80v180h190v-150z" />
    <glyph glyph-name="Lslash" unicode="&#x141;" horiz-adv-x="640" 
d="M0 400l90 35v265h260v-155l90 35v-160l-90 -35v-155h270v-230h-530v275l-90 -35v160z" />
    <glyph glyph-name="lslash" unicode="&#x142;" horiz-adv-x="420" 
d="M0 400l90 40v300h240v-200l90 40v-160l-90 -40v-380h-240v280l-90 -40v160z" />
    <glyph glyph-name="Nacute" unicode="&#x143;" horiz-adv-x="840" 
d="M320 310v-310h-260v700h290l170 -310v310h260v-700h-290zM420 980h210l-140 -210h-160z" />
    <glyph glyph-name="nacute" unicode="&#x144;" horiz-adv-x="650" 
d="M430 545c24.667 0 48.001 -5.16699 70.001 -15.5s41.167 -26.166 57.5 -47.499s29.166 -48.833 38.499 -82.5s14 -73.5 14 -119.5v-280h-240v280c0 20 -4.16699 35 -12.5 45s-17.5 15 -27.5 15s-19.167 -5 -27.5 -15s-12.5 -25 -12.5 -45v-280h-240v530h230l20 -60
c8.66699 13.333 19 25.666 31 36.999c10.667 9.33301 24.167 18 40.5 26s35.833 12 58.5 12zM330.001 810h210l-140 -210h-160z" />
    <glyph glyph-name="Ncommaaccent" unicode="&#x145;" horiz-adv-x="840" 
d="M320 310v-310h-260v700h290l170 -310v310h260v-700h-290zM520 -230l-70 -150h-80l40 120h-80v180h190v-150z" />
    <glyph glyph-name="ncommaaccent" unicode="&#x146;" horiz-adv-x="650" 
d="M430 545c24.667 0 48.001 -5.16699 70.001 -15.5s41.167 -26.166 57.5 -47.499s29.166 -48.833 38.499 -82.5s14 -73.5 14 -119.5v-280h-240v280c0 20 -4.16699 35 -12.5 45s-17.5 15 -27.5 15s-19.167 -5 -27.5 -15s-12.5 -25 -12.5 -45v-280h-240v530h230l20 -60
c8.66699 13.333 19 25.666 31 36.999c10.667 9.33301 24.167 18 40.5 26s35.833 12 58.5 12zM425.001 -230l-70 -150h-80l40 120h-80v180h190v-150z" />
    <glyph glyph-name="Ncaron" unicode="&#x147;" horiz-adv-x="840" 
d="M320 310v-310h-260v700h290l170 -310v310h260v-700h-290zM500 770h-160l-120 170h150l50 -80l50 80h150z" />
    <glyph glyph-name="ncaron" unicode="&#x148;" horiz-adv-x="650" 
d="M430 545c24.667 0 48.001 -5.16699 70.001 -15.5s41.167 -26.166 57.5 -47.499s29.166 -48.833 38.499 -82.5s14 -73.5 14 -119.5v-280h-240v280c0 20 -4.16699 35 -12.5 45s-17.5 15 -27.5 15s-19.167 -5 -27.5 -15s-12.5 -25 -12.5 -45v-280h-240v530h230l20 -60
c8.66699 13.333 19 25.666 31 36.999c10.667 9.33301 24.167 18 40.5 26s35.833 12 58.5 12zM400.001 600h-160l-120 170h150l50 -80l50 80h150z" />
    <glyph glyph-name="Omacron" unicode="&#x14c;" horiz-adv-x="860" 
d="M540 350c0 17.333 -3 33.333 -9 48s-14 27.334 -24 38.001s-21.667 19 -35 25s-27.333 9 -42 9c-15.333 0 -29.666 -3 -42.999 -9s-25 -14.333 -35 -25s-17.833 -23.334 -23.5 -38.001s-8.5 -30.667 -8.5 -48s2.83301 -33.333 8.5 -48s13.5 -27.334 23.5 -38.001
s21.667 -19 35 -25s27.666 -9 42.999 -9c14.667 0 28.667 3 42 9s25 14.333 35 25s18 23.334 24 38.001s9 30.667 9 48zM820 350c0 -51.333 -9.5 -99.166 -28.5 -143.499s-45.667 -83 -80 -116s-75.5 -58.833 -123.5 -77.5s-100.667 -28 -158 -28s-110 9.33301 -158 28
s-89.167 44.5 -123.5 77.5s-61 71.667 -80 116s-28.5 92.166 -28.5 143.499s9.5 99.166 28.5 143.499s45.667 83 80 116s75.5 58.833 123.5 77.5s100.667 28 158 28s110 -9.33301 158 -28s89.167 -44.5 123.5 -77.5s61 -71.667 80 -116s28.5 -92.166 28.5 -143.499zM275 920
h310v-140h-310v140z" />
    <glyph glyph-name="omacron" unicode="&#x14d;" 
d="M30 265c0 38.667 7.5 75 22.5 109s35.833 63.667 62.5 89s58.667 45.333 96 60s78.666 22 123.999 22c44.667 0 85.834 -7.33301 123.501 -22s69.834 -34.667 96.501 -60s47.5 -55 62.5 -89s22.5 -70.333 22.5 -109s-7.5 -75 -22.5 -109s-35.833 -63.667 -62.5 -89
s-58.834 -45.333 -96.501 -60s-78.834 -22 -123.501 -22c-45.333 0 -86.666 7.33301 -123.999 22s-69.333 34.667 -96 60s-47.5 55 -62.5 89s-22.5 70.333 -22.5 109zM400 265c0 22.667 -6.5 40.834 -19.5 54.501s-28.167 20.5 -45.5 20.5s-32.5 -6.83301 -45.5 -20.5
s-19.5 -31.834 -19.5 -54.501s6.5 -40.834 19.5 -54.501s28.167 -20.5 45.5 -20.5s32.5 6.83301 45.5 20.5s19.5 31.834 19.5 54.501zM180 760h310v-140h-310v140z" />
    <glyph glyph-name="Ohungarumlaut" unicode="&#x150;" horiz-adv-x="860" 
d="M540 350c0 17.333 -3 33.333 -9 48s-14 27.334 -24 38.001s-21.667 19 -35 25s-27.333 9 -42 9c-15.333 0 -29.666 -3 -42.999 -9s-25 -14.333 -35 -25s-17.833 -23.334 -23.5 -38.001s-8.5 -30.667 -8.5 -48s2.83301 -33.333 8.5 -48s13.5 -27.334 23.5 -38.001
s21.667 -19 35 -25s27.666 -9 42.999 -9c14.667 0 28.667 3 42 9s25 14.333 35 25s18 23.334 24 38.001s9 30.667 9 48zM820 350c0 -51.333 -9.5 -99.166 -28.5 -143.499s-45.667 -83 -80 -116s-75.5 -58.833 -123.5 -77.5s-100.667 -28 -158 -28s-110 9.33301 -158 28
s-89.167 44.5 -123.5 77.5s-61 71.667 -80 116s-28.5 92.166 -28.5 143.499s9.5 99.166 28.5 143.499s45.667 83 80 116s75.5 58.833 123.5 77.5s100.667 28 158 28s110 -9.33301 158 -28s89.167 -44.5 123.5 -77.5s61 -71.667 80 -116s28.5 -92.166 28.5 -143.499zM350 980
h160l-140 -210h-110zM560 980h160l-140 -210h-110z" />
    <glyph glyph-name="ohungarumlaut" unicode="&#x151;" 
d="M30 265c0 38.667 7.5 75 22.5 109s35.833 63.667 62.5 89s58.667 45.333 96 60s78.666 22 123.999 22c44.667 0 85.834 -7.33301 123.501 -22s69.834 -34.667 96.501 -60s47.5 -55 62.5 -89s22.5 -70.333 22.5 -109s-7.5 -75 -22.5 -109s-35.833 -63.667 -62.5 -89
s-58.834 -45.333 -96.501 -60s-78.834 -22 -123.501 -22c-45.333 0 -86.666 7.33301 -123.999 22s-69.333 34.667 -96 60s-47.5 55 -62.5 89s-22.5 70.333 -22.5 109zM400 265c0 22.667 -6.5 40.834 -19.5 54.501s-28.167 20.5 -45.5 20.5s-32.5 -6.83301 -45.5 -20.5
s-19.5 -31.834 -19.5 -54.501s6.5 -40.834 19.5 -54.501s28.167 -20.5 45.5 -20.5s32.5 6.83301 45.5 20.5s19.5 31.834 19.5 54.501zM260 810h160l-140 -210h-110zM470 810h160l-140 -210h-110z" />
    <glyph glyph-name="OE" unicode="&#x152;" horiz-adv-x="1060" 
d="M40 350c0 51.333 8.33301 98.333 25 141s41.667 79.5 75 110.5s75 55.167 125 72.5s108.333 26 175 26h570v-200h-280v-50h260v-200h-260v-50h300v-200h-590c-66.667 0 -125 8.66699 -175 26s-91.667 41.5 -125 72.5s-58.333 67.833 -75 110.5s-25 89.667 -25 141z
M470 210v280h-30c-38 0 -67.5 -11.333 -88.5 -34s-31.5 -58 -31.5 -106s10.5 -83.333 31.5 -106s50.5 -34 88.5 -34h30z" />
    <glyph glyph-name="oe" unicode="&#x153;" horiz-adv-x="980" 
d="M680 545c38.667 0 75.001 -7.33398 109.001 -22.001s63.667 -34.667 89 -60s45.333 -55 60 -89s22 -70.333 22 -109v-50h-320c2.66699 -10.667 7.66699 -20 15 -28c6 -7.33301 15 -13.666 27 -18.999s28 -8 48 -8c12.667 0 24.5 2 35.5 6s20.5 8.66699 28.5 14
c9.33301 6 18 12.667 26 20l85 -135c-14.667 -14.667 -32.667 -28 -54 -40c-18 -10 -40 -19.167 -66 -27.5s-56 -12.5 -90 -12.5c-29.333 0 -54.833 3.33301 -76.5 10s-39.834 14 -54.501 22c-17.333 9.33301 -32 20.333 -44 33c-12.667 -12.667 -28 -23.667 -46 -33
c-15.333 -8 -34.5 -15.333 -57.5 -22s-50.167 -10 -81.5 -10c-45.333 0 -86.666 7.33301 -123.999 22s-69.333 34.667 -96 60s-47.5 55 -62.5 89s-22.5 70.333 -22.5 109s7.5 75 22.5 109s35.833 63.667 62.5 89s58.667 45.333 96 60s78.666 22 123.999 22
c31.333 0 58.5 -3.5 81.5 -10.5s42.167 -14.5 57.5 -22.5c18 -9.33301 33.333 -20 46 -32c11.333 12 25.333 22.667 42 32c13.333 8 30 15.5 50 22.5s42.667 10.5 68 10.5zM400.001 264.999c0 22.667 -6.5 40.834 -19.5 54.501s-28.167 20.5 -45.5 20.5
s-32.5 -6.83301 -45.5 -20.5s-19.5 -31.834 -19.5 -54.501s6.5 -40.834 19.5 -54.501s28.167 -20.5 45.5 -20.5s32.5 6.83301 45.5 20.5s19.5 31.834 19.5 54.501zM635.001 317.999c0 -1.33301 0.166992 -2.66797 0.5 -4.00098s0.5 -2.66602 0.5 -3.99902h89
c0 20 -4.33301 35 -13 45s-19.334 15 -32.001 15c-12 0 -22.167 -4.33301 -30.5 -13s-13.166 -21.667 -14.499 -39z" />
    <glyph glyph-name="Racute" unicode="&#x154;" horiz-adv-x="730" 
d="M450 0l-119.999 230h-10v-230h-260v700c27.333 1.33301 57 3 89 5c27.333 1.33301 58.166 2.5 92.499 3.5s70.5 1.5 108.5 1.5c54.667 0 102.167 -6 142.5 -18s73.666 -28.667 99.999 -50s45.833 -47.166 58.5 -77.499s19 -63.5 19 -99.5
c0 -36.667 -4.66699 -67.334 -14 -92.001s-19.666 -44.667 -30.999 -60c-13.333 -18 -28.333 -32.333 -45 -43l170 -270h-300zM350.001 410c17.333 0 31.666 5.33301 42.999 16s17 23.667 17 39s-5.66699 28.333 -17 39s-25.666 16 -42.999 16h-30v-110h30zM360.001 980h210
l-140 -210h-160z" />
    <glyph glyph-name="racute" unicode="&#x155;" horiz-adv-x="480" 
d="M300 470c8 13.333 17.999 25.667 29.999 37c10 9.33301 22.5 18 37.5 26s32.5 12 52.5 12c10 0 19.167 -0.833008 27.5 -2.5s15.833 -3.5 22.5 -5.5l20 -7l-40 -220c-8 4 -16 7.33301 -24 10c-7.33301 2.66699 -15 5 -23 7s-15.667 3 -23 3
c-25.333 0 -46.666 -9.5 -63.999 -28.5s-26 -46.167 -26 -81.5v-220h-240v530h230l20 -60v0zM269.999 810.001h210l-140 -210h-160z" />
    <glyph glyph-name="Rcommaaccent" unicode="&#x156;" horiz-adv-x="730" 
d="M450 0l-119.999 230h-10v-230h-260v700c27.333 1.33301 57 3 89 5c27.333 1.33301 58.166 2.5 92.499 3.5s70.5 1.5 108.5 1.5c54.667 0 102.167 -6 142.5 -18s73.666 -28.667 99.999 -50s45.833 -47.166 58.5 -77.499s19 -63.5 19 -99.5
c0 -36.667 -4.66699 -67.334 -14 -92.001s-19.666 -44.667 -30.999 -60c-13.333 -18 -28.333 -32.333 -45 -43l170 -270h-300zM350.001 410c17.333 0 31.666 5.33301 42.999 16s17 23.667 17 39s-5.66699 28.333 -17 39s-25.666 16 -42.999 16h-30v-110h30zM480.001 -230
l-70 -150h-80l40 120h-80v180h190v-150z" />
    <glyph glyph-name="rcommaaccent" unicode="&#x157;" horiz-adv-x="480" 
d="M300 470c8 13.333 17.999 25.667 29.999 37c10 9.33301 22.5 18 37.5 26s32.5 12 52.5 12c10 0 19.167 -0.833008 27.5 -2.5s15.833 -3.5 22.5 -5.5l20 -7l-40 -220c-8 4 -16 7.33301 -24 10c-7.33301 2.66699 -15 5 -23 7s-15.667 3 -23 3
c-25.333 0 -46.666 -9.5 -63.999 -28.5s-26 -46.167 -26 -81.5v-220h-240v530h230l20 -60v0zM264.999 -229.999l-70 -150h-80l40 120h-80v180h190v-150z" />
    <glyph glyph-name="Rcaron" unicode="&#x158;" horiz-adv-x="730" 
d="M450 0l-119.999 230h-10v-230h-260v700c27.333 1.33301 57 3 89 5c27.333 1.33301 58.166 2.5 92.499 3.5s70.5 1.5 108.5 1.5c54.667 0 102.167 -6 142.5 -18s73.666 -28.667 99.999 -50s45.833 -47.166 58.5 -77.499s19 -63.5 19 -99.5
c0 -36.667 -4.66699 -67.334 -14 -92.001s-19.666 -44.667 -30.999 -60c-13.333 -18 -28.333 -32.333 -45 -43l170 -270h-300zM350.001 410c17.333 0 31.666 5.33301 42.999 16s17 23.667 17 39s-5.66699 28.333 -17 39s-25.666 16 -42.999 16h-30v-110h30zM430.001 770
h-160l-120 170h150l50 -80l50 80h150z" />
    <glyph glyph-name="rcaron" unicode="&#x159;" horiz-adv-x="480" 
d="M300 470c8 13.333 17.999 25.667 29.999 37c10 9.33301 22.5 18 37.5 26s32.5 12 52.5 12c10 0 19.167 -0.833008 27.5 -2.5s15.833 -3.5 22.5 -5.5l20 -7l-40 -220c-8 4 -16 7.33301 -24 10c-7.33301 2.66699 -15 5 -23 7s-15.667 3 -23 3
c-25.333 0 -46.666 -9.5 -63.999 -28.5s-26 -46.167 -26 -81.5v-220h-240v530h230l20 -60v0zM349.999 600.001h-160l-120 170h150l50 -80l50 80h150z" />
    <glyph glyph-name="Sacute" unicode="&#x15a;" horiz-adv-x="625" 
d="M275 190c12.667 0 22.5 3.16797 29.5 9.50098s10.5 13.166 10.5 20.499c0 8.66699 -6.66699 16.167 -20 22.5s-30 13.333 -50 21s-41.667 16.834 -65 27.501s-45 24.667 -65 42s-36.667 38.666 -50 63.999s-20 56.333 -20 93c0 28.667 6.66699 56.5 20 83.5
s32.333 51 57 72s54.5 37.833 89.5 50.5s74.5 19 118.5 19c45.333 0 84.666 -5.83301 117.999 -17.5s61.333 -24.167 84 -37.5c26.667 -16.667 49.334 -35 68.001 -55l-95 -150c-12 10 -25 19 -39 27c-12 7.33301 -25.833 13.833 -41.5 19.5s-32.167 8.5 -49.5 8.5
c-12.667 0 -22.5 -3.16699 -29.5 -9.5s-10.5 -13.166 -10.5 -20.499c0 -8.66699 6.66699 -16.167 20 -22.5s30 -13.333 50 -21s41.667 -17 65 -28s45 -25 65 -42s36.667 -38.167 50 -63.5s20 -56.333 20 -93c0 -28.667 -6.66699 -56.5 -20 -83.5s-32.333 -51 -57 -72
s-54.5 -37.833 -89.5 -50.5s-74.5 -19 -118.5 -19c-55.333 0 -102.5 6.16699 -141.5 18.5s-71.167 26.166 -96.5 41.499c-29.333 17.333 -53.333 37.333 -72 60l95 150c14 -12.667 29.667 -23.667 47 -33c15.333 -8 33.333 -15.333 54 -22s43.667 -10 69 -10zM309 980.001
h210l-140 -210h-160z" />
    <glyph glyph-name="sacute" unicode="&#x15b;" horiz-adv-x="515" 
d="M495 160c0 -24 -4.99902 -46.5029 -14.999 -67.5029s-24.833 -39.5 -44.5 -55.5s-44.167 -28.667 -73.5 -38s-63.333 -14 -102 -14c-42 0 -78.333 4.83301 -109 14.5s-56.667 20.5 -78 32.5c-24.667 14 -45.667 30 -63 48l75 120c10 -9.33301 21.333 -17.666 34 -24.999
c11.333 -6.66699 24.5 -12.5 39.5 -17.5s32.167 -7.5 51.5 -7.5c7.33301 0 13.333 2 18 6s7 8.66699 7 14c0 4.66699 -4.83301 9.33398 -14.5 14.001s-21.667 10 -36 16s-30 13.167 -47 21.5s-32.667 19 -47 32s-26.333 29 -36 48s-14.5 41.833 -14.5 68.5
c0 24 5 46.5 15 67.5s24.833 39.5 44.5 55.5s44.167 28.667 73.5 38s63.333 14 102 14c34 0 64.5 -4.5 91.5 -13.5s50.167 -18.833 69.5 -29.5c22 -12 41.667 -26 59 -42l-75 -120c-8 7.33301 -17 14 -27 20c-8.66699 5.33301 -18.834 10 -30.501 14s-24.167 6 -37.5 6
c-7.33301 0 -13.333 -2 -18 -6s-7 -8.66699 -7 -14s4.83301 -10.166 14.5 -14.499l36 -15.5c14.333 -6 30 -13.167 47 -21.5s32.667 -19 47 -32s26.333 -29 36 -48s14.5 -41.833 14.5 -68.5zM270.001 809.997h210l-140 -210h-160z" />
    <glyph glyph-name="Scedilla" unicode="&#x15e;" horiz-adv-x="625" 
d="M275 190c12.667 0 22.501 3.16895 29.501 9.50195s10.5 13.166 10.5 20.499c0 8.66699 -6.66699 16.167 -20 22.5s-30 13.333 -50 21s-41.667 16.834 -65 27.501s-45 24.667 -65 42s-36.667 38.666 -50 63.999s-20 56.333 -20 93c0 28.667 6.66699 56.5 20 83.5
s32.333 51 57 72s54.5 37.833 89.5 50.5s74.5 19 118.5 19c45.333 0 84.666 -5.83301 117.999 -17.5s61.333 -24.167 84 -37.5c26.667 -16.667 49.334 -35 68.001 -55l-95 -150c-12 10 -25 19 -39 27c-12 7.33301 -25.833 13.833 -41.5 19.5s-32.167 8.5 -49.5 8.5
c-12.667 0 -22.5 -3.16699 -29.5 -9.5s-10.5 -13.166 -10.5 -20.499c0 -8.66699 6.66699 -16.167 20 -22.5s30 -13.333 50 -21s41.667 -17 65 -28s45 -25 65 -42s36.667 -38.167 50 -63.5s20 -56.333 20 -93c0 -27.333 -6.33301 -54 -19 -80s-30.334 -49.333 -53.001 -70
s-50 -37.667 -82 -51s-67.333 -21.333 -106 -24l-20 -45c16 0 31.333 -3.16699 46 -9.5s27.5 -15 38.5 -26s19.667 -23.833 26 -38.5s9.5 -30 9.5 -46c0 -38 -12.667 -69.167 -38 -93.5s-59.333 -36.5 -102 -36.5h-90v100h70c7.33301 0 14.166 3.16699 20.499 9.5
s9.5 13.166 9.5 20.499s-3.16699 14.166 -9.5 20.499s-13.166 9.5 -20.499 9.5h-60l55 140c-48 2.66699 -88.833 10 -122.5 22s-61.5 25 -83.5 39c-26 16 -47.333 34 -64 54l95 150c14 -12.667 29.667 -23.667 47 -33c15.333 -8 33.333 -15.333 54 -22s43.667 -10 69 -10z
" />
    <glyph glyph-name="scedilla" unicode="&#x15f;" horiz-adv-x="515" 
d="M495 160c0 -22 -4.33203 -43.166 -12.999 -63.499s-21.667 -38.333 -39 -54s-38.666 -28.5 -63.999 -38.5s-55 -16.333 -89 -19l-20 -45c16 0 31.333 -3.16699 46 -9.5s27.5 -15 38.5 -26s19.667 -23.833 26 -38.5s9.5 -30 9.5 -46c0 -38 -12.667 -69.167 -38 -93.5
s-59.333 -36.5 -102 -36.5h-90v100h70c7.33301 0 14.166 3.16699 20.499 9.5s9.5 13.166 9.5 20.499s-3.16699 14.166 -9.5 20.499s-13.166 9.5 -20.499 9.5h-60l55 135c-36.667 3.33301 -68.334 10.166 -95.001 20.499s-49 21.166 -67 32.499
c-21.333 12.667 -39 26.667 -53 42l75 120c10 -9.33301 21.333 -17.666 34 -24.999c11.333 -6.66699 24.5 -12.5 39.5 -17.5s32.167 -7.5 51.5 -7.5c7.33301 0 13.333 2 18 6s7 8.66699 7 14c0 4.66699 -4.83301 9.33398 -14.5 14.001s-21.667 10 -36 16
s-30 13.167 -47 21.5s-32.667 19 -47 32s-26.333 29 -36 48s-14.5 41.833 -14.5 68.5c0 24 5 46.5 15 67.5s24.833 39.5 44.5 55.5s44.167 28.667 73.5 38s63.333 14 102 14c34 0 64.5 -4.5 91.5 -13.5s50.167 -18.833 69.5 -29.5c22 -12 41.667 -26 59 -42l-75 -120
c-8 7.33301 -17 14 -27 20c-8.66699 5.33301 -18.834 10 -30.501 14s-24.167 6 -37.5 6c-7.33301 0 -13.333 -2 -18 -6s-7 -8.66699 -7 -14s4.83301 -10.166 14.5 -14.499l36 -15.5c14.333 -6 30 -13.167 47 -21.5s32.667 -19 47 -32s26.333 -29 36 -48
s14.5 -41.833 14.5 -68.5z" />
    <glyph glyph-name="Scaron" unicode="&#x160;" horiz-adv-x="625" 
d="M275 190c12.667 0 22.5 3.16797 29.5 9.50098s10.5 13.166 10.5 20.499c0 8.66699 -6.66699 16.167 -20 22.5s-30 13.333 -50 21s-41.667 16.834 -65 27.501s-45 24.667 -65 42s-36.667 38.666 -50 63.999s-20 56.333 -20 93c0 28.667 6.66699 56.5 20 83.5
s32.333 51 57 72s54.5 37.833 89.5 50.5s74.5 19 118.5 19c45.333 0 84.666 -5.83301 117.999 -17.5s61.333 -24.167 84 -37.5c26.667 -16.667 49.334 -35 68.001 -55l-95 -150c-12 10 -25 19 -39 27c-12 7.33301 -25.833 13.833 -41.5 19.5s-32.167 8.5 -49.5 8.5
c-12.667 0 -22.5 -3.16699 -29.5 -9.5s-10.5 -13.166 -10.5 -20.499c0 -8.66699 6.66699 -16.167 20 -22.5s30 -13.333 50 -21s41.667 -17 65 -28s45 -25 65 -42s36.667 -38.167 50 -63.5s20 -56.333 20 -93c0 -28.667 -6.66699 -56.5 -20 -83.5s-32.333 -51 -57 -72
s-54.5 -37.833 -89.5 -50.5s-74.5 -19 -118.5 -19c-55.333 0 -102.5 6.16699 -141.5 18.5s-71.167 26.166 -96.5 41.499c-29.333 17.333 -53.333 37.333 -72 60l95 150c14 -12.667 29.667 -23.667 47 -33c15.333 -8 33.333 -15.333 54 -22s43.667 -10 69 -10zM400 770.001
h-160l-120 170h150l50 -80l50 80h150z" />
    <glyph glyph-name="scaron" unicode="&#x161;" horiz-adv-x="515" 
d="M495 160c0 -24 -4.99902 -46.5029 -14.999 -67.5029s-24.833 -39.5 -44.5 -55.5s-44.167 -28.667 -73.5 -38s-63.333 -14 -102 -14c-42 0 -78.333 4.83301 -109 14.5s-56.667 20.5 -78 32.5c-24.667 14 -45.667 30 -63 48l75 120c10 -9.33301 21.333 -17.666 34 -24.999
c11.333 -6.66699 24.5 -12.5 39.5 -17.5s32.167 -7.5 51.5 -7.5c7.33301 0 13.333 2 18 6s7 8.66699 7 14c0 4.66699 -4.83301 9.33398 -14.5 14.001s-21.667 10 -36 16s-30 13.167 -47 21.5s-32.667 19 -47 32s-26.333 29 -36 48s-14.5 41.833 -14.5 68.5
c0 24 5 46.5 15 67.5s24.833 39.5 44.5 55.5s44.167 28.667 73.5 38s63.333 14 102 14c34 0 64.5 -4.5 91.5 -13.5s50.167 -18.833 69.5 -29.5c22 -12 41.667 -26 59 -42l-75 -120c-8 7.33301 -17 14 -27 20c-8.66699 5.33301 -18.834 10 -30.501 14s-24.167 6 -37.5 6
c-7.33301 0 -13.333 -2 -18 -6s-7 -8.66699 -7 -14s4.83301 -10.166 14.5 -14.499l36 -15.5c14.333 -6 30 -13.167 47 -21.5s32.667 -19 47 -32s26.333 -29 36 -48s14.5 -41.833 14.5 -68.5zM350.001 599.997h-160l-120 170h150l50 -80l50 80h150z" />
    <glyph glyph-name="Tcommaaccent" unicode="&#x162;" horiz-adv-x="660" 
d="M651 700v-230h-190v-470h-260v470h-190v230h640zM425 -230l-70 -150h-80l40 120h-80v180h190v-150z" />
    <glyph glyph-name="tcommaaccent" unicode="&#x163;" horiz-adv-x="470" 
d="M20 330v200h70v170h240v-170h90v-200h-90v-85c0 -20 4.5 -35 13.5 -45s21.167 -15 36.5 -15c5.33301 0 10.166 0.166992 14.499 0.5s8.5 0.833008 12.5 1.5s8.33301 1.66699 13 3v-200c-8 -2 -16.667 -3.66699 -26 -5c-8 -1.33301 -17.5 -2.5 -28.5 -3.5
s-22.833 -1.5 -35.5 -1.5c-75.333 0 -134.166 22.167 -176.499 66.5s-63.5 110.5 -63.5 198.5v85h-70zM360 -230l-70 -150h-80l40 120h-80v180h190v-150z" />
    <glyph glyph-name="Tcaron" unicode="&#x164;" horiz-adv-x="660" 
d="M651 700v-230h-190v-470h-260v470h-190v230h640zM410 770h-160l-120 170h150l50 -80l50 80h150z" />
    <glyph glyph-name="tcaron" unicode="&#x165;" horiz-adv-x="590" 
d="M20 330v200h70v170h240v-170h90v-200h-90v-85c0 -20 4.5 -35 13.5 -45s21.167 -15 36.5 -15c5.33301 0 10.166 0.166992 14.499 0.5s8.5 0.833008 12.5 1.5s8.33301 1.66699 13 3v-200c-8 -2 -16.667 -3.66699 -26 -5c-8 -1.33301 -17.5 -2.5 -28.5 -3.5
s-22.833 -1.5 -35.5 -1.5c-75.333 0 -134.166 22.167 -176.499 66.5s-63.5 110.5 -63.5 198.5v85h-70zM610 560l-70 -150h-80l40 120h-80v180h190v-150z" />
    <glyph glyph-name="Umacron" unicode="&#x16a;" horiz-adv-x="800" 
d="M400 235c22.667 0 41.667 8 57 24s23 38 23 66v375h260v-375c0 -50 -8.33301 -95.833 -25 -137.5s-40 -77.5 -70 -107.5s-65.833 -53.333 -107.5 -70s-87.5 -25 -137.5 -25s-95.833 8.33301 -137.5 25s-77.5 40 -107.5 70s-53.333 65.833 -70 107.5s-25 87.5 -25 137.5
v375h260v-375c0 -28 7.66699 -50 23 -66s34.333 -24 57 -24zM245 930h310v-140h-310v140z" />
    <glyph glyph-name="umacron" unicode="&#x16b;" horiz-adv-x="660" 
d="M230 -15c-25.333 0 -48.834 5.16797 -70.501 15.501s-40.667 26.166 -57 47.499s-29.166 48.833 -38.499 82.5s-14 73.5 -14 119.5v280h240v-280c0 -20 4.16699 -35 12.5 -45s17.5 -15 27.5 -15s19.167 5 27.5 15s12.5 25 12.5 45v280h240v-530h-230l-20 60
c-8.66699 -14 -19 -26.667 -31 -38c-10.667 -9.33301 -24.167 -17.833 -40.5 -25.5s-35.833 -11.5 -58.5 -11.5zM174.999 760.001h310v-140h-310v140z" />
    <glyph glyph-name="Uring" unicode="&#x16e;" horiz-adv-x="800" 
d="M400 235c22.667 0 41.667 8 57 24s23 38 23 66v375h260v-375c0 -50 -8.33301 -95.833 -25 -137.5s-40 -77.5 -70 -107.5s-65.833 -53.333 -107.5 -70s-87.5 -25 -137.5 -25s-95.833 8.33301 -137.5 25s-77.5 40 -107.5 70s-53.333 65.833 -70 107.5s-25 87.5 -25 137.5
v375h260v-375c0 -28 7.66699 -50 23 -66s34.333 -24 57 -24zM270 890c0 38 12.167 69.167 36.5 93.5s55.5 36.5 93.5 36.5s69.167 -12.167 93.5 -36.5s36.5 -55.5 36.5 -93.5s-12.167 -69.167 -36.5 -93.5s-55.5 -36.5 -93.5 -36.5s-69.167 12.167 -93.5 36.5
s-36.5 55.5 -36.5 93.5zM360 890c0 -10 4.16699 -19.167 12.5 -27.5s17.5 -12.5 27.5 -12.5s19.167 4.16699 27.5 12.5s12.5 17.5 12.5 27.5s-4.16699 19.167 -12.5 27.5s-17.5 12.5 -27.5 12.5s-19.167 -4.16699 -27.5 -12.5s-12.5 -17.5 -12.5 -27.5z" />
    <glyph glyph-name="uring" unicode="&#x16f;" horiz-adv-x="660" 
d="M230 -15c-25.333 0 -48.834 5.16797 -70.501 15.501s-40.667 26.166 -57 47.499s-29.166 48.833 -38.499 82.5s-14 73.5 -14 119.5v280h240v-280c0 -20 4.16699 -35 12.5 -45s17.5 -15 27.5 -15s19.167 5 27.5 15s12.5 25 12.5 45v280h240v-530h-230l-20 60
c-8.66699 -14 -19 -26.667 -31 -38c-10.667 -9.33301 -24.167 -17.833 -40.5 -25.5s-35.833 -11.5 -58.5 -11.5zM199.999 720.001c0 38 12.167 69.167 36.5 93.5s55.5 36.5 93.5 36.5s69.167 -12.167 93.5 -36.5s36.5 -55.5 36.5 -93.5s-12.167 -69.167 -36.5 -93.5
s-55.5 -36.5 -93.5 -36.5s-69.167 12.167 -93.5 36.5s-36.5 55.5 -36.5 93.5zM289.999 720.001c0 -10 4.16699 -19.167 12.5 -27.5s17.5 -12.5 27.5 -12.5s19.167 4.16699 27.5 12.5s12.5 17.5 12.5 27.5s-4.16699 19.167 -12.5 27.5s-17.5 12.5 -27.5 12.5
s-19.167 -4.16699 -27.5 -12.5s-12.5 -17.5 -12.5 -27.5z" />
    <glyph glyph-name="Uhungarumlaut" unicode="&#x170;" horiz-adv-x="800" 
d="M400 235c22.667 0 41.667 8 57 24s23 38 23 66v375h260v-375c0 -50 -8.33301 -95.833 -25 -137.5s-40 -77.5 -70 -107.5s-65.833 -53.333 -107.5 -70s-87.5 -25 -137.5 -25s-95.833 8.33301 -137.5 25s-77.5 40 -107.5 70s-53.333 65.833 -70 107.5s-25 87.5 -25 137.5
v375h260v-375c0 -28 7.66699 -50 23 -66s34.333 -24 57 -24zM320 980h160l-140 -210h-110zM530 980h160l-140 -210h-110z" />
    <glyph glyph-name="uhungarumlaut" unicode="&#x171;" horiz-adv-x="660" 
d="M230 -15c-25.333 0 -48.834 5.16797 -70.501 15.501s-40.667 26.166 -57 47.499s-29.166 48.833 -38.499 82.5s-14 73.5 -14 119.5v280h240v-280c0 -20 4.16699 -35 12.5 -45s17.5 -15 27.5 -15s19.167 5 27.5 15s12.5 25 12.5 45v280h240v-530h-230l-20 60
c-8.66699 -14 -19 -26.667 -31 -38c-10.667 -9.33301 -24.167 -17.833 -40.5 -25.5s-35.833 -11.5 -58.5 -11.5zM259.999 810.001h160l-140 -210h-110zM469.999 810.001h160l-140 -210h-110z" />
    <glyph glyph-name="Uogonek" unicode="&#x172;" horiz-adv-x="800" 
d="M400 235c22.667 0 41.667 8 57 24s23 38 23 66v375h260v-375c0 -41.333 -6 -79.5 -18 -114.5s-28.5 -66.5 -49.5 -94.5s-46.333 -51.833 -76 -71.5s-61.834 -34.5 -96.501 -44.5c-5.33301 -2.66699 -13.166 -8.5 -23.499 -17.5s-20.833 -19.833 -31.5 -32.5
s-20 -26 -28 -40s-12 -27.333 -12 -40c0 -5.33301 2 -10 6 -14s8.66699 -6 14 -6h60v-120h-100c-17.333 0 -33.333 2.83301 -48 8.5s-27.334 13.5 -38.001 23.5s-19 21.667 -25 35s-9 27.666 -9 42.999c0 25.333 6.66699 47 20 65s28.333 33 45 45
c18.667 14 40.334 25.667 65.001 35c-49.333 0.666992 -94.5 9.33398 -135.5 26.001s-76.333 40 -106 70s-52.667 65.667 -69 107s-24.5 87 -24.5 137v375h260v-375c0 -28 7.66699 -50 23 -66s34.333 -24 57 -24z" />
    <glyph glyph-name="uogonek" unicode="&#x173;" horiz-adv-x="660" 
d="M230 -15c-25.333 0 -48.832 5.16797 -70.499 15.501s-40.667 26.166 -57 47.499s-29.166 48.833 -38.499 82.5s-14 73.5 -14 119.5v280h240v-280c0 -20 4.16699 -35 12.5 -45s17.5 -15 27.5 -15s19.167 5 27.5 15s12.5 25 12.5 45v280h240v-530
c-18.667 -15.333 -35.334 -30.666 -50.001 -45.999c-12.667 -13.333 -24.167 -27.5 -34.5 -42.5s-15.5 -28.833 -15.5 -41.5c0 -5.33301 2 -10 6 -14s8.66699 -6 14 -6h60v-120h-100c-17.333 0 -33.333 2.83301 -48 8.5s-27.334 13.5 -38.001 23.5s-19 21.667 -25 35
s-9 27.666 -9 42.999c0 14 2.33301 26.833 7 38.5s11 22.5 19 32.5s17.167 19.167 27.5 27.5s20.833 15.833 31.5 22.5c24.667 15.333 53 28.333 85 39h-160l-20 60c-8.66699 -14 -19 -26.667 -31 -38c-10.667 -9.33301 -24.167 -17.833 -40.5 -25.5
s-35.833 -11.5 -58.5 -11.5z" />
    <glyph glyph-name="Ydieresis" unicode="&#x178;" horiz-adv-x="700" 
d="M350 500l70 200h300l-240 -430v-270h-260v270l-240 430h300zM550 860c0 -25.333 -8.66699 -46.666 -26 -63.999s-38.666 -26 -63.999 -26s-46.666 8.66699 -63.999 26s-26 38.666 -26 63.999s8.66699 46.666 26 63.999s38.666 26 63.999 26s46.666 -8.66699 63.999 -26
s26 -38.666 26 -63.999zM330 860c0 -25.333 -8.66699 -46.666 -26 -63.999s-38.666 -26 -63.999 -26s-46.666 8.66699 -63.999 26s-26 38.666 -26 63.999s8.66699 46.666 26 63.999s38.666 26 63.999 26s46.666 -8.66699 63.999 -26s26 -38.666 26 -63.999z" />
    <glyph glyph-name="Zacute" unicode="&#x179;" horiz-adv-x="690" 
d="M380 220h260v-220h-590v4v216l250 260h-230v220h560v-220zM360 980h210l-140 -210h-160z" />
    <glyph glyph-name="zacute" unicode="&#x17a;" horiz-adv-x="560" 
d="M330 190h190v-190h-480v190l180 150h-170v190h460v-190zM290 810h210l-140 -210h-160z" />
    <glyph glyph-name="Zdotaccent" unicode="&#x17b;" horiz-adv-x="690" 
d="M380 220h260v-220h-590v4v216l250 260h-230v220h560v-220zM240 870c0 28 9.66699 51.667 29 71s43 29 71 29s51.667 -9.66699 71 -29s29 -43 29 -71s-9.66699 -51.667 -29 -71s-43 -29 -71 -29s-51.667 9.66699 -71 29s-29 43 -29 71z" />
    <glyph glyph-name="zdotaccent" unicode="&#x17c;" horiz-adv-x="560" 
d="M330 190h190v-190h-480v190l180 150h-170v190h460v-190zM180 700c0 28 9.66699 51.667 29 71s43 29 71 29s51.667 -9.66699 71 -29s29 -43 29 -71s-9.66699 -51.667 -29 -71s-43 -29 -71 -29s-51.667 9.66699 -71 29s-29 43 -29 71z" />
    <glyph glyph-name="Zcaron" unicode="&#x17d;" horiz-adv-x="690" 
d="M380 220h260v-220h-590v4v216l250 260h-230v220h560v-220zM430 770h-160l-120 170h150l50 -80l50 80h150z" />
    <glyph glyph-name="zcaron" unicode="&#x17e;" horiz-adv-x="560" 
d="M330 190h190v-190h-480v190l180 150h-170v190h460v-190zM360 600h-160l-120 170h150l50 -80l50 80h150z" />
    <glyph glyph-name="florin" unicode="&#x192;" horiz-adv-x="470" 
d="M110 300l-70.001 -0.000976562v200h70v15c0 88 21.167 154.167 63.5 198.5s101.166 66.5 176.499 66.5c12.667 0 24.5 -0.5 35.5 -1.5s20.5 -2.16699 28.5 -3.5c9.33301 -2 18 -3.66699 26 -5v-200c-4.66699 0.666992 -9 1.33398 -13 2.00098l-12.5 2
c-4.33301 0.666992 -9.16602 1 -14.499 1c-15.333 0 -27.5 -5 -36.5 -15s-13.5 -25 -13.5 -45v-15h90v-200h-90v-325c0 -88 -21.167 -154.167 -63.5 -198.5s-101.166 -66.5 -176.499 -66.5c-12.667 0 -24.5 0.5 -35.5 1.5s-20.5 2.16699 -28.5 3.5
c-9.33301 1.33301 -18 3 -26 5v200c3.33301 -1.33301 7.33301 -2.33301 12 -3c3.33301 -0.666992 7.5 -1.16699 12.5 -1.5s10.167 -0.5 15.5 -0.5c15.333 0 27.5 5 36.5 15s13.5 25 13.5 45v325z" />
    <glyph glyph-name="Scommaaccent" unicode="&#x218;" horiz-adv-x="625" 
d="M275 190c12.667 0 22.5 3.16797 29.5 9.50098s10.5 13.166 10.5 20.499c0 8.66699 -6.66699 16.167 -20 22.5s-30 13.333 -50 21s-41.667 16.834 -65 27.501s-45 24.667 -65 42s-36.667 38.666 -50 63.999s-20 56.333 -20 93c0 28.667 6.66699 56.5 20 83.5
s32.333 51 57 72s54.5 37.833 89.5 50.5s74.5 19 118.5 19c45.333 0 84.666 -5.83301 117.999 -17.5s61.333 -24.167 84 -37.5c26.667 -16.667 49.334 -35 68.001 -55l-95 -150c-12 10 -25 19 -39 27c-12 7.33301 -25.833 13.833 -41.5 19.5s-32.167 8.5 -49.5 8.5
c-12.667 0 -22.5 -3.16699 -29.5 -9.5s-10.5 -13.166 -10.5 -20.499c0 -8.66699 6.66699 -16.167 20 -22.5s30 -13.333 50 -21s41.667 -17 65 -28s45 -25 65 -42s36.667 -38.167 50 -63.5s20 -56.333 20 -93c0 -28.667 -6.66699 -56.5 -20 -83.5s-32.333 -51 -57 -72
s-54.5 -37.833 -89.5 -50.5s-74.5 -19 -118.5 -19c-55.333 0 -102.5 6.16699 -141.5 18.5s-71.167 26.166 -96.5 41.499c-29.333 17.333 -53.333 37.333 -72 60l95 150c14 -12.667 29.667 -23.667 47 -33c15.333 -8 33.333 -15.333 54 -22s43.667 -10 69 -10zM420 -229.999
l-70 -150h-80l40 120h-80v180h190v-150z" />
    <glyph glyph-name="scommaaccent" unicode="&#x219;" horiz-adv-x="515" 
d="M495 160c0 -24 -4.99902 -46.5029 -14.999 -67.5029s-24.833 -39.5 -44.5 -55.5s-44.167 -28.667 -73.5 -38s-63.333 -14 -102 -14c-42 0 -78.333 4.83301 -109 14.5s-56.667 20.5 -78 32.5c-24.667 14 -45.667 30 -63 48l75 120c10 -9.33301 21.333 -17.666 34 -24.999
c11.333 -6.66699 24.5 -12.5 39.5 -17.5s32.167 -7.5 51.5 -7.5c7.33301 0 13.333 2 18 6s7 8.66699 7 14c0 4.66699 -4.83301 9.33398 -14.5 14.001s-21.667 10 -36 16s-30 13.167 -47 21.5s-32.667 19 -47 32s-26.333 29 -36 48s-14.5 41.833 -14.5 68.5
c0 24 5 46.5 15 67.5s24.833 39.5 44.5 55.5s44.167 28.667 73.5 38s63.333 14 102 14c34 0 64.5 -4.5 91.5 -13.5s50.167 -18.833 69.5 -29.5c22 -12 41.667 -26 59 -42l-75 -120c-8 7.33301 -17 14 -27 20c-8.66699 5.33301 -18.834 10 -30.501 14s-24.167 6 -37.5 6
c-7.33301 0 -13.333 -2 -18 -6s-7 -8.66699 -7 -14s4.83301 -10.166 14.5 -14.499l36 -15.5c14.333 -6 30 -13.167 47 -21.5s32.667 -19 47 -32s26.333 -29 36 -48s14.5 -41.833 14.5 -68.5zM355.001 -230.003l-70 -150h-80l40 120h-80v180h190v-150z" />
    <glyph glyph-name="afii57929" unicode="&#x2bc;" horiz-adv-x="250" 
d="M220 550l-70 -150h-80l40 120h-80v180h190v-150z" />
    <glyph glyph-name="circumflex" unicode="&#x2c6;" horiz-adv-x="460" 
d="M430 530h-150l-50 80l-50 -80h-150l120 170h160z" />
    <glyph glyph-name="caron" unicode="&#x2c7;" horiz-adv-x="460" 
d="M310 530h-160l-120 170h150l50 -80l50 80h150z" />
    <glyph glyph-name="breve" unicode="&#x2d8;" horiz-adv-x="440" 
d="M220 660c26.667 0 40 13.333 40 40h150c0 -58 -17.167 -104.167 -51.5 -138.5s-80.5 -51.5 -138.5 -51.5s-104.167 17.167 -138.5 51.5s-51.5 80.5 -51.5 138.5h150c0 -26.667 13.333 -40 40 -40z" />
    <glyph glyph-name="dotaccent" unicode="&#x2d9;" horiz-adv-x="260" 
d="M30 600c0 28 9.66699 51.667 29 71s43 29 71 29s51.667 -9.66699 71 -29s29 -43 29 -71s-9.66699 -51.667 -29 -71s-43 -29 -71 -29s-51.667 9.66699 -71 29s-29 43 -29 71z" />
    <glyph glyph-name="ring" unicode="&#x2da;" horiz-adv-x="320" 
d="M30 570c0 38 12.167 69.167 36.5 93.5s55.5 36.5 93.5 36.5s69.167 -12.167 93.5 -36.5s36.5 -55.5 36.5 -93.5s-12.167 -69.167 -36.5 -93.5s-55.5 -36.5 -93.5 -36.5s-69.167 12.167 -93.5 36.5s-36.5 55.5 -36.5 93.5zM120 570c0 -10 4.16699 -19.167 12.5 -27.5
s17.5 -12.5 27.5 -12.5s19.167 4.16699 27.5 12.5s12.5 17.5 12.5 27.5s-4.16699 19.167 -12.5 27.5s-17.5 12.5 -27.5 12.5s-19.167 -4.16699 -27.5 -12.5s-12.5 -17.5 -12.5 -27.5z" />
    <glyph glyph-name="ogonek" unicode="&#x2db;" horiz-adv-x="300" 
d="M270 0c-18.667 -15.333 -35.332 -30.666 -49.999 -45.999c-12.667 -13.333 -24.167 -27.5 -34.5 -42.5s-15.5 -28.833 -15.5 -41.5c0 -5.33301 2 -10 6 -14s8.66699 -6 14 -6h60v-120h-100c-17.333 0 -33.333 2.83301 -48 8.5s-27.334 13.5 -38.001 23.5
s-19 21.667 -25 35s-9 27.666 -9 42.999c0 14 2.33301 26.833 7 38.5s11 22.5 19 32.5s17.167 19.167 27.5 27.5s20.833 15.833 31.5 22.5c24.667 15.333 53 28.333 85 39h70v0z" />
    <glyph glyph-name="tilde" unicode="&#x2dc;" horiz-adv-x="380" 
d="M260 520c-15.333 0 -28.332 2.66699 -38.999 8s-20.334 11 -29.001 17s-16.334 11.667 -23.001 17s-13 8 -19 8c-7.33301 0 -14.166 -3.5 -20.499 -10.5s-9.5 -16.833 -9.5 -29.5h-90v70c0 30 8.66699 54.167 26 72.5s38.666 27.5 63.999 27.5
c14.667 0 27.5 -2.66699 38.5 -8s20.833 -11 29.5 -17s16.334 -11.667 23.001 -17s13 -8 19 -8c7.33301 0 14.166 3.5 20.499 10.5s9.5 16.833 9.5 29.5h90v-70c0 -30 -8.66699 -54.167 -26 -72.5s-38.666 -27.5 -63.999 -27.5z" />
    <glyph glyph-name="hungarumlaut" unicode="&#x2dd;" horiz-adv-x="520" 
d="M120 700h160l-140 -210h-110zM330 700h160l-140 -210h-110z" />
    <glyph glyph-name="afii10023" unicode="&#x401;" horiz-adv-x="650" 
d="M320 200h300v-200h-560v700h540v-200h-280v-50h260v-200h-260v-50zM530 850c0 -25.333 -8.66699 -46.666 -26 -63.999s-38.666 -26 -63.999 -26s-46.666 8.66699 -63.999 26s-26 38.666 -26 63.999s8.66699 46.666 26 63.999s38.666 26 63.999 26
s46.666 -8.66699 63.999 -26s26 -38.666 26 -63.999zM310 850c0 -25.333 -8.66699 -46.666 -26 -63.999s-38.666 -26 -63.999 -26s-46.666 8.66699 -63.999 26s-26 38.666 -26 63.999s8.66699 46.666 26 63.999s38.666 26 63.999 26s46.666 -8.66699 63.999 -26
s26 -38.666 26 -63.999z" />
    <glyph glyph-name="afii10051" unicode="&#x402;" horiz-adv-x="800" 
d="M770 185c0 -72.667 -21.167 -130.001 -63.5 -172.001s-101.166 -63 -176.499 -63c-20 0 -38.333 1.66699 -55 5c-8.66699 1.33301 -17 3 -25 5v175h10c15.333 0 27.5 4.66699 36.5 14s13.5 21.333 13.5 36c0 12.667 -4.33301 23.334 -13 32.001s-19.334 13 -32.001 13
s-23.334 -4.5 -32.001 -13.5s-13 -21.167 -13 -36.5v-180h-260v470h-160v230h580v-230h-160v-120c10 14.667 22.333 28 37 40c12.667 10 28.334 19.167 47.001 27.5s40.667 12.5 66 12.5c60 0 108.333 -20.167 145 -60.5s55 -101.833 55 -184.5z" />
    <glyph glyph-name="afii10052" unicode="&#x403;" horiz-adv-x="600" 
d="M320 0h-260v700h530v-230h-270v-470zM330 980h210l-140 -210h-160z" />
    <glyph glyph-name="afii10053" unicode="&#x404;" horiz-adv-x="710" 
d="M410 715c48 0 89.333 -5.83203 124 -17.499s63.667 -24.167 87 -37.5c26.667 -16.667 49.667 -35 69 -55l-110 -170c-12 10 -25 19 -39 27c-12 7.33301 -25.833 13.833 -41.5 19.5s-32.167 8.5 -49.5 8.5c-22.667 0 -41.334 -3.16699 -56.001 -9.5
s-26.334 -13.166 -35.001 -20.499c-10.667 -8.66699 -18.667 -18.667 -24 -30h165v-160h-165c5.33301 -11.333 13.333 -21.333 24 -30c8.66699 -7.33301 20.334 -14.166 35.001 -20.499s33.334 -9.5 56.001 -9.5c17.333 0 33.833 2.66699 49.5 8s29.5 11.666 41.5 18.999
c14 8 27 17.333 39 28l110 -170c-19.333 -20.667 -42.333 -39 -69 -55c-23.333 -14 -52.333 -26.667 -87 -38s-76 -17 -124 -17c-52.667 0 -101.5 9.33301 -146.5 28s-84 44.5 -117 77.5s-59 71.667 -78 116s-28.5 92.166 -28.5 143.499s9.5 99.166 28.5 143.499
s45 83 78 116s72 58.833 117 77.5s93.833 28 146.5 28z" />
    <glyph glyph-name="afii10054" unicode="&#x405;" horiz-adv-x="625" 
d="M275 190c12.667 0 22.5 3.16797 29.5 9.50098s10.5 13.166 10.5 20.499c0 8.66699 -6.66699 16.167 -20 22.5s-30 13.333 -50 21s-41.667 16.834 -65 27.501s-45 24.667 -65 42s-36.667 38.666 -50 63.999s-20 56.333 -20 93c0 28.667 6.66699 56.5 20 83.5
s32.333 51 57 72s54.5 37.833 89.5 50.5s74.5 19 118.5 19c45.333 0 84.666 -5.83301 117.999 -17.5s61.333 -24.167 84 -37.5c26.667 -16.667 49.334 -35 68.001 -55l-95 -150c-12 10 -25 19 -39 27c-12 7.33301 -25.833 13.833 -41.5 19.5s-32.167 8.5 -49.5 8.5
c-12.667 0 -22.5 -3.16699 -29.5 -9.5s-10.5 -13.166 -10.5 -20.499c0 -8.66699 6.66699 -16.167 20 -22.5s30 -13.333 50 -21s41.667 -17 65 -28s45 -25 65 -42s36.667 -38.167 50 -63.5s20 -56.333 20 -93c0 -28.667 -6.66699 -56.5 -20 -83.5s-32.333 -51 -57 -72
s-54.5 -37.833 -89.5 -50.5s-74.5 -19 -118.5 -19c-55.333 0 -102.5 6.16699 -141.5 18.5s-71.167 26.166 -96.5 41.499c-29.333 17.333 -53.333 37.333 -72 60l95 150c14 -12.667 29.667 -23.667 47 -33c15.333 -8 33.333 -15.333 54 -22s43.667 -10 69 -10z" />
    <glyph glyph-name="afii10055" unicode="&#x406;" horiz-adv-x="380" 
d="M320 0h-260v700h260v-700z" />
    <glyph glyph-name="afii10056" unicode="&#x407;" horiz-adv-x="380" 
d="M320 0h-260v700h260v-700zM391 860c0 -25.333 -8.66699 -46.666 -26 -63.999s-38.666 -26 -63.999 -26s-46.666 8.66699 -63.999 26s-26 38.666 -26 63.999s8.66699 46.666 26 63.999s38.666 26 63.999 26s46.666 -8.66699 63.999 -26s26 -38.666 26 -63.999zM171 860
c0 -25.333 -8.66699 -46.666 -26 -63.999s-38.666 -26 -63.999 -26s-46.666 8.66699 -63.999 26s-26 38.666 -26 63.999s8.66699 46.666 26 63.999s38.666 26 63.999 26s46.666 -8.66699 63.999 -26s26 -38.666 26 -63.999z" />
    <glyph glyph-name="afii10057" unicode="&#x408;" horiz-adv-x="540" 
d="M220 700l260.001 0.000976562v-390c0 -52.667 -7.5 -100 -22.5 -142s-35.333 -77.667 -61 -107s-55.5 -51.833 -89.5 -67.5s-69.667 -23.5 -107 -23.5c-32.667 0 -61.334 3.16699 -86.001 9.5s-45.667 13.166 -63 20.499c-20 8.66699 -37 18.667 -51 30l70 210
c6 -4 12.667 -7.33301 20 -10c6 -2.66699 13.333 -5 22 -7s18 -3 28 -3c22.667 0 41.667 8 57 24s23 38 23 66v390z" />
    <glyph glyph-name="afii10058" unicode="&#x409;" horiz-adv-x="1130" 
d="M780 -10c-40 0 -78.0029 0.496094 -114.003 1.49609s-68 2.16699 -96 3.5c-32 1.33301 -62 3 -90 5v490h-90c0 -94 -7.66699 -173.167 -23 -237.5s-36 -116.333 -62 -156s-56.667 -68.167 -92 -85.5s-73 -26 -113 -26c-12.667 0 -25 0.666992 -37 2s-22.667 3 -32 5
c-11.333 2.66699 -21.666 5.33398 -30.999 8.00098v190h20c11.333 0 22.5 2.16699 33.5 6.5s21.333 12.833 31 25.5s18.5 30.667 26.5 54s14.833 53.833 20.5 91.5s10.167 83.667 13.5 138s5 119.166 5 194.499h590v-205c9.33301 0.666992 19.333 1.33398 30 2.00098
c8.66699 0.666992 18.334 1.33398 29.001 2.00098s21 1 31 1c42.667 0 80.667 -6 114 -18s61.5 -29.167 84.5 -51.5s40.667 -49.166 53 -80.499s18.5 -66.333 18.5 -105s-6.33301 -73.667 -19 -105s-32.167 -58.166 -58.5 -80.499s-59.666 -39.5 -99.999 -51.5
s-87.833 -18 -142.5 -18zM739.997 309.996v-130h40c17.333 0 31.666 5.83301 42.999 17.5s17 27.5 17 47.5s-5.66699 35.833 -17 47.5s-25.666 17.5 -42.999 17.5h-40z" />
    <glyph glyph-name="afii10059" unicode="&#x40a;" horiz-adv-x="1130" 
d="M780 -10c-40 0 -78.002 0.496094 -114.002 1.49609s-68 2.16699 -96 3.5c-32 1.33301 -62 3 -90 5v260h-160v-260h-260v700h260v-230h160v230h260v-225c9.33301 0.666992 19.333 1.33398 30 2.00098c8.66699 0.666992 18.334 1.33398 29.001 2.00098s21 1 31 1
c42.667 0 80.667 -6 114 -18s61.5 -28.667 84.5 -50s40.667 -47.166 53 -77.499s18.5 -63.5 18.5 -99.5s-6.33301 -69.167 -19 -99.5s-32.167 -56.166 -58.5 -77.499s-59.666 -38 -99.999 -50s-87.833 -18 -142.5 -18zM739.998 289.996v-110h40
c17.333 0 31.666 5.33301 42.999 16s17 23.667 17 39s-5.66699 28.333 -17 39s-25.666 16 -42.999 16h-40z" />
    <glyph glyph-name="afii10060" unicode="&#x40b;" horiz-adv-x="810" 
d="M580 700l0.000976562 -230h-160v-120c10 14.667 22.333 28 37 40c12.667 10 28.334 19.167 47.001 27.5s40.667 12.5 66 12.5c60 0 108.333 -20.5 145 -61.5s55 -103.833 55 -188.5v-180h-260v180c0 15.333 -4.33301 27.5 -13 36.5s-19.334 13.5 -32.001 13.5
s-23.334 -4.5 -32.001 -13.5s-13 -21.167 -13 -36.5v-180h-260v470h-160v230h580z" />
    <glyph glyph-name="afii10061" unicode="&#x40c;" horiz-adv-x="750" 
d="M550 350l210 -350h-300l-140 280v-280h-260v700h260v-280l120 280h300zM390 980h210l-140 -210h-160z" />
    <glyph glyph-name="afii10062" unicode="&#x40e;" horiz-adv-x="710" 
d="M430 700h300l-215 -460c-40 -85.333 -82.667 -149.166 -128 -191.499s-99.333 -63.5 -162 -63.5c-25.333 0 -48.333 2.66699 -69 8s-38.667 11.666 -54 18.999c-17.333 8 -33 17.333 -47 28l60 190c8 -4 16.333 -7.33301 25 -10c7.33301 -2.66699 15.833 -5 25.5 -7
s19.5 -3 29.5 -3c7.33301 0 13.5 1.5 18.5 4.5s9.16699 6.5 12.5 10.5s6.33301 9 9 15l-225 460h300l65 -230zM370 920c26.667 0 40 13.333 40 40h150c0 -58 -17.167 -104.167 -51.5 -138.5s-80.5 -51.5 -138.5 -51.5s-104.167 17.167 -138.5 51.5s-51.5 80.5 -51.5 138.5
h150c0 -26.667 13.333 -40 40 -40z" />
    <glyph glyph-name="afii10145" unicode="&#x40f;" horiz-adv-x="800" 
d="M740 0h-210v-130h-260v130h-210v700h260v-480h160v480h260v-700z" />
    <glyph glyph-name="afii10017" unicode="&#x410;" horiz-adv-x="770" 
d="M555 700c0 -0.666992 3 -11.167 9 -31.5l23.5 -80l33 -112.5l37.5 -128l102 -348h-290l-20 100h-130l-20 -100h-290l205 700h340zM420 260l-35 180l-35 -180h70z" />
    <glyph glyph-name="afii10018" unicode="&#x411;" horiz-adv-x="720" 
d="M320 445c9.33301 0.666992 20 1.33398 32 2.00098c10 0.666992 21.667 1.33398 35 2.00098s27.666 1 42.999 1c42.667 0 80.667 -5.83301 114 -17.5s61.5 -27.834 84.5 -48.501s40.667 -45 53 -73s18.5 -58.333 18.5 -91s-6.33301 -63 -19 -91s-32.167 -52.333 -58.5 -73
s-59.666 -36.834 -99.999 -48.501s-87.833 -17.5 -142.5 -17.5c-42.667 0 -83.167 0.5 -121.5 1.5s-72.5 2.16699 -102.5 3.5c-34.667 1.33301 -66.667 3 -96 5v700h550v-190h-290v-65zM320 270v-100h60c17.333 0 31.666 5.16699 42.999 15.5s17 21.833 17 34.5
s-5.66699 24.167 -17 34.5s-25.666 15.5 -42.999 15.5h-60z" />
    <glyph glyph-name="afii10019" unicode="&#x412;" horiz-adv-x="730" 
d="M540 365c30 -6 56.6689 -16.334 80.002 -31.001c20 -12.667 38.333 -30.5 55 -53.5s25 -53.167 25 -90.5c0 -27.333 -6 -53.166 -18 -77.499s-31.5 -45.5 -58.5 -63.5s-62 -32.333 -105 -43s-95.833 -16 -158.5 -16c-40 0 -78 0.5 -114 1.5s-68 2.16699 -96 3.5
c-32 1.33301 -62 3 -90 5v700c27.333 1.33301 57 3 89 5c27.333 1.33301 58.666 2.5 93.999 3.5s72.666 1.5 111.999 1.5c56 0 104 -5.16699 144 -15.5s72.667 -24.5 98 -42.5s43.833 -38.833 55.5 -62.5s17.5 -48.5 17.5 -74.5c0 -30 -6.83301 -54.5 -20.5 -73.5
s-28.5 -33.833 -44.5 -44.5c-19.333 -12 -41 -21 -65 -27v-5zM320.002 439.999l35 -0.00195312c17.333 0 30.833 4.33301 40.5 13s14.5 19.334 14.5 32.001s-4.83301 23.334 -14.5 32.001s-23.167 13 -40.5 13h-35v-90zM360.002 169.997c20 0 35 4.5 45 13.5
s15 21.167 15 36.5s-5 27.5 -15 36.5s-25 13.5 -45 13.5h-40v-100h40z" />
    <glyph glyph-name="afii10020" unicode="&#x413;" horiz-adv-x="600" 
d="M320 0h-260v700h530v-230h-270v-470z" />
    <glyph glyph-name="afii10021" unicode="&#x414;" horiz-adv-x="810" 
d="M800 210l-0.000976562 -340.001h-260v130h-280v-130h-260v340h60c12.667 20.667 24.334 52.334 35.001 95.001c8.66699 36 16.667 85.833 24 149.5s11 145.5 11 245.5h590v-490h80zM459.999 209.999v280h-100c0 -48 -2 -89.333 -6 -124s-8.66699 -63.667 -14 -87
c-6 -26.667 -12.667 -49.667 -20 -69h140z" />
    <glyph glyph-name="afii10022" unicode="&#x415;" horiz-adv-x="650" 
d="M320 200h300v-200h-560v700h540v-200h-280v-50h260v-200h-260v-50z" />
    <glyph glyph-name="afii10024" unicode="&#x416;" horiz-adv-x="1120" 
d="M920 350l210 -350h-300l-140 280v-280h-260v280l-140 -280h-300l210 350l-190 350h300l120 -280v280h260v-280l120 280h300z" />
    <glyph glyph-name="afii10025" unicode="&#x417;" horiz-adv-x="635" 
d="M465 365c26 -6 49.332 -16.3311 69.999 -30.998c17.333 -12.667 33.333 -30.334 48 -53.001s22 -53 22 -91c0 -26 -6.16699 -51.333 -18.5 -76s-30.5 -46.5 -54.5 -65.5s-53.833 -34.333 -89.5 -46s-76.5 -17.5 -122.5 -17.5c-55.333 0 -102.5 6.16699 -141.5 18.5
s-71.167 26.166 -96.5 41.499c-29.333 17.333 -53.333 37.333 -72 60l95 150c14 -12.667 29.667 -23.667 47 -33c15.333 -8 33.333 -15.333 54 -22s43.667 -10 69 -10c15.333 0 27.5 4.16699 36.5 12.5s13.5 17.5 13.5 27.5s-4.5 19.167 -13.5 27.5s-20.833 12.5 -35.5 12.5
h-91v170h105c15.333 0 26.666 3.33301 33.999 10s11 15 11 25s-3.66699 18.333 -11 25s-18.666 10 -33.999 10c-21.333 0 -41.333 -2.83301 -60 -8.5s-35 -12.167 -49 -19.5c-16.667 -8 -32 -17 -46 -27l-95 150c18 20 40.333 38.333 67 55
c22.667 13.333 50.834 25.833 84.501 37.5s73.167 17.5 118.5 17.5c46 0 86.833 -5.66699 122.5 -17s65.5 -26.5 89.5 -45.5s42.167 -40.5 54.5 -64.5s18.5 -48.333 18.5 -73c0 -30 -6.83301 -54.5 -20.5 -73.5s-28.5 -33.833 -44.5 -44.5c-19.333 -12 -41 -21 -65 -27v-5z
" />
    <glyph glyph-name="afii10026" unicode="&#x418;" horiz-adv-x="820" 
d="M480 700h280v-700h-260v340l-160 -340h-280v700h260v-340z" />
    <glyph glyph-name="afii10027" unicode="&#x419;" horiz-adv-x="820" 
d="M480 700h280v-700h-260v340l-160 -340h-280v700h260v-340zM410 920c15.333 0 27.5 4.5 36.5 13.5s13.5 21.167 13.5 36.5h150c0 -30 -4.83301 -57.333 -14.5 -82s-23.167 -45.667 -40.5 -63s-38.333 -30.833 -63 -40.5s-52 -14.5 -82 -14.5s-57.333 4.83301 -82 14.5
s-45.667 23.167 -63 40.5s-30.833 38.333 -40.5 63s-14.5 52 -14.5 82h150c0 -15.333 4.5 -27.5 13.5 -36.5s21.167 -13.5 36.5 -13.5z" />
    <glyph glyph-name="afii10028" unicode="&#x41a;" horiz-adv-x="750" 
d="M550 350l210 -350h-300l-140 280v-280h-260v700h260v-280l120 280h300z" />
    <glyph glyph-name="afii10029" unicode="&#x41b;" horiz-adv-x="800" 
d="M740 0h-260.001v490h-90c0 -94 -7.66699 -173.167 -23 -237.5s-36 -116.333 -62 -156s-56.667 -68.167 -92 -85.5s-73 -26 -113 -26c-12.667 0 -25 0.666992 -37 2s-22.667 3 -32 5c-11.333 2.66699 -21.666 5.33398 -30.999 8.00098v190h20
c11.333 0 22.5 2.16699 33.5 6.5s21.333 12.833 31 25.5s18.5 30.667 26.5 54s14.833 53.833 20.5 91.5s10.167 83.667 13.5 138s5 119.166 5 194.499h590v-700z" />
    <glyph glyph-name="afii10030" unicode="&#x41c;" horiz-adv-x="1090" 
d="M440 0l-120 390v-390h-260v700h370l115 -380l115 380h370v-700h-260v390l-120 -390h-210z" />
    <glyph glyph-name="afii10031" unicode="&#x41d;" horiz-adv-x="800" 
d="M320 460h160v240h260v-700h-260v240h-160v-240h-260v700h260v-240z" />
    <glyph glyph-name="afii10032" unicode="&#x41e;" horiz-adv-x="860" 
d="M540 350c0 17.333 -3 33.333 -9 48s-14 27.334 -24 38.001s-21.667 19 -35 25s-27.333 9 -42 9c-15.333 0 -29.666 -3 -42.999 -9s-25 -14.333 -35 -25s-17.833 -23.334 -23.5 -38.001s-8.5 -30.667 -8.5 -48s2.83301 -33.333 8.5 -48s13.5 -27.334 23.5 -38.001
s21.667 -19 35 -25s27.666 -9 42.999 -9c14.667 0 28.667 3 42 9s25 14.333 35 25s18 23.334 24 38.001s9 30.667 9 48zM820 350c0 -51.333 -9.5 -99.166 -28.5 -143.499s-45.667 -83 -80 -116s-75.5 -58.833 -123.5 -77.5s-100.667 -28 -158 -28s-110 9.33301 -158 28
s-89.167 44.5 -123.5 77.5s-61 71.667 -80 116s-28.5 92.166 -28.5 143.499s9.5 99.166 28.5 143.499s45.667 83 80 116s75.5 58.833 123.5 77.5s100.667 28 158 28s110 -9.33301 158 -28s89.167 -44.5 123.5 -77.5s61 -71.667 80 -116s28.5 -92.166 28.5 -143.499z" />
    <glyph glyph-name="afii10033" unicode="&#x41f;" horiz-adv-x="800" 
d="M740 700v-700h-260v480h-160v-480h-260v700h680z" />
    <glyph glyph-name="afii10034" unicode="&#x420;" horiz-adv-x="710" 
d="M360 710c54.667 0 102.169 -6.00195 142.502 -18.002s73.666 -28.667 99.999 -50s45.833 -47.166 58.5 -77.499s19 -63.5 19 -99.5s-6.16699 -69.167 -18.5 -99.5s-30 -56.166 -53 -77.499s-51.167 -38 -84.5 -50s-71.333 -18 -114 -18c-10 0 -20.333 0.166992 -31 0.5
s-20.334 0.833008 -29.001 1.5c-10.667 0.666992 -20.667 1.66699 -30 3v-225h-260v700c28 1.33301 58 3 90 5c28 1.33301 60 2.5 96 3.5s74 1.5 114 1.5zM360.002 409.998c17.333 0 31.666 5.33301 42.999 16s17 23.667 17 39s-5.66699 28.333 -17 39
s-25.666 16 -42.999 16h-40v-110h40z" />
    <glyph glyph-name="afii10035" unicode="&#x421;" horiz-adv-x="710" 
d="M40 350c0 51.333 9.5 99.167 28.5 143.5s45 83 78 116s72 58.833 117 77.5s93.833 28 146.5 28c48 0 89.333 -5.83301 124 -17.5s63.667 -24.167 87 -37.5c26.667 -16.667 49.667 -35 69 -55l-120 -190c-12 10 -25 19 -39 27c-12 7.33301 -25.833 13.833 -41.5 19.5
s-32.167 8.5 -49.5 8.5c-35.333 0 -64.166 -11.167 -86.499 -33.5s-33.5 -51.166 -33.5 -86.499s11.167 -64.166 33.5 -86.499s51.166 -33.5 86.499 -33.5c17.333 0 33.833 2.66699 49.5 8s29.5 11.666 41.5 18.999c14 8 27 17.333 39 28l120 -190
c-19.333 -20.667 -42.333 -39 -69 -55c-23.333 -14 -52.333 -26.667 -87 -38s-76 -17 -124 -17c-52.667 0 -101.5 9.33301 -146.5 28s-84 44.5 -117 77.5s-59 71.667 -78 116s-28.5 92.166 -28.5 143.499z" />
    <glyph glyph-name="afii10036" unicode="&#x422;" horiz-adv-x="680" 
d="M660 700v-230h-190v-470h-260v470h-190v230h640z" />
    <glyph glyph-name="afii10037" unicode="&#x423;" horiz-adv-x="710" 
d="M430 700h300l-215 -460c-40 -85.333 -82.667 -149.166 -128 -191.499s-99.333 -63.5 -162 -63.5c-25.333 0 -48.333 2.66699 -69 8s-38.667 11.666 -54 18.999c-17.333 8 -33 17.333 -47 28l60 190c8 -4 16.333 -7.33301 25 -10c7.33301 -2.66699 15.833 -5 25.5 -7
s19.5 -3 29.5 -3c7.33301 0 13.5 1.5 18.5 4.5s9.16699 6.5 12.5 10.5s6.33301 9 9 15l-225 460h300l65 -230z" />
    <glyph glyph-name="afii10038" unicode="&#x424;" horiz-adv-x="1000" 
d="M630 0h-260v80c-57.333 0 -107.833 7 -151.5 21s-80.167 33.167 -109.5 57.5s-51.5 53 -66.5 86s-22.5 68.167 -22.5 105.5s7.5 72.5 22.5 105.5s37.167 61.667 66.5 86s65.833 43.5 109.5 57.5s94.167 21 151.5 21v80h260v-80c57.333 0 107.833 -7 151.5 -21
s80.167 -33.167 109.5 -57.5s51.5 -53 66.5 -86s22.5 -68.167 22.5 -105.5s-7.5 -72.5 -22.5 -105.5s-37.167 -61.667 -66.5 -86s-65.833 -43.5 -109.5 -57.5s-94.167 -21 -151.5 -21v-80zM370 450c-25.333 0 -46.666 -9.16699 -63.999 -27.5s-26 -42.5 -26 -72.5
s8.66699 -54.167 26 -72.5s38.666 -27.5 63.999 -27.5v200zM630 250c25.333 0 46.666 9.16699 63.999 27.5s26 42.5 26 72.5s-8.66699 54.167 -26 72.5s-38.666 27.5 -63.999 27.5v-200z" />
    <glyph glyph-name="afii10039" unicode="&#x425;" horiz-adv-x="740" 
d="M0 700h300l70 -190l70 190h300l-190 -350l200 -350h-300l-80 210l-80 -210h-300l200 350z" />
    <glyph glyph-name="afii10040" unicode="&#x426;" horiz-adv-x="820" 
d="M810 220v-350h-260v130h-490v700h260v-480h150v480h260v-480h80z" />
    <glyph glyph-name="afii10041" unicode="&#x427;" horiz-adv-x="760" 
d="M700 700l-0.00195312 -700.001h-260v230c-12 -9.33301 -25.667 -17.666 -41 -24.999c-13.333 -6.66699 -29.166 -12.5 -47.499 -17.5s-38.833 -7.5 -61.5 -7.5c-75.333 0 -134.166 22.833 -176.499 68.5s-63.5 116.167 -63.5 211.5v240h260v-240
c0 -20 6.5 -36.667 19.5 -50s28.167 -20 45.5 -20s32.5 6.66699 45.5 20s19.5 30 19.5 50v240h260z" />
    <glyph glyph-name="afii10042" unicode="&#x428;" horiz-adv-x="1110" 
d="M1050 0h-990v700h260v-480h105v480h260v-480h105v480h260v-700z" />
    <glyph glyph-name="afii10043" unicode="&#x429;" horiz-adv-x="1140" 
d="M1130 220v-350h-260v130h-810v700h260v-480h105v480h260v-480h105v480h260v-480h80z" />
    <glyph glyph-name="afii10044" unicode="&#x42a;" horiz-adv-x="780" 
d="M430 -10c-40 0 -77.6689 0.49707 -113.002 1.49707s-66 2.16699 -92 3.5c-31.333 1.33301 -59.666 3 -84.999 5v470h-130v230h390v-205l25 2c7.33301 0.666992 15.833 1.33398 25.5 2.00098s19.5 1 29.5 1c42.667 0 80.667 -6 114 -18s61.5 -29.167 84.5 -51.5
s40.667 -49.166 53 -80.499s18.5 -66.333 18.5 -105s-6.33301 -73.667 -19 -105s-32.167 -58.166 -58.5 -80.499s-59.666 -39.5 -99.999 -51.5s-87.833 -18 -142.5 -18zM399.998 309.997v-130h30c17.333 0 31.666 5.83301 42.999 17.5s17 27.5 17 47.5
s-5.66699 35.833 -17 47.5s-25.666 17.5 -42.999 17.5h-30z" />
    <glyph glyph-name="afii10045" unicode="&#x42b;" horiz-adv-x="1040" 
d="M350 -10c-40 0 -77.6689 0.49707 -113.002 1.49707s-66 2.16699 -92 3.5c-31.333 1.33301 -59.666 3 -84.999 5v700h260v-205l25 2c7.33301 0.666992 15.833 1.33398 25.5 2.00098s19.5 1 29.5 1c42.667 0 80.667 -6 114 -18s61.5 -29.167 84.5 -51.5
s40.667 -49.166 53 -80.499s18.5 -66.333 18.5 -105s-6.33301 -73.667 -19 -105s-32.167 -58.166 -58.5 -80.499s-59.666 -39.5 -99.999 -51.5s-87.833 -18 -142.5 -18zM319.998 309.997v-130h30c17.333 0 31.666 5.83301 42.999 17.5s17 27.5 17 47.5
s-5.66699 35.833 -17 47.5s-25.666 17.5 -42.999 17.5h-30zM979.998 -0.00292969h-260v700h260v-700z" />
    <glyph glyph-name="afii10046" unicode="&#x42c;" horiz-adv-x="710" 
d="M360 -10c-40 0 -78.002 0.496094 -114.002 1.49609s-68 2.16699 -96 3.5c-32 1.33301 -62 3 -90 5v700h260v-205c9.33301 0.666992 19.333 1.33398 30 2.00098c8.66699 0.666992 18.334 1.33398 29.001 2.00098s21 1 31 1c42.667 0 80.667 -6 114 -18
s61.5 -29.167 84.5 -51.5s40.667 -49.166 53 -80.499s18.5 -66.333 18.5 -105s-6.33301 -73.667 -19 -105s-32.167 -58.166 -58.5 -80.499s-59.666 -39.5 -99.999 -51.5s-87.833 -18 -142.5 -18zM319.998 309.996v-130h40c17.333 0 31.666 5.83301 42.999 17.5
s17 27.5 17 47.5s-5.66699 35.833 -17 47.5s-25.666 17.5 -42.999 17.5h-40z" />
    <glyph glyph-name="afii10047" unicode="&#x42d;" horiz-adv-x="710" 
d="M300 715c52.667 0 101.5 -9.33398 146.5 -28.001s84 -44.5 117 -77.5s59 -71.667 78 -116s28.5 -92.166 28.5 -143.499s-9.5 -99.166 -28.5 -143.499s-45 -83 -78 -116s-72 -58.833 -117 -77.5s-93.833 -28 -146.5 -28c-48 0 -89.333 5.66699 -124 17s-63.667 24 -87 38
c-26.667 16 -49.667 34.333 -69 55l110 170c12 -10.667 25 -20 39 -28c12 -7.33301 25.833 -13.666 41.5 -18.999s32.167 -8 49.5 -8c22.667 0 41.167 3.16699 55.5 9.5s26.166 13.166 35.499 20.499c10 8.66699 18 18.667 24 30h-165v160h165c-6 11.333 -14 21.333 -24 30
c-9.33301 7.33301 -21.166 14.166 -35.499 20.499s-32.833 9.5 -55.5 9.5c-17.333 0 -33.833 -2.83301 -49.5 -8.5s-29.5 -12.167 -41.5 -19.5c-14 -8 -27 -17 -39 -27l-110 170c19.333 20 42.333 38.333 69 55c23.333 13.333 52.333 25.833 87 37.5s76 17.5 124 17.5z" />
    <glyph glyph-name="afii10048" unicode="&#x42e;" horiz-adv-x="1140" 
d="M740 715c52.667 0 101 -8.99902 145 -26.999s82 -43 114 -75s56.833 -70.333 74.5 -115s26.5 -94 26.5 -148s-8.83301 -103.333 -26.5 -148s-42.5 -83 -74.5 -115s-70 -57 -114 -75s-92.333 -27 -145 -27c-36 0 -68.667 3.66699 -98 11s-55.5 16.833 -78.5 28.5
s-43 25.167 -60 40.5s-31.833 31 -44.5 47c-29.333 37.333 -50.666 80 -63.999 128h-75v-240h-260v700h260v-240h75c13.333 47.333 34.666 89.666 63.999 126.999c12.667 16 27.5 31.667 44.5 47s37 29 60 41s49.167 21.667 78.5 29s62 11 98 11zM740 230.001
c20 0 38.333 10 55 30s25 50 25 90s-8.33301 70 -25 90s-35 30 -55 30s-38.333 -10 -55 -30s-25 -50 -25 -90s8.33301 -70 25 -90s35 -30 55 -30z" />
    <glyph glyph-name="afii10049" unicode="&#x42f;" horiz-adv-x="740" 
d="M-10 0l170 270c-17.333 10.667 -32.333 25 -45 43c-11.333 15.333 -21.666 35.333 -30.999 60s-14 55.334 -14 92.001c0 36 6.33301 69.167 19 99.5s32.167 56.166 58.5 77.499s59.5 38 99.5 50s87.667 18 143 18c38 0 74.167 -0.5 108.5 -1.5
s65.166 -2.16699 92.499 -3.5c32 -2 61.667 -3.66699 89 -5v-700h-260v230h-10l-120 -230h-300zM420 410v110h-30c-17.333 0 -31.666 -5.33301 -42.999 -16s-17 -23.667 -17 -39s5.66699 -28.333 17 -39s25.666 -16 42.999 -16h30z" />
    <glyph glyph-name="afii10065" unicode="&#x430;" horiz-adv-x="620" 
d="M285 545c42.667 0 82.001 -7.33301 118.001 -22s67.167 -34.667 93.5 -60s46.833 -55 61.5 -89s22 -70.333 22 -109v-265h-230l-20 60c-8.66699 -14 -19 -26.667 -31 -38c-10.667 -9.33301 -24.167 -17.833 -40.5 -25.5s-35.833 -11.5 -58.5 -11.5
c-27.333 0 -52.166 4.16699 -74.499 12.5s-41.333 19.833 -57 34.5s-27.667 32 -36 52s-12.5 42 -12.5 66s4.5 46 13.5 66s23.167 37.333 42.5 52s44.166 26.167 74.499 34.5s66.833 12.5 109.5 12.5h80c-2.66699 10 -7.66699 19 -15 27
c-6.66699 7.33301 -15.834 13.833 -27.501 19.5s-27.5 8.5 -47.5 8.5c-12.667 0 -24.5 -2 -35.5 -6s-20.5 -8.66699 -28.5 -14c-9.33301 -6 -18 -12.667 -26 -20l-85 135c14.667 14.667 32.667 28 54 40c18 10 40 19.167 66 27.5s56 12.5 90 12.5zM290.001 145
c12.667 0 24.168 6.66602 34.501 19.999s15.5 35 15.5 65c-28 0 -48.333 -5.33301 -61 -16s-19 -23.667 -19 -39c0 -7.33301 3.16699 -14.166 9.5 -20.499s13.166 -9.5 20.499 -9.5z" />
    <glyph glyph-name="afii10066" unicode="&#x431;" horiz-adv-x="650" 
d="M380 560c-50 0 -87.499 -11.1689 -112.499 -33.502s-37.5 -51.166 -37.5 -86.499c11.333 12.667 25.333 24.334 42 35.001c13.333 8.66699 30 16.667 50 24s42.667 11 68 11c32.667 0 63 -6 91 -18s52.333 -28.667 73 -50s36.834 -47.166 48.501 -77.499
s17.5 -63.5 17.5 -99.5c0 -38.667 -7.33301 -75 -22 -109s-35.167 -63.667 -61.5 -89s-57.5 -45.333 -93.5 -60s-75.333 -22 -118 -22s-82 7.66699 -118 23s-67.167 37.666 -93.5 66.999s-46.833 65.333 -61.5 108s-22 91.667 -22 147v40c0 118 30 207.5 90 268.5
s146.667 91.5 260 91.5c26.667 0 40 13.333 40 40h190c0 -40 -3.5 -73.5 -10.5 -100.5s-19.333 -48.5 -37 -64.5s-41.334 -27.5 -71.001 -34.5s-66.834 -10.5 -111.501 -10.5zM380.001 264.998c0 25.333 -5.33301 44.166 -16 56.499s-23.667 18.5 -39 18.5
s-28.333 -6.16699 -39 -18.5s-16 -31.166 -16 -56.499s5.33301 -44.166 16 -56.499s23.667 -18.5 39 -18.5s28.333 6.16699 39 18.5s16 31.166 16 56.499z" />
    <glyph glyph-name="afii10067" unicode="&#x432;" horiz-adv-x="590" 
d="M465 270c19.333 -5.33301 36.666 -13.334 51.999 -24.001c13.333 -9.33301 25.5 -21.833 36.5 -37.5s16.5 -35.167 16.5 -58.5c0 -20 -5.16699 -39.667 -15.5 -59s-26.666 -36.5 -48.999 -51.5s-50.833 -27 -85.5 -36s-76.334 -13.5 -125.001 -13.5
c-38 0 -72 0.5 -102 1.5s-55.667 2.16699 -77 3.5c-25.333 1.33301 -47.333 3 -66 5v530c19.333 1.33301 41.333 3 66 5c21.333 1.33301 46.5 2.5 75.5 3.5s61.833 1.5 98.5 1.5c42.667 0 79.667 -4.66699 111 -14s57.333 -21.5 78 -36.5s36 -32 46 -51s15 -38.5 15 -58.5
s-4 -36.833 -12 -50.5s-16.667 -24.5 -26 -32.5c-11.333 -9.33301 -23.666 -16.666 -36.999 -21.999v-5zM295 139.999c10 0 18.333 3.16895 25 9.50195s10 13.166 10 20.499s-3.33301 14.166 -10 20.499s-15 9.5 -25 9.5h-15v-60h15zM280 330.001
c12.667 0 22.5 3.16895 29.5 9.50195s10.5 13.166 10.5 20.499s-3.5 14.166 -10.5 20.499s-16.833 9.5 -29.5 9.5v-60z" />
    <glyph glyph-name="afii10068" unicode="&#x433;" horiz-adv-x="510" 
d="M500 530v-210h-200v-320h-240v530h440z" />
    <glyph glyph-name="afii10069" unicode="&#x434;" horiz-adv-x="650" 
d="M640 190l0.000976562 -300.001h-240v110h-160v-110h-240v300h50c9.33301 14 17.666 35.667 24.999 65c6 25.333 11.667 59.833 17 103.5s8 100.834 8 171.501h470v-340h70zM340.001 189.999l-0.000976562 149.999h-40c0 -22.667 -1.66699 -43.167 -5 -61.5
s-6.66602 -34.166 -9.99902 -47.499c-4.66699 -15.333 -9.66699 -29 -15 -41h70z" />
    <glyph glyph-name="afii10070" unicode="&#x435;" horiz-adv-x="610" 
d="M310 545c38.667 0 75 -7.33398 109 -22.001s63.667 -34.667 89 -60s45.333 -55 60 -89s22 -70.333 22 -109v-50h-320c2.66699 -10.667 7.66699 -20 15 -28c6 -7.33301 15 -13.666 27 -18.999s28 -8 48 -8c12.667 0 24.5 2 35.5 6s20.5 8.66699 28.5 14
c9.33301 6 18 12.667 26 20l85 -135c-14.667 -14.667 -32.667 -28 -54 -40c-18 -10 -40 -19.167 -66 -27.5s-56 -12.5 -90 -12.5c-42.667 0 -82 7.33301 -118 22s-67.167 34.667 -93.5 60s-46.833 55 -61.5 89s-22 70.333 -22 109s7.33301 75 22 109s34.667 63.667 60 89
s55 45.333 89 60s70.333 22 109 22zM355 309.999c0 20 -4.33105 35 -12.998 45s-19.334 15 -32.001 15s-23.334 -5 -32.001 -15s-13 -25 -13 -45h90z" />
    <glyph glyph-name="afii10072" unicode="&#x436;" horiz-adv-x="950" 
d="M800 270l160 -270h-265l-100 210v-210h-240v210l-100 -210h-265l160 270l-140 260h260l85 -200v200h240v-200l85 200h260z" />
    <glyph glyph-name="afii10073" unicode="&#x437;" horiz-adv-x="515" 
d="M395 270c18.667 -6 35.332 -14.6582 49.999 -25.9912c12.667 -9.33301 24.167 -22.5 34.5 -39.5s15.5 -38.5 15.5 -64.5c0 -18.667 -5 -37.334 -15 -56.001s-24.5 -35.334 -43.5 -50.001s-42.5 -26.5 -70.5 -35.5s-60 -13.5 -96 -13.5c-44 0 -82.333 4.83301 -115 14.5
s-59.667 20.5 -81 32.5c-25.333 14 -46.666 30 -63.999 48l75 120c9.33301 -9.33301 20 -17.666 32 -24.999c10 -6.66699 21.667 -12.5 35 -17.5s27.666 -7.5 42.999 -7.5c12.667 0 22.5 3.16699 29.5 9.5s10.5 13.166 10.5 20.499s-3.5 14.166 -10.5 20.499
s-16.833 9.5 -29.5 9.5h-60v110h70c12.667 0 22.5 3.16699 29.5 9.5s10.5 13.166 10.5 20.499s-3.5 14.166 -10.5 20.499s-16.833 9.5 -29.5 9.5c-15.333 0 -29.166 -2 -41.499 -6s-22.833 -8.66699 -31.5 -14c-10.667 -6 -19.667 -12.667 -27 -20l-75 120
c18 16 38.333 30 61 42c19.333 10.667 43.166 20.5 71.499 29.5s60.833 13.5 97.5 13.5c36 0 68 -4.5 96 -13.5s51.5 -20.833 70.5 -35.5s33.5 -31.334 43.5 -50.001s15 -37.334 15 -56.001c0 -22.667 -4.66699 -41.334 -14 -56.001s-19.666 -26.334 -30.999 -35.001
c-13.333 -10.667 -28.333 -18.667 -45 -24v-5z" />
    <glyph glyph-name="afii10074" unicode="&#x438;" horiz-adv-x="680" 
d="M50 0v530h240v-230l90 230h250v-530h-240v230l-90 -230h-250z" />
    <glyph glyph-name="afii10075" unicode="&#x439;" horiz-adv-x="680" 
d="M50 0v530h240v-230l90 230h250v-530h-240v230l-90 -230h-250zM340 750c26.667 0 40 13.333 40 40h150c0 -58 -17.167 -104.167 -51.5 -138.5s-80.5 -51.5 -138.5 -51.5s-104.167 17.167 -138.5 51.5s-51.5 80.5 -51.5 138.5h150c0 -26.667 13.333 -40 40 -40z" />
    <glyph glyph-name="afii10076" unicode="&#x43a;" horiz-adv-x="645" 
d="M495 270l160 -270h-265l-100 210v-210h-240v530h240v-200l85 200h260z" />
    <glyph glyph-name="afii10077" unicode="&#x43b;" horiz-adv-x="640" 
d="M590 530v-530.002h-240v330h-40c0 -64 -5.33301 -117.833 -16 -161.5s-25.667 -79.167 -45 -106.5s-42.5 -47 -69.5 -59s-56.833 -18 -89.5 -18c-10 0 -20.333 0.666992 -31 2s-20.334 3 -29.001 5c-10.667 2.66699 -20.667 5.33398 -30 8.00098v170h20
c12.667 0 23.834 3.33301 33.501 10s18 22.167 25 46.5s12.333 60.333 16 108s5.5 112.834 5.5 195.501h490z" />
    <glyph glyph-name="afii10078" unicode="&#x43c;" horiz-adv-x="920" 
d="M380 0l-90 290v-290h-240v530h330l80 -260l80 260h330v-530h-240v290l-90 -290h-160z" />
    <glyph glyph-name="afii10079" unicode="&#x43d;" horiz-adv-x="660" 
d="M370 530h240v-530h-240v170h-80v-170h-240v530h240v-170h80v170z" />
    <glyph glyph-name="afii10080" unicode="&#x43e;" 
d="M30 265c0 38.667 7.5 75 22.5 109s35.833 63.667 62.5 89s58.667 45.333 96 60s78.666 22 123.999 22c44.667 0 85.834 -7.33301 123.501 -22s69.834 -34.667 96.501 -60s47.5 -55 62.5 -89s22.5 -70.333 22.5 -109s-7.5 -75 -22.5 -109s-35.833 -63.667 -62.5 -89
s-58.834 -45.333 -96.501 -60s-78.834 -22 -123.501 -22c-45.333 0 -86.666 7.33301 -123.999 22s-69.333 34.667 -96 60s-47.5 55 -62.5 89s-22.5 70.333 -22.5 109zM400 265c0 22.667 -6.5 40.834 -19.5 54.501s-28.167 20.5 -45.5 20.5s-32.5 -6.83301 -45.5 -20.5
s-19.5 -31.834 -19.5 -54.501s6.5 -40.834 19.5 -54.501s28.167 -20.5 45.5 -20.5s32.5 6.83301 45.5 20.5s19.5 31.834 19.5 54.501z" />
    <glyph glyph-name="afii10081" unicode="&#x43f;" horiz-adv-x="660" 
d="M610 530v-530h-240v330h-80v-330h-240v530h560z" />
    <glyph glyph-name="afii10082" unicode="&#x440;" 
d="M640 265c0 -45.333 -5.83301 -85.3311 -17.5 -119.998s-27.167 -63.834 -46.5 -87.501s-41.666 -41.667 -66.999 -54s-51.666 -18.5 -78.999 -18.5c-25.333 0 -46.833 3.83301 -64.5 11.5s-32.167 16.167 -43.5 25.5c-13.333 11.333 -24 24 -32 38v-310h-240v780h220
l20 -60c8 13.333 18.667 25.666 32 36.999c11.333 9.33301 25.833 18 43.5 26s39.167 12 64.5 12c27.333 0 53.666 -6.16699 78.999 -18.5s47.666 -30.333 66.999 -54s34.833 -53 46.5 -88s17.5 -74.833 17.5 -119.5zM390 265.002c0 25.333 -5.33301 44.166 -16 56.499
s-23.667 18.5 -39 18.5s-28.333 -6.16699 -39 -18.5s-16 -31.166 -16 -56.499s5.33301 -44.166 16 -56.499s23.667 -18.5 39 -18.5s28.333 6.16699 39 18.5s16 31.166 16 56.499z" />
    <glyph glyph-name="afii10083" unicode="&#x441;" horiz-adv-x="560" 
d="M280 265c0 -22.667 7 -40.8311 21 -54.498s33.667 -20.5 59 -20.5c12.667 0 24.5 2 35.5 6s20.5 8.66699 28.5 14c9.33301 6 18 12.667 26 20l100 -160c-16.667 -16.667 -36 -31 -58 -43c-19.333 -10.667 -43 -20.334 -71 -29.001s-60 -13 -96 -13
c-42.667 0 -82 7.33301 -118 22s-67.167 34.667 -93.5 60s-46.833 55 -61.5 89s-22 70.333 -22 109s7.33301 75 22 109s35.167 63.667 61.5 89s57.5 45.333 93.5 60s75.333 22 118 22c36 0 68 -4.5 96 -13.5s51.667 -18.833 71 -29.5c22 -12 41.333 -26 58 -42l-100 -160
c-8 7.33301 -16.667 14 -26 20c-8 5.33301 -17.5 10 -28.5 14s-22.833 6 -35.5 6c-25.333 0 -45 -6.83301 -59 -20.5s-21 -31.834 -21 -54.501z" />
    <glyph glyph-name="afii10084" unicode="&#x442;" horiz-adv-x="520" 
d="M510 530v-210h-130v-320h-240v320h-130v210h500z" />
    <glyph glyph-name="afii10085" unicode="&#x443;" horiz-adv-x="590" 
d="M175 0l-175.001 529.999h250l45 -280l45 280h250l-190 -570c-15.333 -45.333 -31.333 -83.833 -48 -115.5s-35.167 -57.5 -55.5 -77.5s-42.833 -34.5 -67.5 -43.5s-52.667 -13.5 -84 -13.5c-17.333 0 -33.833 2 -49.5 6s-29.5 8.66699 -41.5 14c-14 6 -27 12.667 -39 20
l55 175c3.33301 -2 6.66602 -3.66699 9.99902 -5c6.66699 -3.33301 15 -5 25 -5c12.667 0 23.834 4.33301 33.501 13s16.834 19.334 21.501 32.001z" />
    <glyph glyph-name="afii10086" unicode="&#x444;" horiz-adv-x="1000" 
d="M720 265c0 25.333 -5.33301 44.166 -16 56.499s-23.667 18.5 -39 18.5s-28.333 -6.16699 -39 -18.5s-16 -31.166 -16 -56.499s5.33301 -44.166 16 -56.499s23.667 -18.5 39 -18.5s28.333 6.16699 39 18.5s16 31.166 16 56.499zM620 740v-270
c8 13.333 18.667 25.666 32 36.999c11.333 9.33301 25.833 18 43.5 26s39.167 12 64.5 12c27.333 0 53.666 -6.16699 78.999 -18.5s47.666 -30.333 66.999 -54s34.833 -53 46.5 -88s17.5 -74.833 17.5 -119.5c0 -45.333 -5.83301 -85.333 -17.5 -120
s-27.167 -63.834 -46.5 -87.501s-41.666 -41.667 -66.999 -54s-51.666 -18.5 -78.999 -18.5c-25.333 0 -46.833 3.83301 -64.5 11.5s-32.167 16.167 -43.5 25.5c-13.333 11.333 -24 24 -32 38v-310h-240v310c-9.33301 -14 -20.333 -26.667 -33 -38
c-11.333 -9.33301 -25.666 -17.833 -42.999 -25.5s-38.666 -11.5 -63.999 -11.5c-27.333 0 -53.666 6.16699 -78.999 18.5s-47.666 30.333 -66.999 54s-34.833 52.834 -46.5 87.501s-17.5 74.667 -17.5 120c0 44.667 5.83301 84.5 17.5 119.5s27.167 64.333 46.5 88
s41.666 41.667 66.999 54s51.666 18.5 78.999 18.5c25.333 0 46.666 -4 63.999 -12s31.666 -16.667 42.999 -26c12.667 -11.333 23.667 -23.666 33 -36.999v270h240zM280 265c0 -25.333 5.33301 -44.166 16 -56.499s23.667 -18.5 39 -18.5s28.333 6.16699 39 18.5
s16 31.166 16 56.499s-5.33301 44.166 -16 56.499s-23.667 18.5 -39 18.5s-28.333 -6.16699 -39 -18.5s-16 -31.166 -16 -56.499z" />
    <glyph glyph-name="afii10087" unicode="&#x445;" horiz-adv-x="600" 
d="M460 265l150 -265h-270l-40 130l-40 -130h-270l150 265l-135 265h255l40 -130l40 130h255z" />
    <glyph glyph-name="afii10088" unicode="&#x446;" horiz-adv-x="690" 
d="M610 200h70v-310h-240v110h-390v530h240v-330h80v330h240v-330z" />
    <glyph glyph-name="afii10089" unicode="&#x447;" horiz-adv-x="630" 
d="M340 530l240.002 -0.00195312v-530h-240v150c-8 -5.33301 -17.333 -9.66602 -28 -12.999c-9.33301 -3.33301 -20.5 -6.16602 -33.5 -8.49902s-27.5 -3.5 -43.5 -3.5c-28.667 0 -55 5 -79 15s-44.5 25.167 -61.5 45.5s-30.333 45.833 -40 76.5s-14.5 66.667 -14.5 108v160
h240v-160c0 -12.667 3.16699 -22.5 9.5 -29.5s13.166 -10.5 20.499 -10.5s14.166 3.5 20.499 10.5s9.5 16.833 9.5 29.5v160z" />
    <glyph glyph-name="afii10090" unicode="&#x448;" horiz-adv-x="940" 
d="M290 200h60v330h1h239v-330h60v330h240v-530h-840v530h240v-330z" />
    <glyph glyph-name="afii10091" unicode="&#x449;" horiz-adv-x="970" 
d="M650 530h240v-330h70v-310h-240v110h-670v530h240v-330h60v330h240v-330h60v330z" />
    <glyph glyph-name="afii10092" unicode="&#x44a;" horiz-adv-x="645" 
d="M360 530l0.000976562 -145.003c5.33301 0.666992 11 1.33398 17 2.00098l16.5 2c5.66699 0.666992 11.167 1 16.5 1c31.333 0 60.166 -5.33301 86.499 -16s49 -25 68 -43s33.833 -39.167 44.5 -63.5s16 -50.166 16 -77.499s-5.66699 -53.166 -17 -77.499
s-28 -45.5 -50 -63.5s-49.5 -32.333 -82.5 -43s-71.5 -16 -115.5 -16c-36.667 0 -69.5 0.5 -98.5 1.5s-54.167 2.16699 -75.5 3.5c-24.667 1.33301 -46.667 3 -66 5v320h-110v210h350zM350.001 149.997c30 0 45 13.333 45 40s-15 40 -45 40v-80z" />
    <glyph glyph-name="afii10093" unicode="&#x44b;" horiz-adv-x="875" 
d="M340 390c31.333 0 60.167 -5.33594 86.5 -16.0029s49 -25 68 -43s33.833 -39.167 44.5 -63.5s16 -50.166 16 -77.499s-5.66699 -53.166 -17 -77.499s-28 -45.5 -50 -63.5s-49.5 -32.333 -82.5 -43s-71.5 -16 -115.5 -16c-36.667 0 -69.5 0.5 -98.5 1.5
s-54.167 2.16699 -75.5 3.5c-24.667 1.33301 -46.667 3 -66 5v530h240v-145c5.33301 0.666992 11 1.33398 17 2.00098l16.5 2c5.66699 0.666992 11.167 1 16.5 1zM280.001 149.997c30 0 45 13.333 45 40s-15 40 -45 40v-80zM825.001 -0.00292969h-240v530h240v-530z" />
    <glyph glyph-name="afii10094" unicode="&#x44c;" horiz-adv-x="580" 
d="M345 390c31.333 0 60.168 -5.33691 86.501 -16.0039s49 -25 68 -43s33.833 -39.167 44.5 -63.5s16 -50.166 16 -77.499s-5.66699 -53.166 -17 -77.499s-28 -45.5 -50 -63.5s-49.5 -32.333 -82.5 -43s-71.5 -16 -115.5 -16c-38 0 -72 0.5 -102 1.5
s-55.667 2.16699 -77 3.5c-25.333 1.33301 -47.333 3 -66 5v530h240v-145c5.33301 0.666992 11.333 1.33398 18 2.00098c5.33301 0.666992 11.166 1.33398 17.499 2.00098s12.833 1 19.5 1zM280.002 229.996v-80h15c10 0 18.333 3.5 25 10.5s10 16.833 10 29.5
s-3.33301 22.5 -10 29.5s-15 10.5 -25 10.5h-15z" />
    <glyph glyph-name="afii10095" unicode="&#x44d;" horiz-adv-x="560" 
d="M235 545c42.667 0 82 -7.33105 118 -21.998s67.167 -34.667 93.5 -60s46.833 -55 61.5 -89s22 -70.333 22 -109s-7.33301 -75 -22 -109s-35.167 -63.667 -61.5 -89s-57.5 -45.333 -93.5 -60s-75.333 -22 -118 -22c-36.667 0 -68.834 4.33301 -96.501 13
s-51.167 18.334 -70.5 29.001c-22 12 -41.333 26.333 -58 43l80 130c10 -8.66699 20.667 -16.334 32 -23.001c9.33301 -5.33301 20.333 -10.333 33 -15s26 -7 40 -7c17.333 0 31.666 2.5 42.999 7.5s20.666 10.833 27.999 17.5c8 7.33301 14.333 15.666 19 24.999h-130v120
h130c-4.66699 9.33301 -11 17.666 -19 24.999c-7.33301 6 -16.666 11.667 -27.999 17s-25.666 8 -42.999 8c-14 0 -27.333 -2.5 -40 -7.5s-23.667 -10.167 -33 -15.5c-11.333 -6.66699 -22 -14 -32 -22l-80 130c16.667 16 36 30 58 42c19.333 10.667 42.833 20.5 70.5 29.5
s59.834 13.5 96.501 13.5z" />
    <glyph glyph-name="afii10096" unicode="&#x44e;" horiz-adv-x="930" 
d="M610 -15c-27.333 0 -52 2.66699 -74 8s-42 12.333 -60 21s-33.833 18.5 -47.5 29.5s-25.834 22.167 -36.501 33.5c-24.667 26.667 -43.667 57.667 -57 93h-45v-170h-240v530h240v-170h45c13.333 34.667 32.333 65.334 57 92.001
c10.667 11.333 22.834 22.666 36.501 33.999s29.5 21.333 47.5 30s38 15.667 60 21s46.667 8 74 8c42.667 0 81.667 -7.16699 117 -21.5s65.833 -34 91.5 -59s45.667 -54.5 60 -88.5s21.5 -71 21.5 -111s-7.16699 -77.167 -21.5 -111.5s-34.333 -64 -60 -89
s-56.167 -44.5 -91.5 -58.5s-74.333 -21 -117 -21zM610 340c-12.667 0 -24.167 -6.16699 -34.5 -18.5s-15.5 -31.166 -15.5 -56.499s5.16699 -44.166 15.5 -56.499s21.833 -18.5 34.5 -18.5s24.167 6.16699 34.5 18.5s15.5 31.166 15.5 56.499s-5.16699 44.166 -15.5 56.499
s-21.833 18.5 -34.5 18.5z" />
    <glyph glyph-name="afii10097" unicode="&#x44f;" horiz-adv-x="630" 
d="M335 170l-80.002 -169.999h-265l130 220c-13.333 9.33301 -25 20.666 -35 33.999c-9.33301 11.333 -17.5 25.333 -24.5 42s-10.5 36.334 -10.5 59.001c0 24 5.66699 47 17 69s28.333 41.667 51 59s51.334 31.166 86.001 41.499s75 15.5 121 15.5
c38 0 72.5 -0.5 103.5 -1.5s57.833 -2.16699 80.5 -3.5c26.667 -2 50.334 -3.66699 71.001 -5v-530h-240v170h-5zM349.998 310.001v70h-25c-10 0 -18.333 -3.33301 -25 -10s-10 -15 -10 -25s3.33301 -18.333 10 -25s15 -10 25 -10h25z" />
    <glyph glyph-name="afii10071" unicode="&#x451;" horiz-adv-x="610" 
d="M310 545c38.667 0 75 -7.33398 109 -22.001s63.667 -34.667 89 -60s45.333 -55 60 -89s22 -70.333 22 -109v-50h-320c2.66699 -10.667 7.66699 -20 15 -28c6 -7.33301 15 -13.666 27 -18.999s28 -8 48 -8c12.667 0 24.5 2 35.5 6s20.5 8.66699 28.5 14
c9.33301 6 18 12.667 26 20l85 -135c-14.667 -14.667 -32.667 -28 -54 -40c-18 -10 -40 -19.167 -66 -27.5s-56 -12.5 -90 -12.5c-42.667 0 -82 7.33301 -118 22s-67.167 34.667 -93.5 60s-46.833 55 -61.5 89s-22 70.333 -22 109s7.33301 75 22 109s34.667 63.667 60 89
s55 45.333 89 60s70.333 22 109 22zM355 309.999c0 20 -4.33105 35 -12.998 45s-19.334 15 -32.001 15s-23.334 -5 -32.001 -15s-13 -25 -13 -45h90zM510.002 679.999c0 -25.333 -8.66699 -46.666 -26 -63.999s-38.666 -26 -63.999 -26s-46.666 8.66699 -63.999 26
s-26 38.666 -26 63.999s8.66699 46.666 26 63.999s38.666 26 63.999 26s46.666 -8.66699 63.999 -26s26 -38.666 26 -63.999zM290.002 679.999c0 -25.333 -8.66699 -46.666 -26 -63.999s-38.666 -26 -63.999 -26s-46.666 8.66699 -63.999 26s-26 38.666 -26 63.999
s8.66699 46.666 26 63.999s38.666 26 63.999 26s46.666 -8.66699 63.999 -26s26 -38.666 26 -63.999z" />
    <glyph glyph-name="afii10099" unicode="&#x452;" horiz-adv-x="660" 
d="M390 230c0 20 -4.16602 35 -12.499 45s-17.5 15 -27.5 15s-19.167 -5 -27.5 -15s-12.5 -25 -12.5 -45v-230h-240v530h-70v130h70v80h240v-80h100v-130h-100v-120c10 16 22 30 36 42c12 10.667 26.667 20.5 44 29.5s37.333 13.5 60 13.5c24.667 0 48 -5.16699 70 -15.5
s41.167 -26.166 57.5 -47.499s29.166 -48.833 38.499 -82.5s14 -73.5 14 -119.5v-75c0 -82.667 -20.833 -145.834 -62.5 -189.501s-97.5 -65.5 -167.5 -65.5c-20 0 -36.667 1.66699 -50 5c-7.33301 1.33301 -14 3 -20 5v200c1.33301 -1.33301 3.33301 -2.33301 6 -3
c5.33301 -1.33301 10 -2 14 -2c10 0 19.167 4.5 27.5 13.5s12.5 21.167 12.5 36.5v75z" />
    <glyph glyph-name="afii10100" unicode="&#x453;" horiz-adv-x="500" 
d="M491 530v-210h-200v-320h-240v530h440zM270 810h210l-140 -210h-160z" />
    <glyph glyph-name="afii10101" unicode="&#x454;" horiz-adv-x="560" 
d="M325 545c36 0 68 -4.50195 96 -13.502s51.667 -18.833 71 -29.5c22 -12 41.333 -26 58 -42l-80 -130c-10 8 -20.667 15.333 -32 22c-9.33301 5.33301 -20.5 10.5 -33.5 15.5s-26.167 7.5 -39.5 7.5c-17.333 0 -31.666 -2.66699 -42.999 -8s-20.666 -11 -27.999 -17
c-8 -7.33301 -14.333 -15.666 -19 -24.999h130v-120h-130c4.66699 -9.33301 11 -17.666 19 -24.999c7.33301 -6.66699 16.666 -12.5 27.999 -17.5s25.666 -7.5 42.999 -7.5c13.333 0 26.5 2.33301 39.5 7s24.167 9.66699 33.5 15c11.333 6.66699 22 14.334 32 23.001
l80 -130c-16.667 -16.667 -36 -31 -58 -43c-19.333 -10.667 -43 -20.334 -71 -29.001s-60 -13 -96 -13c-42.667 0 -82 7.33301 -118 22s-67.167 34.667 -93.5 60s-46.833 55 -61.5 89s-22 70.333 -22 109s7.33301 75 22 109s35.167 63.667 61.5 89s57.5 45.333 93.5 60
s75.333 22 118 22z" />
    <glyph glyph-name="afii10102" unicode="&#x455;" horiz-adv-x="515" 
d="M495 160c0 -24 -4.99902 -46.5029 -14.999 -67.5029s-24.833 -39.5 -44.5 -55.5s-44.167 -28.667 -73.5 -38s-63.333 -14 -102 -14c-42 0 -78.333 4.83301 -109 14.5s-56.667 20.5 -78 32.5c-24.667 14 -45.667 30 -63 48l75 120c10 -9.33301 21.333 -17.666 34 -24.999
c11.333 -6.66699 24.5 -12.5 39.5 -17.5s32.167 -7.5 51.5 -7.5c7.33301 0 13.333 2 18 6s7 8.66699 7 14c0 4.66699 -4.83301 9.33398 -14.5 14.001s-21.667 10 -36 16s-30 13.167 -47 21.5s-32.667 19 -47 32s-26.333 29 -36 48s-14.5 41.833 -14.5 68.5
c0 24 5 46.5 15 67.5s24.833 39.5 44.5 55.5s44.167 28.667 73.5 38s63.333 14 102 14c34 0 64.5 -4.5 91.5 -13.5s50.167 -18.833 69.5 -29.5c22 -12 41.667 -26 59 -42l-75 -120c-8 7.33301 -17 14 -27 20c-8.66699 5.33301 -18.834 10 -30.501 14s-24.167 6 -37.5 6
c-7.33301 0 -13.333 -2 -18 -6s-7 -8.66699 -7 -14s4.83301 -10.166 14.5 -14.499l36 -15.5c14.333 -6 30 -13.167 47 -21.5s32.667 -19 47 -32s26.333 -29 36 -48s14.5 -41.833 14.5 -68.5z" />
    <glyph glyph-name="afii10103" unicode="&#x456;" horiz-adv-x="340" 
d="M290 530v-530h-240v530h240zM50 780h240v-190h-240v190z" />
    <glyph glyph-name="afii10104" unicode="&#x457;" horiz-adv-x="340" 
d="M285 530v-530h-240v530h240zM370 690c0 -25.333 -8.66699 -46.666 -26 -63.999s-38.666 -26 -63.999 -26s-46.666 8.66699 -63.999 26s-26 38.666 -26 63.999s8.66699 46.666 26 63.999s38.666 26 63.999 26s46.666 -8.66699 63.999 -26s26 -38.666 26 -63.999zM150 690
c0 -25.333 -8.66699 -46.666 -26 -63.999s-38.666 -26 -63.999 -26s-46.666 8.66699 -63.999 26s-26 38.666 -26 63.999s8.66699 46.666 26 63.999s38.666 26 63.999 26s46.666 -8.66699 63.999 -26s26 -38.666 26 -63.999z" />
    <glyph glyph-name="afii10105" unicode="&#x458;" horiz-adv-x="340" 
d="M50 780h240v-190h-240v190zM50 530h239.999v-555c0 -88 -21.167 -154.167 -63.5 -198.5s-101.166 -66.5 -176.499 -66.5c-12.667 0 -24.5 0.5 -35.5 1.5s-20.5 2.16699 -28.5 3.5c-9.33301 1.33301 -18 3 -26 5v200c3.33301 -1.33301 7.33301 -2.33301 12 -3
c3.33301 -0.666992 7.5 -1.16699 12.5 -1.5s10.167 -0.5 15.5 -0.5c15.333 0 27.5 5 36.5 15s13.5 25 13.5 45v555z" />
    <glyph glyph-name="afii10106" unicode="&#x459;" horiz-adv-x="880" 
d="M645 390c31.333 0 60.168 -5.33887 86.501 -16.0059s49 -25 68 -43s33.833 -39.167 44.5 -63.5s16 -50.166 16 -77.499s-5.66699 -53.166 -17 -77.499s-28 -45.5 -50 -63.5s-49.5 -32.333 -82.5 -43s-71.5 -16 -115.5 -16c-38 0 -72 0.5 -102 1.5
s-55.667 2.16699 -77 3.5c-25.333 1.33301 -47.333 3 -66 5v330h-40c0 -64 -5.33301 -117.833 -16 -161.5s-25.667 -79.167 -45 -106.5s-42.5 -47 -69.5 -59s-56.833 -18 -89.5 -18c-10 0 -20.333 0.666992 -31 2s-20.334 3 -29.001 5
c-10.667 2.66699 -20.667 5.33398 -30 8.00098v170h20c12.667 0 23.834 3.33301 33.501 10s18 22.167 25 46.5s12.333 60.333 16 108s5.5 112.834 5.5 195.501h490v-145c5.33301 0.666992 11.333 1.33398 18 2.00098c5.33301 0.666992 11.166 1.33398 17.499 2.00098
s12.833 1 19.5 1zM580.002 229.994v-80h15c10 0 18.333 3.5 25 10.5s10 16.833 10 29.5s-3.33301 22.5 -10 29.5s-15 10.5 -25 10.5h-15z" />
    <glyph glyph-name="afii10107" unicode="&#x45a;" horiz-adv-x="900" 
d="M370 530l240.002 -0.000976562v-165c5.33301 0.666992 11.333 1.33398 18 2.00098c5.33301 0.666992 11.166 1.33398 17.499 2.00098s12.833 1 19.5 1c31.333 0 60.166 -5.16699 86.499 -15.5s49 -24.333 68 -42s33.833 -38 44.5 -61s16 -46.833 16 -71.5
c0 -25.333 -5.66699 -49.333 -17 -72s-28 -42.834 -50 -60.501s-49.5 -31.667 -82.5 -42s-71.5 -15.5 -115.5 -15.5c-38 0 -72 0.5 -102 1.5s-55.667 2.16699 -77 3.5c-25.333 1.33301 -47.333 3 -66 5v190h-80v-190h-240v530h240v-170h80v170zM600.002 209.999v-59.998h15
c10 0 18.333 3.16699 25 9.5s10 13.166 10 20.499s-3.33301 14.166 -10 20.499s-15 9.5 -25 9.5h-15z" />
    <glyph glyph-name="afii10108" unicode="&#x45b;" 
d="M0 660l70.001 -0.000976562v80h240v-80h100v-130h-100v-120c10 16 22 30 36 42c12 10.667 26.667 20.5 44 29.5s37.333 13.5 60 13.5c24.667 0 48 -5.16699 70 -15.5s41.167 -26.166 57.5 -47.499s29.166 -48.833 38.499 -82.5s14 -73.5 14 -119.5v-230h-240v230
c0 20 -4.16699 35 -12.5 45s-17.5 15 -27.5 15s-19.167 -5 -27.5 -15s-12.5 -25 -12.5 -45v-230h-240v530h-70v130z" />
    <glyph glyph-name="afii10109" unicode="&#x45c;" horiz-adv-x="645" 
d="M495 270l160 -270h-265l-100 210v-210h-240v530h240v-200l85 200h260zM340 810h210l-140 -210h-160z" />
    <glyph glyph-name="afii10110" unicode="&#x45e;" horiz-adv-x="590" 
d="M175 0l-175.001 529.999h250l45 -280l45 280h250l-190 -570c-15.333 -45.333 -31.333 -83.833 -48 -115.5s-35.167 -57.5 -55.5 -77.5s-42.833 -34.5 -67.5 -43.5s-52.667 -13.5 -84 -13.5c-17.333 0 -33.833 2 -49.5 6s-29.5 8.66699 -41.5 14c-14 6 -27 12.667 -39 20
l55 175c3.33301 -2 6.66602 -3.66699 9.99902 -5c6.66699 -3.33301 15 -5 25 -5c12.667 0 23.834 4.33301 33.501 13s16.834 19.334 21.501 32.001zM289.999 749.999c26.667 0 40 13.333 40 40h150c0 -58 -17.167 -104.167 -51.5 -138.5s-80.5 -51.5 -138.5 -51.5
s-104.167 17.167 -138.5 51.5s-51.5 80.5 -51.5 138.5h150c0 -26.667 13.333 -40 40 -40z" />
    <glyph glyph-name="afii10193" unicode="&#x45f;" horiz-adv-x="660" 
d="M50 530h240v-330h80v330h240v-530h-160v-110h-240v110h-160v530z" />
    <glyph glyph-name="afii10050" unicode="&#x490;" horiz-adv-x="590" 
d="M590 470h-270v-470h-260v700h270v90h260v-320z" />
    <glyph glyph-name="afii10098" unicode="&#x491;" horiz-adv-x="490" 
d="M490 610v-290h-200v-320h-240v530h200v80h240z" />
    <glyph glyph-name="uni1E9E" unicode="&#x1e9e;" horiz-adv-x="755" 
d="M465 225c0 15.333 -5.83203 28.3369 -17.499 39.0039s-27.5 16 -47.5 16h-35v130l90 80h-95c-12.667 0 -24.167 -5.66699 -34.5 -17s-15.5 -25.666 -15.5 -42.999v-430h-260v420c0 42.667 6.83301 81.167 20.5 115.5s33.5 63.666 59.5 87.999s58.333 43.166 97 56.499
s83 20 133 20h295v-210l-100 -90c31.333 -8.66699 59.666 -21.667 84.999 -39c10.667 -7.33301 21 -16 31 -26s19 -21.333 27 -34s14.5 -27 19.5 -43s7.5 -33.667 7.5 -53c0 -34 -5.5 -64.833 -16.5 -92.5s-27.5 -51.334 -49.5 -71.001s-49.167 -34.834 -81.5 -45.501
s-69.833 -16 -112.5 -16c-14 0 -27.333 0.5 -40 1.5s-23.667 2.16699 -33 3.5c-11.333 1.33301 -22 3 -32 5v175h40c20 0 35.833 5.66699 47.5 17s17.5 25.666 17.5 42.999z" />
    <glyph glyph-name="endash" unicode="&#x2013;" horiz-adv-x="780" 
d="M30 380h720v-170h-720v170z" />
    <glyph glyph-name="emdash" unicode="&#x2014;" horiz-adv-x="1030" 
d="M30 380h970v-170h-970v170z" />
    <glyph glyph-name="quoteleft" unicode="&#x2018;" horiz-adv-x="320" 
d="M20 400l120 300h160l-70 -300h-210z" />
    </font>
</defs>
</svg>
